<svg width="44" height="36" viewBox="0 0 44 36" fill="none" xmlns="http://www.w3.org/2000/svg">
<path d="M28.5 26.6666H35C36.1917 26.6666 37.1667 25.6916 37.1667 24.5V11.5C37.1667 10.3083 36.1917 9.33329 35 9.33329H28.5C27.3083 9.33329 26.3333 10.3083 26.3333 11.5V24.5C26.3333 25.6916 27.3083 26.6666 28.5 26.6666ZM30.6667 13.6666H32.8333V22.3333H30.6667V13.6666ZM15.5 26.6666H22C23.1917 26.6666 24.1667 25.6916 24.1667 24.5V11.5C24.1667 10.3083 23.1917 9.33329 22 9.33329H15.5C14.3083 9.33329 13.3333 10.3083 13.3333 11.5V24.5C13.3333 25.6916 14.3083 26.6666 15.5 26.6666ZM17.6667 13.6666H19.8333V22.3333H17.6667V13.6666ZM6.83334 9.33329H11.1667V26.6666H6.83334V9.33329ZM0.333336 0.666626V35.3333H43.6667V0.666626H0.333336ZM39.3333 31H4.66667V4.99996H39.3333V31Z" fill="#004CE8"/>
</svg>
