<svg width="20" height="20" viewBox="0 0 20 20" fill="none" xmlns="http://www.w3.org/2000/svg">
<rect x="0.539978" y="0.117645" width="19.179" height="19.179" rx="9.58949" fill="#BB9DDE"/>
<path fill-rule="evenodd" clip-rule="evenodd" d="M10.1295 4.37956C8.36411 4.37956 6.93299 5.81067 6.93299 7.57605V8.55151C6.93299 9.30764 6.7275 10.0495 6.33848 10.6979L6.04365 11.1893C5.8481 11.5152 5.75032 11.6782 5.74363 11.8113C5.73326 12.0174 5.84285 12.2109 6.02491 12.3081C6.14247 12.3708 6.33251 12.3708 6.7126 12.3708H13.5464C13.9265 12.3708 14.1165 12.3708 14.2341 12.3081C14.4162 12.2109 14.5258 12.0174 14.5154 11.8113C14.5087 11.6782 14.4109 11.5152 14.2154 11.1893L13.9205 10.6979C13.5315 10.0496 13.326 9.30763 13.326 8.55149V8.27769C13.326 8.19017 13.326 8.14641 13.301 8.12277C13.2761 8.09913 13.2281 8.10171 13.1322 8.10686C13.1082 8.10815 13.084 8.1088 13.0596 8.1088C12.3241 8.1088 11.7278 7.5125 11.7278 6.77693C11.7278 6.28756 11.9917 5.85984 12.385 5.62834C12.4793 5.5728 12.5265 5.54503 12.5318 5.50672C12.537 5.46841 12.5038 5.43376 12.4374 5.36447C11.8556 4.75748 11.0367 4.37956 10.1295 4.37956Z" fill="#560BAD"/>
<circle cx="13.0596" cy="6.77694" r="0.799124" fill="white"/>
<path d="M11.3815 12.9036C11.4256 12.9036 11.4618 12.9394 11.4576 12.9834C11.4339 13.2368 11.2974 13.4761 11.0713 13.657C10.8215 13.8568 10.4827 13.9691 10.1295 13.9691C9.77627 13.9691 9.4375 13.8568 9.18773 13.657C8.96157 13.4761 8.82515 13.2368 8.80137 12.9834C8.79725 12.9394 8.83341 12.9036 8.87754 12.9036L10.1295 12.9036L11.3815 12.9036Z" fill="white"/>
</svg>
