<svg width="41" height="40" viewBox="0 0 41 40" fill="none" xmlns="http://www.w3.org/2000/svg">
<path d="M0.499981 20C0.499981 30.769 9.24026 39.5 20.0232 39.5C30.8061 39.5 39.5464 30.769 39.5464 20C39.5464 9.23099 30.8061 0.5 20.0232 0.5C9.24026 0.5 0.499981 9.23099 0.499981 20Z" fill="#EEE7F7" stroke="#560BAD"/>
<path d="M11.3068 20.7071C10.9162 20.3166 10.9162 19.6834 11.3068 19.2929L17.6707 12.9289C18.0612 12.5384 18.6944 12.5384 19.0849 12.9289C19.4755 13.3195 19.4755 13.9526 19.0849 14.3431L13.4281 20L19.0849 25.6569C19.4755 26.0474 19.4755 26.6805 19.0849 27.0711C18.6944 27.4616 18.0612 27.4616 17.6707 27.0711L11.3068 20.7071ZM28.0324 21H12.0139V19H28.0324V21Z" fill="#560BAD"/>
</svg>
