<svg width="202" height="230" viewBox="0 0 202 230" fill="none" xmlns="http://www.w3.org/2000/svg">
<path d="M141.062 69.966V71.2358L142.32 71.4014C158.147 73.4829 172.695 81.3628 183.247 93.5781C193.799 105.794 199.632 121.509 199.65 137.792C199.632 155.542 192.704 172.554 180.395 185.097C168.087 197.64 151.404 204.689 134.009 204.707L134.005 204.707C121.402 204.758 109.052 201.087 98.4479 194.136L97.4536 193.484L96.6209 194.333L74.355 217.022L73.6817 217.708L74.0528 218.595C75.204 221.346 75.7963 224.308 75.7931 227.3C75.7882 230.193 75.2214 233.056 74.1261 235.724C73.0308 238.392 71.429 240.81 69.4143 242.841L69.4088 242.847L69.4033 242.852C67.4103 244.905 65.0398 246.535 62.4292 247.648C59.8188 248.761 57.0191 249.336 54.1912 249.341C51.3639 249.339 48.5643 248.766 45.9546 247.653C43.3439 246.54 40.9743 244.909 38.9839 242.854L38.9758 242.845C37.0045 240.842 35.4284 238.469 34.3344 235.857C33.2184 233.149 32.6434 230.242 32.6438 227.303C32.648 224.41 33.2143 221.548 34.3095 218.88C35.4048 216.213 37.007 213.795 39.0223 211.764L39.0285 211.758L39.0346 211.752C41.0257 209.697 43.3955 208.067 46.0061 206.953C48.6167 205.84 51.417 205.266 54.2452 205.264H54.2461C57.1655 205.26 60.0553 205.866 62.7371 207.047L63.6528 207.45L64.3536 206.736L85.5998 185.085L86.5551 184.112L85.6402 183.1C74.4875 170.769 68.2956 154.607 68.3034 137.827V137.825C68.2957 128.712 70.1215 119.695 73.6675 111.331C77.2134 102.967 82.4037 95.4344 88.9163 89.1978L89.9747 88.1842L88.9482 87.1382L33.912 31.0555L33.21 30.3401L32.2933 30.7455C29.6128 31.9308 26.7232 32.5427 23.8031 32.5443C20.9724 32.5413 18.1697 31.9673 15.5565 30.8543C12.943 29.7411 10.57 28.1106 8.57508 26.0555L8.56962 26.0499L8.56409 26.0443C6.5494 24.0135 4.94759 21.5949 3.85227 18.9274C2.7572 16.2604 2.19042 13.3981 2.18524 10.5055C2.18866 7.61288 2.75451 4.7502 3.84958 2.08323C4.94488 -0.584317 6.54754 -3.00247 8.56346 -5.03205L8.56915 -5.03777L8.57477 -5.04356C10.5703 -7.09791 12.9436 -8.72796 15.5571 -9.84113C18.1699 -10.954 20.9719 -11.5286 23.802 -11.5326C26.6294 -11.5273 29.4286 -10.952 32.0386 -9.83923C34.6493 -8.72612 37.0197 -7.0969 39.0127 -5.04388L39.0188 -5.03761L39.025 -5.03141C41.0421 -3.00313 42.6455 -0.585381 43.7408 2.08218C44.8361 4.74976 45.4012 7.61334 45.4025 10.5066L45.4026 10.5079C45.4067 13.4946 44.8092 16.4496 43.6477 19.1899L43.2707 20.0793L43.9473 20.7688L100.87 78.7741L101.645 79.5635L102.61 79.0236C109.763 75.023 117.589 72.4317 125.681 71.3844L126.943 71.2211V69.9487V32.26V31.2848L126.039 30.9184C123.326 29.8181 120.861 28.1624 118.797 26.0516L118.789 26.0443C116.775 24.0135 115.173 21.5949 114.078 18.9274C112.982 16.2602 112.416 13.3978 112.411 10.5051C112.414 7.61263 112.98 4.7501 114.075 2.08323C115.17 -0.584343 116.773 -3.00248 118.789 -5.03205L118.795 -5.03841L118.801 -5.04485C120.792 -7.09974 123.162 -8.73015 125.773 -9.84324C128.383 -10.9561 131.183 -11.5301 134.01 -11.5326C136.838 -11.5283 139.637 -10.9534 142.247 -9.84049C144.858 -8.72738 147.228 -7.09782 149.221 -5.04421L149.227 -5.03793L149.233 -5.03173C151.25 -3.00282 152.853 -0.584773 153.948 2.08281C155.043 4.7496 155.608 7.61203 155.611 10.5044C155.605 13.4001 155.038 16.2655 153.943 18.9357C152.848 21.6062 151.246 24.0279 149.231 26.0626L149.228 26.0661C147.153 28.1751 144.682 29.8314 141.964 30.9362L141.062 31.303V32.2773V69.966ZM97.6542 195.347C108.494 202.453 121.122 206.206 134.011 206.155L77.2408 227.303C77.2443 224.118 76.6141 220.966 75.3882 218.036L97.6542 195.347ZM134.013 94.6546L134.009 94.6546C122.772 94.6689 112.005 99.2253 104.069 107.315C96.1345 115.404 91.6777 126.365 91.6684 137.791V137.793C91.6777 149.217 96.1351 160.176 104.071 168.262C112.007 176.35 122.774 180.902 134.01 180.912H134.013C145.248 180.898 156.014 176.344 163.952 168.259C171.889 160.174 176.352 149.218 176.37 137.794V137.79C176.352 126.364 171.889 115.406 163.953 107.319C156.016 99.2308 145.25 94.6736 134.013 94.6546Z" stroke="#560BAD" stroke-opacity="0.2" stroke-width="2.89538"/>
</svg>
