<svg width="86" height="16" viewBox="0 0 86 16" fill="none" xmlns="http://www.w3.org/2000/svg">
<path d="M13.339 13.3165C12.6874 14.0916 11.8725 14.7118 10.953 15.1321C10.0335 15.5525 9.03251 15.7627 8.02226 15.7474C4.05123 15.7474 0.916214 12.54 0.916214 8.53393C0.916214 4.52788 4.05123 1.30024 8.02226 1.30024C9.02238 1.28484 10.0136 1.49126 10.925 1.90479C11.8365 2.31831 12.6457 2.92874 13.295 3.69246L11.8705 4.87752C11.3848 4.33458 10.7914 3.89958 10.1284 3.60043C9.46538 3.30127 8.74736 3.14458 8.02043 3.14041C5.06874 3.14041 2.80822 5.53262 2.80822 8.53577C2.80822 11.5389 5.06874 13.9109 8.02043 13.9109C8.76093 13.9159 9.49343 13.7571 10.1658 13.4457C10.8382 13.1344 11.434 12.6781 11.9108 12.1094L13.339 13.3165Z" fill="#181A20"/>
<path d="M16.1898 15.5432H14.3363V6.00003H16.1898V8.14567C16.6775 6.44904 17.5942 5.79578 18.8372 5.79578C19.5082 5.79578 20.2214 5.97979 20.4872 6.16381L20.203 7.90094C19.7641 7.68893 19.2839 7.57707 18.7968 7.57339C16.9635 7.57339 16.1916 9.53501 16.1916 12.0689L16.1898 15.5432Z" fill="#181A20"/>
<path d="M30.0334 11.4764H22.3169C22.5424 13.0902 23.7634 14.071 25.3914 14.071C26.5317 14.071 27.5712 13.5613 28.1194 12.5989C28.6089 12.8234 29.1993 12.9871 29.7089 13.2116C28.8931 14.9083 27.1844 15.7456 25.3309 15.7456C22.623 15.7456 20.4652 13.7637 20.4652 10.7384C20.4652 7.71321 22.623 5.79391 25.3309 5.79391C28.0387 5.79391 30.0609 7.71137 30.0609 10.7403C30.0609 10.9648 30.0609 11.2519 30.0334 11.4764ZM28.2221 10.0263C27.9984 8.41063 26.8782 7.47031 25.3309 7.47031C23.7835 7.47031 22.5424 8.41063 22.3169 10.0263H28.2221Z" fill="#181A20"/>
<path d="M38.8903 14.071C38.2596 15.1346 36.8736 15.7474 35.5518 15.7474C32.9448 15.7474 30.7466 13.7858 30.7466 10.7605C30.7466 7.7353 32.9246 5.79208 35.5316 5.79208C36.936 5.79208 38.2596 6.34413 38.8903 7.42615V0.801544H40.7438V15.5358H38.8903V14.071ZM35.715 7.61385C34.0044 7.61385 32.6404 8.86148 32.6404 10.7421C32.6404 12.6228 34.0044 13.9312 35.715 13.9312C37.4255 13.9312 38.8701 12.7663 38.8701 10.7421C38.8701 8.71795 37.2623 7.61385 35.715 7.61385Z" fill="#181A20"/>
<path d="M43.7157 1.27078C44.4289 1.27078 44.999 1.76212 44.999 2.47794C44.999 3.19377 44.4307 3.68324 43.7157 3.68324C43.0007 3.68324 42.4323 3.19193 42.4323 2.47794C42.4323 1.76396 43.0025 1.27078 43.7157 1.27078ZM44.6324 15.5358H42.799V6.00001H44.6324V15.5358Z" fill="#181A20"/>
<path d="M51.2691 6.00001V7.57336H49.2524V15.5431H47.4007V7.57336H45.6902V6.00001H47.4007V2.4025H49.2524V6.00001H51.2691Z" fill="#181A20"/>
<path d="M63.1785 15.5431H61.2645V9.41169H54.4811V15.5431H52.5928V1.4548H54.4848V7.66721H61.2681V1.4548H63.1822L63.1785 15.5431Z" fill="#181A20"/>
<path d="M72.0959 6.00001H73.9494V15.5431H72.0959V14.1133C71.5056 15.2579 70.1819 15.7474 69.1442 15.7474C66.7609 15.7474 65.4592 14.2145 65.4775 11.515V5.99451H67.3292V11.3917C67.3292 13.0055 68.1047 13.9256 69.4064 13.9256C70.7502 13.9256 72.0941 13.1896 72.0941 11.1451L72.0959 6.00001Z" fill="#181A20"/>
<path d="M77.8581 15.5431H76.0046V0.808899H77.8581V7.4335C78.4888 6.35149 79.8125 5.79943 81.1966 5.79943C83.8238 5.79943 86.0018 7.72057 86.0018 10.7679C86.0018 13.8152 83.7816 15.7547 81.1765 15.7547C79.8528 15.7547 78.4888 15.142 77.8581 14.0783V15.5431ZM81.0335 13.9293C82.744 13.9293 84.108 12.6209 84.108 10.7403C84.108 8.85963 82.744 7.61199 81.0335 7.61199C79.4861 7.61199 77.8783 8.69585 77.8783 10.7403C77.8783 12.7847 79.3431 13.9293 81.028 13.9293H81.0335Z" fill="#181A20"/>
</svg>
