<svg width="22" height="28" viewBox="0 0 22 28" fill="none" xmlns="http://www.w3.org/2000/svg">
<path d="M15.2773 8.80521V4.80101C15.5903 4.67568 15.8747 4.48787 16.1133 4.24896C16.3451 4.01838 16.5292 3.74412 16.6551 3.4419C16.7809 3.13969 16.846 2.81548 16.8466 2.48792C16.8464 2.16059 16.7814 1.83656 16.6556 1.53459C16.5297 1.23263 16.3454 0.9587 16.1133 0.728713C15.884 0.49595 15.6111 0.311084 15.3103 0.184749C15.0095 0.0584135 14.6867 -0.00688923 14.3606 -0.00735474C14.0345 -0.00709206 13.7117 0.0581098 13.4108 0.184457C13.11 0.310804 12.8371 0.495786 12.6079 0.728713C12.376 0.958761 12.1917 1.23268 12.0658 1.53464C11.94 1.83659 11.875 2.1606 11.8746 2.48792C11.8752 2.81521 11.9403 3.13915 12.0661 3.44107C12.192 3.743 12.3761 4.01694 12.6079 4.24711C12.8455 4.48638 13.1294 4.67426 13.4421 4.79916V8.80337C12.5495 8.91717 11.6862 9.19872 10.8974 9.63329L4.75755 3.47057C4.89105 3.16032 4.95969 2.82587 4.95921 2.48792C4.95905 2.16057 4.89415 1.83651 4.76827 1.53453C4.64238 1.23254 4.45802 0.958638 4.22587 0.728713C3.99655 0.496032 3.72363 0.311213 3.42282 0.184884C3.12201 0.0585542 2.79927 -0.00678808 2.47319 -0.00735474C2.14682 -0.0069297 1.82377 0.0583284 1.52265 0.184659C1.22152 0.310989 0.948287 0.495894 0.71869 0.728713C0.486709 0.958761 0.302448 1.23268 0.176575 1.53464C0.0507024 1.83659 -0.0142856 2.1606 -0.0146484 2.48792C-0.0140839 2.81521 0.051005 3.13915 0.176866 3.44107C0.302727 3.743 0.486872 4.01694 0.71869 4.24711C0.948226 4.48001 1.22144 4.66499 1.52258 4.79132C1.82372 4.91766 2.14681 4.98286 2.47319 4.98318C2.81001 4.98302 3.14322 4.91351 3.45221 4.77892L9.38858 10.7374C8.67069 11.4145 8.09873 12.2322 7.70804 13.14C7.31734 14.0477 7.11621 15.0262 7.11706 16.015C7.11621 17.8355 7.79822 19.5896 9.02741 20.9282L6.73573 23.2285C6.42663 23.0945 6.09342 23.0256 5.75672 23.026C5.4306 23.0263 5.10777 23.0915 4.80692 23.2179C4.50607 23.3442 4.23318 23.5292 4.00405 23.7621C3.77215 23.9922 3.58794 24.2661 3.46208 24.5681C3.33621 24.87 3.27117 25.194 3.27071 25.5213C3.27065 25.8537 3.33672 26.1828 3.46504 26.4892C3.59068 26.7849 3.7718 27.0535 3.99854 27.2805C4.22761 27.5135 4.50049 27.6986 4.80136 27.8249C5.10222 27.9513 5.42508 28.0164 5.75122 28.0166C6.0773 28.016 6.40004 27.9507 6.70085 27.8244C7.00165 27.698 7.27458 27.5132 7.5039 27.2805C7.73572 27.0503 7.91986 26.7764 8.04572 26.4745C8.17158 26.1725 8.23667 25.8486 8.23724 25.5213C8.23761 25.183 8.16964 24.848 8.03741 24.5368L10.4391 22.1262C11.6083 22.8811 12.9704 23.28 14.3606 23.2745C16.2792 23.2725 18.1186 22.5067 19.4753 21.145C20.8319 19.7833 21.5949 17.937 21.5968 16.0113C21.5948 14.2448 20.9525 12.5393 19.7896 11.2133C18.6267 9.8873 17.0228 9.03134 15.2773 8.80521ZM14.3606 20.4388C13.191 20.4378 12.0696 19.971 11.2426 19.1409C10.4156 18.3108 9.95056 17.1853 9.94959 16.0113C9.95056 14.8372 10.4155 13.7114 11.2425 12.8811C12.0695 12.0507 13.1909 11.5835 14.3606 11.582C15.5304 11.584 16.6517 12.0513 17.4788 12.8815C18.306 13.7117 18.7715 14.8372 18.7735 16.0113C18.7715 17.1853 18.3059 18.3106 17.4787 19.1405C16.6515 19.9704 15.5302 20.4373 14.3606 20.4388Z" fill="#560BAD"/>
</svg>
