<svg width="111" height="28" viewBox="0 0 111 28" fill="none" xmlns="http://www.w3.org/2000/svg">
<g clip-path="url(#clip0_747_601)">
<path d="M15.2773 8.80521V4.80101C15.5903 4.67568 15.8747 4.48787 16.1133 4.24896C16.3451 4.01838 16.5292 3.74412 16.6551 3.44191C16.7809 3.13969 16.846 2.81548 16.8466 2.48792C16.8464 2.16059 16.7814 1.83656 16.6556 1.53459C16.5297 1.23263 16.3454 0.9587 16.1133 0.728713C15.884 0.49595 15.6111 0.311084 15.3103 0.184749C15.0095 0.0584135 14.6867 -0.00688923 14.3606 -0.00735474C14.0345 -0.00709206 13.7117 0.0581098 13.4108 0.184457C13.11 0.310804 12.8371 0.495786 12.6079 0.728713C12.376 0.958761 12.1917 1.23268 12.0658 1.53464C11.94 1.83659 11.875 2.1606 11.8746 2.48792C11.8752 2.81521 11.9403 3.13915 12.0661 3.44107C12.192 3.743 12.3761 4.01694 12.6079 4.24711C12.8455 4.48638 13.1294 4.67426 13.4421 4.79916V8.80337C12.5495 8.91717 11.6862 9.19872 10.8974 9.63329L4.75755 3.47057C4.89105 3.16032 4.95969 2.82587 4.95921 2.48792C4.95905 2.16057 4.89415 1.83651 4.76827 1.53453C4.64238 1.23254 4.45802 0.958638 4.22587 0.728713C3.99655 0.496032 3.72363 0.311213 3.42282 0.184884C3.12201 0.0585542 2.79927 -0.00678808 2.47319 -0.00735474C2.14682 -0.0069297 1.82377 0.0583284 1.52265 0.184659C1.22152 0.310989 0.948287 0.495894 0.71869 0.728713C0.486709 0.958761 0.302448 1.23268 0.176575 1.53464C0.0507024 1.83659 -0.0142856 2.1606 -0.0146484 2.48792C-0.0140839 2.81521 0.051005 3.13915 0.176866 3.44107C0.302727 3.743 0.486872 4.01694 0.71869 4.24711C0.948226 4.48001 1.22144 4.66499 1.52258 4.79132C1.82372 4.91766 2.14681 4.98286 2.47319 4.98318C2.81001 4.98302 3.14322 4.91351 3.45221 4.77892L9.38859 10.7374C8.67069 11.4145 8.09873 12.2322 7.70803 13.14C7.31734 14.0477 7.11621 15.0262 7.11706 16.015C7.11621 17.8355 7.79822 19.5896 9.02741 20.9282L6.73573 23.2285C6.42663 23.0945 6.09342 23.0256 5.75672 23.026C5.4306 23.0263 5.10777 23.0915 4.80692 23.2178C4.50607 23.3442 4.23318 23.5292 4.00405 23.7621C3.77215 23.9922 3.58794 24.2661 3.46208 24.5681C3.33621 24.87 3.27117 25.194 3.27071 25.5213C3.27065 25.8537 3.33672 26.1828 3.46504 26.4892C3.59068 26.7849 3.7718 27.0535 3.99854 27.2805C4.22761 27.5135 4.50049 27.6986 4.80136 27.8249C5.10222 27.9513 5.42508 28.0164 5.75122 28.0166C6.0773 28.016 6.40004 27.9507 6.70085 27.8244C7.00166 27.698 7.27458 27.5132 7.5039 27.2805C7.73572 27.0503 7.91986 26.7764 8.04572 26.4745C8.17158 26.1725 8.23667 25.8486 8.23724 25.5213C8.23761 25.183 8.16964 24.848 8.03741 24.5368L10.4391 22.1262C11.6083 22.8811 12.9704 23.28 14.3606 23.2745C16.2792 23.2725 18.1186 22.5067 19.4753 21.145C20.8319 19.7833 21.5949 17.937 21.5968 16.0113C21.5948 14.2448 20.9524 12.5393 19.7896 11.2133C18.6267 9.8873 17.0228 9.03134 15.2773 8.80521ZM14.3606 20.4388C13.191 20.4378 12.0696 19.971 11.2426 19.1409C10.4156 18.3108 9.95056 17.1853 9.94959 16.0113C9.95056 14.8372 10.4155 13.7114 11.2425 12.8811C12.0695 12.0507 13.1909 11.5835 14.3606 11.582C15.5304 11.584 16.6517 12.0513 17.4788 12.8815C18.306 13.7117 18.7715 14.8372 18.7735 16.0113C18.7715 17.1853 18.3059 18.3106 17.4787 19.1405C16.6515 19.9704 15.5302 20.4373 14.3606 20.4388Z" fill="#560BAD"/>
<path d="M38.3389 21.3165C37.6874 22.0916 36.8724 22.7118 35.953 23.1321C35.0335 23.5525 34.0325 23.7627 33.0222 23.7474C29.0512 23.7474 25.9162 20.54 25.9162 16.5339C25.9162 12.5279 29.0512 9.30024 33.0222 9.30024C34.0224 9.28484 35.0135 9.49126 35.925 9.90479C36.8364 10.3183 37.6457 10.9287 38.2949 11.6925L36.8704 12.8775C36.3848 12.3346 35.7914 11.8996 35.1284 11.6004C34.4654 11.3013 33.7473 11.1446 33.0204 11.1404C30.0687 11.1404 27.8082 13.5326 27.8082 16.5358C27.8082 19.5389 30.0687 21.9109 33.0204 21.9109C33.7609 21.9159 34.4934 21.7571 35.1658 21.4457C35.8382 21.1344 36.434 20.6781 36.9108 20.1094L38.3389 21.3165Z" fill="#181A20"/>
<path d="M41.1898 23.5432H39.3363V14H41.1898V16.1457C41.6775 14.449 42.5942 13.7958 43.8372 13.7958C44.5082 13.7958 45.2214 13.9798 45.4872 14.1638L45.203 15.9009C44.7641 15.6889 44.2839 15.5771 43.7968 15.5734C41.9635 15.5734 41.1916 17.535 41.1916 20.0689L41.1898 23.5432Z" fill="#181A20"/>
<path d="M55.0334 19.4764H47.3169C47.5424 21.0902 48.7634 22.071 50.3914 22.071C51.5317 22.071 52.5712 21.5613 53.1194 20.5989C53.6089 20.8234 54.1993 20.9871 54.7089 21.2116C53.8931 22.9083 52.1844 23.7456 50.3309 23.7456C47.623 23.7456 45.4652 21.7637 45.4652 18.7384C45.4652 15.7132 47.623 13.7939 50.3309 13.7939C53.0387 13.7939 55.0609 15.7114 55.0609 18.7403C55.0609 18.9648 55.0609 19.2519 55.0334 19.4764ZM53.2221 18.0263C52.9984 16.4106 51.8782 15.4703 50.3309 15.4703C48.7835 15.4703 47.5424 16.4106 47.3169 18.0263H53.2221Z" fill="#181A20"/>
<path d="M63.8903 22.071C63.2596 23.1346 61.8736 23.7474 60.5518 23.7474C57.9448 23.7474 55.7466 21.7858 55.7466 18.7605C55.7466 15.7353 57.9246 13.7921 60.5316 13.7921C61.936 13.7921 63.2596 14.3441 63.8903 15.4261V8.80154H65.7438V23.5358H63.8903V22.071ZM60.715 15.6139C59.0044 15.6139 57.6404 16.8615 57.6404 18.7421C57.6404 20.6228 59.0044 21.9312 60.715 21.9312C62.4255 21.9312 63.8701 20.7663 63.8701 18.7421C63.8701 16.718 62.2623 15.6139 60.715 15.6139Z" fill="#181A20"/>
<path d="M68.7157 9.27078C69.4288 9.27078 69.999 9.76212 69.999 10.4779C69.999 11.1938 69.4307 11.6832 68.7157 11.6832C68.0007 11.6832 67.4323 11.1919 67.4323 10.4779C67.4323 9.76396 68.0025 9.27078 68.7157 9.27078ZM69.6323 23.5358H67.799V14H69.6323V23.5358Z" fill="#181A20"/>
<path d="M76.2691 14V15.5734H74.2524V23.5431H72.4007V15.5734H70.6902V14H72.4007V10.4025H74.2524V14H76.2691Z" fill="#181A20"/>
<path d="M88.1785 23.5431H86.2645V17.4117H79.4811V23.5431H77.5927V9.4548H79.4847V15.6672H86.2681V9.4548H88.1821L88.1785 23.5431Z" fill="#181A20"/>
<path d="M97.0959 14H98.9494V23.5431H97.0959V22.1133C96.5055 23.2579 95.1819 23.7474 94.1442 23.7474C91.7608 23.7474 90.4592 22.2145 90.4775 19.515V13.9945H92.3292V19.3917C92.3292 21.0055 93.1047 21.9256 94.4063 21.9256C95.7502 21.9256 97.094 21.1896 97.094 19.1451L97.0959 14Z" fill="#181A20"/>
<path d="M102.858 23.5431H101.005V8.8089H102.858V15.4335C103.489 14.3515 104.812 13.7994 106.197 13.7994C108.824 13.7994 111.002 15.7206 111.002 18.7679C111.002 21.8152 108.782 23.7547 106.176 23.7547C104.853 23.7547 103.489 23.142 102.858 22.0783V23.5431ZM106.033 21.9293C107.744 21.9293 109.108 20.6209 109.108 18.7403C109.108 16.8596 107.744 15.612 106.033 15.612C104.486 15.612 102.878 16.6959 102.878 18.7403C102.878 20.7847 104.343 21.9293 106.028 21.9293H106.033Z" fill="#181A20"/>
</g>
<defs>
<clipPath id="clip0_747_601">
<rect width="111" height="28" fill="white"/>
</clipPath>
</defs>
</svg>
