<svg width="86" height="22" viewBox="0 0 86 22" fill="none" xmlns="http://www.w3.org/2000/svg">
<path d="M11.8365 6.9183V3.77214C12.079 3.67367 12.2993 3.5261 12.4842 3.33838C12.6638 3.15722 12.8064 2.94173 12.9039 2.70427C13.0014 2.46682 13.0519 2.21208 13.0523 1.95472C13.0521 1.69752 13.0018 1.44293 12.9043 1.20567C12.8068 0.968411 12.664 0.753183 12.4842 0.572479C12.3066 0.389594 12.0951 0.244342 11.862 0.145079C11.629 0.0458157 11.3789 -0.00549362 11.1262 -0.00585938C10.8736 -0.00565299 10.6234 0.045577 10.3904 0.14485C10.1573 0.244122 9.94584 0.389465 9.76831 0.572479C9.58858 0.753232 9.44583 0.968457 9.3483 1.20571C9.25078 1.44296 9.20042 1.69754 9.20014 1.95472C9.20058 2.21187 9.25101 2.46639 9.34852 2.70362C9.44603 2.94085 9.5887 3.15609 9.76831 3.33694C9.95238 3.52493 10.1723 3.67255 10.4146 3.77069V6.91685C9.72302 7.00627 9.05418 7.22749 8.44305 7.56893L3.68602 2.72679C3.78946 2.48303 3.84264 2.22025 3.84227 1.95472C3.84214 1.69751 3.79186 1.44289 3.69433 1.20562C3.5968 0.968347 3.45396 0.753135 3.2741 0.572479C3.09643 0.389659 2.88497 0.244444 2.65191 0.145185C2.41885 0.0459262 2.1688 -0.00541414 1.91616 -0.00585938C1.6633 -0.00552542 1.41301 0.0457488 1.17971 0.145008C0.946402 0.244268 0.734705 0.38955 0.55682 0.572479C0.377086 0.753232 0.234326 0.968457 0.136803 1.20571C0.0392796 1.44296 -0.0110714 1.69754 -0.0113525 1.95472C-0.0109151 2.21187 0.039514 2.46639 0.137028 2.70362C0.234542 2.94085 0.377213 3.15609 0.55682 3.33694C0.734658 3.51993 0.946339 3.66527 1.17965 3.76453C1.41297 3.8638 1.66329 3.91502 1.91616 3.91528C2.17712 3.91515 2.43529 3.86053 2.67468 3.75479L7.27403 8.43644C6.71783 8.96849 6.27469 9.61096 5.97199 10.3242C5.66929 11.0374 5.51346 11.8062 5.51412 12.5831C5.51345 14.0135 6.04186 15.3917 6.99421 16.4435L5.21867 18.2508C4.97918 18.1456 4.72103 18.0914 4.46016 18.0918C4.20749 18.092 3.95737 18.1432 3.72428 18.2425C3.49118 18.3418 3.27976 18.4871 3.10223 18.6701C2.92256 18.8509 2.77984 19.0662 2.68233 19.3034C2.58481 19.5406 2.53442 19.7952 2.53406 20.0524C2.53402 20.3136 2.58521 20.5721 2.68462 20.8129C2.78196 21.0452 2.92229 21.2563 3.09796 21.4346C3.27544 21.6177 3.48686 21.7631 3.71997 21.8624C3.95307 21.9616 4.20321 22.0128 4.4559 22.0129C4.70853 22.0125 4.95859 21.9612 5.19164 21.8619C5.4247 21.7627 5.63616 21.6174 5.81383 21.4346C5.99343 21.2538 6.13611 21.0385 6.23362 20.8013C6.33113 20.5641 6.38156 20.3095 6.382 20.0524C6.38229 19.7865 6.32963 19.5234 6.22718 19.2788L8.08794 17.3848C8.99382 17.978 10.0491 18.2913 11.1262 18.287C12.6127 18.2855 14.0379 17.6837 15.0889 16.6138C16.14 15.5439 16.7312 14.0933 16.7327 12.5802C16.7311 11.1922 16.2334 9.85225 15.3325 8.81038C14.4315 7.76851 13.1888 7.09597 11.8365 6.9183ZM11.1262 16.0589C10.2201 16.0582 9.35125 15.6914 8.7105 15.0392C8.06974 14.387 7.70944 13.5026 7.70869 12.5802C7.70944 11.6577 8.0697 10.7732 8.71041 10.1207C9.35112 9.4683 10.22 9.10124 11.1262 9.1001C12.0326 9.10163 12.9013 9.46876 13.5422 10.1211C14.183 10.7734 14.5437 11.6577 14.5452 12.5802C14.5437 13.5026 14.183 14.3868 13.5421 15.0389C12.9012 15.691 12.0324 16.0578 11.1262 16.0589Z" fill="#560BAD"/>
<path d="M29.7041 16.7486C29.1992 17.3576 28.5678 17.8449 27.8555 18.1752C27.1431 18.5055 26.3675 18.6706 25.5848 18.6586C22.5082 18.6586 20.0792 16.1385 20.0792 12.9909C20.0792 9.84328 22.5082 7.30727 25.5848 7.30727C26.3597 7.29517 27.1276 7.45736 27.8338 7.78227C28.54 8.10718 29.1669 8.58681 29.67 9.18687L28.5663 10.118C28.19 9.6914 27.7303 9.34961 27.2166 9.11456C26.7029 8.87951 26.1466 8.75639 25.5834 8.75312C23.2965 8.75312 21.5451 10.6327 21.5451 12.9923C21.5451 15.352 23.2965 17.2156 25.5834 17.2156C26.1571 17.2196 26.7246 17.0948 27.2456 16.8502C27.7666 16.6055 28.2281 16.247 28.5975 15.8002L29.7041 16.7486Z" fill="#181A20"/>
<path d="M31.9128 18.498H30.4767V10.9998H31.9128V12.6857C32.2906 11.3526 33.0009 10.8394 33.9639 10.8394C34.4838 10.8394 35.0363 10.9839 35.2423 11.1285L35.0221 12.4934C34.6821 12.3268 34.31 12.2389 33.9327 12.236C32.5122 12.236 31.9142 13.7773 31.9142 15.7683L31.9128 18.498Z" fill="#181A20"/>
<path d="M42.6385 15.3027H36.6599C36.8346 16.5707 37.7806 17.3413 39.042 17.3413C39.9255 17.3413 40.7309 16.9408 41.1556 16.1846C41.5348 16.361 41.9922 16.4897 42.3871 16.6661C41.755 17.9992 40.4312 18.657 38.9951 18.657C36.8971 18.657 35.2253 17.0999 35.2253 14.7229C35.2253 12.3459 36.8971 10.8379 38.9951 10.8379C41.0931 10.8379 42.6598 12.3445 42.6598 14.7243C42.6598 14.9007 42.6598 15.1263 42.6385 15.3027ZM41.2351 14.1633C41.0618 12.8939 40.194 12.1551 38.9951 12.1551C37.7963 12.1551 36.8346 12.8939 36.6599 14.1633H41.2351Z" fill="#181A20"/>
<path d="M49.5006 17.3415C49.012 18.1772 47.9381 18.6587 46.914 18.6587C44.8941 18.6587 43.191 17.1174 43.191 14.7404C43.191 12.3635 44.8785 10.8367 46.8984 10.8367C47.9864 10.8367 49.012 11.2704 49.5006 12.1206V6.91553H50.9367V18.4924H49.5006V17.3415ZM47.0404 12.2681C45.7152 12.2681 44.6583 13.2483 44.6583 14.726C44.6583 16.2036 45.7152 17.2317 47.0404 17.2317C48.3657 17.2317 49.485 16.3164 49.485 14.726C49.485 13.1356 48.2393 12.2681 47.0404 12.2681Z" fill="#181A20"/>
<path d="M53.2392 7.28418C53.7917 7.28418 54.2335 7.67023 54.2335 8.23266C54.2335 8.7951 53.7931 9.17968 53.2392 9.17968C52.6852 9.17968 52.2449 8.79365 52.2449 8.23266C52.2449 7.67168 52.6866 7.28418 53.2392 7.28418ZM53.9494 18.4924H52.529V11H53.9494V18.4924Z" fill="#181A20"/>
<path d="M59.0914 11V12.2362H57.5289V18.4981H56.0942V12.2362H54.769V11H56.0942V8.17334H57.5289V11H59.0914Z" fill="#181A20"/>
<path d="M68.3184 18.4981H66.8355V13.6806H61.5799V18.4981H60.1169V7.42871H61.5828V12.3099H66.8384V7.42871H68.3213L68.3184 18.4981Z" fill="#181A20"/>
<path d="M75.2274 10.9999H76.6635V18.4981H75.2274V17.3747C74.7701 18.274 73.7445 18.6586 72.9406 18.6586C71.094 18.6586 70.0855 17.4542 70.0997 15.3331V10.9956H71.5343V15.2363C71.5343 16.5043 72.1352 17.2272 73.1437 17.2272C74.1849 17.2272 75.226 16.6489 75.226 15.0425L75.2274 10.9999Z" fill="#181A20"/>
<path d="M79.6919 18.4983H78.2558V6.92139H79.6919V12.1264C80.1805 11.2763 81.206 10.8425 82.2785 10.8425C84.3139 10.8425 86.0014 12.352 86.0014 14.7463C86.0014 17.1406 84.2813 18.6645 82.2628 18.6645C81.2373 18.6645 80.1805 18.1831 79.6919 17.3474V18.4983ZM82.152 17.2303C83.4773 17.2303 84.5341 16.2023 84.5341 14.7246C84.5341 13.247 83.4773 12.2667 82.152 12.2667C80.9532 12.2667 79.7075 13.1183 79.7075 14.7246C79.7075 16.331 80.8424 17.2303 82.1478 17.2303H82.152Z" fill="#181A20"/>
</svg>
