<svg width="52" height="52" viewBox="0 0 52 52" fill="none" xmlns="http://www.w3.org/2000/svg">
<path d="M46.3074 14.4168V14.4422L42.4277 43.9258C42.377 44.3321 42.0266 44.6367 41.6203 44.6367H10.3848C9.97344 44.6367 9.62813 44.327 9.57227 43.9258L5.69258 14.4422V14.4117V14.493L9.57227 43.9766C9.62813 44.3778 9.97344 44.6875 10.3848 44.6875H41.6203C42.0266 44.6875 42.377 44.3828 42.4277 43.9766L46.3074 14.493C46.3125 14.4676 46.3125 14.4422 46.3074 14.4168Z" fill="black" fill-opacity="0.15"/>
<path d="M39.2844 41.1633L42.0215 20.3735L34.9223 24.7457L26 12.8426L17.0777 24.7457L9.97852 20.3735L12.7105 41.1633H39.2844ZM20.282 31.5656C20.282 28.4121 22.8465 25.8477 26 25.8477C29.1535 25.8477 31.718 28.4121 31.718 31.5656V31.6164C31.718 34.7699 29.1535 37.3344 26 37.3344C22.8465 37.3344 20.282 34.7699 20.282 31.6164V31.5656Z" fill="#CCB6E6"/>
<path d="M26 37.2836C29.1434 37.2836 31.7027 34.7344 31.718 31.591V31.5656C31.718 28.4121 29.1535 25.8477 26 25.8477C22.8465 25.8477 20.282 28.4121 20.282 31.5656V31.591C20.2973 34.7344 22.8566 37.2836 26 37.2836ZM26 29.1129C27.3508 29.1129 28.4477 30.2098 28.4477 31.5656C28.4477 32.9164 27.3508 34.0184 26 34.0184C24.6492 34.0184 23.5523 32.9215 23.5523 31.5656C23.5523 30.2148 24.6492 29.1129 26 29.1129Z" fill="#560BAD"/>
<path d="M9.57227 43.9258C9.62813 44.3269 9.97344 44.6367 10.3848 44.6367H41.6203C42.0266 44.6367 42.377 44.332 42.4277 43.9258L46.3074 14.4422V14.4168C46.3227 14.0918 45.9672 13.8683 45.6828 14.041L35.8008 20.1297L26.325 7.49021C26.2869 7.43934 26.2374 7.39804 26.1806 7.3696C26.1237 7.34116 26.061 7.32635 25.9975 7.32635C25.9339 7.32635 25.8712 7.34116 25.8143 7.3696C25.7575 7.39804 25.708 7.43934 25.6699 7.49021L16.1992 20.1297L6.31211 14.041C6.03281 13.8683 5.67227 14.0867 5.69258 14.4117V14.4422L9.57227 43.9258ZM17.0777 24.7457L26 12.8426L34.9223 24.7457L42.0215 20.3734L39.2844 41.1633H12.7105L9.97852 20.3734L17.0777 24.7457Z" fill="#560BAD"/>
</svg>
