<svg width="53" height="52" viewBox="0 0 53 52" fill="none" xmlns="http://www.w3.org/2000/svg">
<path opacity="0.2" d="M41.125 31.0578L33.65 38.5328C33.4463 38.7233 33.1994 38.8616 32.9306 38.9359C32.6617 39.0102 32.3789 39.0182 32.1063 38.9593L20.325 36.014C20.1098 35.954 19.9093 35.8503 19.7359 35.7093L8.625 27.0359L15.2469 14.5843L25.6672 11.5374C26.0374 11.4313 26.4334 11.4601 26.7844 11.6187L33.8125 14.8078H29.6078C29.3968 14.807 29.1877 14.8479 28.9925 14.9281C28.7973 15.0082 28.6199 15.1261 28.4703 15.2749L20.5078 23.2171C20.3452 23.384 20.22 23.5836 20.1403 23.8025C20.0606 24.0215 20.0283 24.2549 20.0456 24.4872C20.0629 24.7196 20.1293 24.9456 20.2405 25.1504C20.3517 25.3551 20.5051 25.5339 20.6906 25.6749L21.7875 26.5078C22.9139 27.3485 24.2819 27.8027 25.6875 27.8027C27.0931 27.8027 28.4611 27.3485 29.5875 26.5078L32.1875 24.5578L41.125 31.0578Z" fill="#560BAD"/>
<path d="M51.5453 21.775L46.5484 12.2079C46.1539 11.4548 45.48 10.8862 44.6711 10.6242C43.8623 10.3622 42.9831 10.4276 42.2219 10.8063L37.4891 13.1829H34.1578L27.4547 10.136C26.7502 9.82875 25.9618 9.77141 25.2203 9.97348L15.3281 12.8579L10.7781 10.5829C10.0136 10.211 9.13432 10.1515 8.32665 10.4169C7.51899 10.6823 6.84644 11.2518 6.45155 12.0047L1.45468 21.5719C1.25377 21.9528 1.13056 22.3698 1.0922 22.7987C1.05385 23.2276 1.10111 23.6599 1.23124 24.0704C1.5065 24.8988 2.09784 25.5851 2.87655 25.9797L7.75155 28.4172L18.7203 36.9891C19.078 37.2732 19.4942 37.4744 19.9391 37.5782L31.7203 40.5235C31.9725 40.5885 32.2317 40.6226 32.4922 40.625C33.3584 40.618 34.1883 40.2759 34.8078 39.6704L42.2828 32.1954H42.3031C42.3031 32.175 42.3234 32.175 42.3234 32.1547H42.3641L45.3906 28.5594L50.1234 26.1829C50.5103 25.9944 50.8554 25.73 51.138 25.4055C51.4207 25.081 51.6352 24.7029 51.7687 24.2938C51.8994 23.88 51.947 23.4444 51.9086 23.0121C51.8703 22.5798 51.7468 22.1594 51.5453 21.775ZM40.8609 28.8438L33.1422 23.2375C32.8606 23.0343 32.5213 22.9266 32.174 22.9302C31.8267 22.9339 31.4897 23.0487 31.2125 23.2579L28.6125 25.2079C27.7648 25.8315 26.7399 26.1679 25.6875 26.1679C24.6351 26.1679 23.6102 25.8315 22.7625 25.2079L21.6656 24.375L29.6078 16.4329H36.9L42.425 27.036L40.8609 28.8438ZM9.33593 13.5079L12.9109 15.2954L7.91405 24.8625L4.33905 23.075L9.33593 13.5079ZM32.4922 37.375L20.7312 34.4297L10.6969 26.5891L16.2219 15.986L26.1141 13.1016L27.6781 13.8125L27.3125 14.1172L19.3703 22.0797C19.0382 22.4071 18.781 22.8025 18.6163 23.2387C18.4516 23.675 18.3833 24.1417 18.4161 24.6069C18.4489 25.072 18.582 25.5245 18.8064 25.9333C19.0307 26.3421 19.3409 26.6975 19.7156 26.975L20.8125 27.8079C22.2215 28.8564 23.9311 29.4228 25.6875 29.4228C27.4439 29.4228 29.1535 28.8564 30.5625 27.8079L32.2078 26.5688L38.6266 31.2407L32.4922 37.375ZM48.6609 23.2782L45.0859 25.086L40.0891 15.5188L43.6641 13.711L48.6609 23.2782ZM24.8344 43.6313C24.7445 43.984 24.5403 44.2969 24.2536 44.5211C23.9669 44.7453 23.6139 44.8681 23.25 44.8704C23.119 44.8699 22.9888 44.8494 22.8641 44.8094L16.7297 43.286C16.2321 43.1603 15.7722 42.9164 15.3891 42.575L10.8187 38.5938C10.6587 38.4551 10.5275 38.2862 10.4327 38.0968C10.338 37.9074 10.2814 37.7012 10.2663 37.4899C10.2512 37.2787 10.2779 37.0665 10.3448 36.8656C10.4117 36.6646 10.5175 36.4788 10.6562 36.3188C10.7949 36.1587 10.9638 36.0276 11.1532 35.9328C11.3426 35.838 11.5488 35.7815 11.7601 35.7664C11.9713 35.7513 12.1835 35.778 12.3844 35.8449C12.5854 35.9118 12.7712 36.0176 12.9312 36.1563L17.5219 40.1375L23.6359 41.661C24.0541 41.7668 24.414 42.0325 24.6381 42.401C24.8623 42.7695 24.9327 43.2113 24.8344 43.6313Z" fill="#560BAD"/>
</svg>
