<svg width="237" height="163" viewBox="0 0 237 163" fill="none" xmlns="http://www.w3.org/2000/svg">
<path d="M237 142.401H0V142.51H237V142.401Z" fill="#EBEBEB"/>
<path d="M213.252 149.397H197.553V149.506H213.252V149.397Z" fill="#EBEBEB"/>
<path d="M156.998 150.58H152.879V150.689H156.998V150.58Z" fill="#EBEBEB"/>
<path d="M197.08 145.362H187.984V145.471H197.08V145.362Z" fill="#EBEBEB"/>
<path d="M45.3378 146.093H24.8657V146.201H45.3378V146.093Z" fill="#EBEBEB"/>
<path d="M52.5619 146.093H49.5615V146.201H52.5619V146.093Z" fill="#EBEBEB"/>
<path d="M106.721 147.928H62.3169V148.036H106.721V147.928Z" fill="#EBEBEB"/>
<path d="M112.338 123.008H20.8133C20.0963 123.007 19.4091 122.745 18.9025 122.279C18.396 121.814 18.1115 121.183 18.1115 120.525V2.49922C18.1177 1.84525 18.405 1.21994 18.9109 0.759128C19.4167 0.298313 20.1004 0.0392062 20.8133 0.0380859H112.338C113.056 0.0380859 113.744 0.299674 114.252 0.765303C114.759 1.23093 115.044 1.86246 115.044 2.52096V120.525C115.044 121.183 114.759 121.815 114.252 122.281C113.744 122.746 113.056 123.008 112.338 123.008ZM20.8133 0.125052C20.1277 0.126204 19.4707 0.376846 18.9863 0.821964C18.502 1.26708 18.23 1.8703 18.23 2.49922V120.525C18.23 121.154 18.502 121.757 18.9863 122.202C19.4707 122.647 20.1277 122.898 20.8133 122.899H112.338C113.024 122.898 113.682 122.647 114.167 122.202C114.652 121.757 114.925 121.154 114.926 120.525V2.49922C114.925 1.8699 114.652 1.26669 114.167 0.821699C113.682 0.376705 113.024 0.126202 112.338 0.125052H20.8133Z" fill="#EBEBEB"/>
<path d="M214.869 123.008H123.34C122.622 123.007 121.935 122.745 121.427 122.279C120.92 121.814 120.634 121.183 120.633 120.525V2.49922C120.641 1.84485 120.929 1.21955 121.436 0.758856C121.942 0.298161 122.626 0.039194 123.34 0.0380859H214.869C215.581 0.040349 216.264 0.299961 216.768 0.760654C217.273 1.22135 217.56 1.846 217.566 2.49922V120.525C217.566 121.182 217.282 121.812 216.777 122.278C216.271 122.743 215.585 123.005 214.869 123.008ZM123.34 0.125052C122.654 0.126202 121.996 0.376705 121.511 0.821699C121.026 1.26669 120.753 1.8699 120.752 2.49922V120.525C120.753 121.154 121.026 121.757 121.511 122.202C121.996 122.647 122.654 122.898 123.34 122.899H214.869C215.555 122.898 216.213 122.647 216.698 122.202C217.183 121.757 217.456 121.154 217.457 120.525V2.49922C217.456 1.8699 217.183 1.26669 216.698 0.821699C216.213 0.376705 215.555 0.126202 214.869 0.125052H123.34Z" fill="#EBEBEB"/>
<path d="M84.9123 81.6509L194.733 81.6509V14.6567L84.9123 14.6567L84.9123 81.6509Z" fill="#E6E6E6"/>
<path d="M83.2104 81.6509L193.031 81.6509V14.6567L83.2104 14.6567L83.2104 81.6509Z" fill="#F5F5F5"/>
<path d="M189.979 78.5028V17.7963L86.2588 17.7963V78.5028H189.979Z" fill="white"/>
<path d="M87.5479 78.5073V17.8008H86.2633V78.5073H87.5479Z" fill="#E6E6E6"/>
<path d="M84.4709 63.8535L191.77 63.8535V59.6313L84.4709 59.6313V63.8535Z" fill="#F5F5F5"/>
<g opacity="0.4">
<path opacity="0.4" d="M90.1689 11.3478H79.8025V68.0234H90.1689V11.3478Z" fill="#E6E6E6"/>
<path opacity="0.4" d="M90.1739 63.4707H95.312V11.3477H90.1739V63.4707Z" fill="#F5F5F5"/>
<path opacity="0.4" d="M105.678 11.3477H95.312V68.0233H105.678V11.3477Z" fill="#E6E6E6"/>
<path opacity="0.4" d="M105.683 63.4707H110.821V11.3477H105.683V63.4707Z" fill="#F5F5F5"/>
<path opacity="0.4" d="M121.187 11.3477H110.821V68.0233H121.187V11.3477Z" fill="#E6E6E6"/>
<path opacity="0.4" d="M121.192 63.4707H126.33V11.3477H121.192V63.4707Z" fill="#F5F5F5"/>
<path opacity="0.4" d="M136.696 11.3477H126.33V68.0233H136.696V11.3477Z" fill="#E6E6E6"/>
<path opacity="0.4" d="M136.701 63.4707H141.84V11.3477H136.701V63.4707Z" fill="#F5F5F5"/>
<path opacity="0.4" d="M152.206 11.3477H141.84V68.0233H152.206V11.3477Z" fill="#E6E6E6"/>
<path opacity="0.4" d="M152.206 63.4707H157.344V11.3477H152.206V63.4707Z" fill="#F5F5F5"/>
<path opacity="0.4" d="M167.71 11.3477H157.344V68.0233H167.71V11.3477Z" fill="#E6E6E6"/>
<path opacity="0.4" d="M167.716 63.4707H172.854V11.3477H167.716V63.4707Z" fill="#F5F5F5"/>
<path opacity="0.4" d="M183.22 11.3477H172.854V68.0233H183.22V11.3477Z" fill="#E6E6E6"/>
<path opacity="0.4" d="M183.224 63.4707H188.363V11.3477H183.224V63.4707Z" fill="#F5F5F5"/>
<path opacity="0.4" d="M198.729 11.3477H188.363V68.0233H198.729V11.3477Z" fill="#E6E6E6"/>
</g>
<path d="M39.2427 142.401H63.5542L63.5542 96.5699H39.2427L39.2427 142.401Z" fill="#EBEBEB"/>
<path d="M43.8592 142.401H39.2424V133.065H48.7035L43.8592 142.401Z" fill="#F5F5F5"/>
<path d="M177.954 142.401H202.266V96.5699H177.954V142.401Z" fill="#EBEBEB"/>
<path d="M39.2421 136.674L181.982 136.674V96.57L39.2421 96.57V136.674Z" fill="#F5F5F5"/>
<path d="M177.238 125.36H134.924C134.821 125.36 134.722 125.322 134.649 125.256C134.577 125.189 134.536 125.098 134.536 125.003V99.6137C134.536 99.5192 134.577 99.4285 134.649 99.3616C134.722 99.2947 134.821 99.2572 134.924 99.2572H142.736C142.82 99.2555 142.902 99.2801 142.968 99.3267C144.129 100.105 145.417 100.712 146.784 101.123C148.432 101.623 150.157 101.876 151.894 101.87H160.264C163.466 101.922 166.603 101.036 169.218 99.3398C169.283 99.2937 169.364 99.2692 169.446 99.2702H177.262C177.365 99.2702 177.464 99.3078 177.537 99.3746C177.61 99.4415 177.651 99.5322 177.651 99.6268V125.003C177.651 125.052 177.64 125.1 177.619 125.145C177.598 125.19 177.567 125.23 177.529 125.264C177.49 125.297 177.444 125.323 177.394 125.339C177.344 125.356 177.291 125.363 177.238 125.36ZM135.313 124.647H176.85V99.9833H169.55C166.829 101.723 163.581 102.636 160.264 102.592H151.894C150.073 102.598 148.265 102.332 146.537 101.805C145.135 101.383 143.812 100.767 142.613 99.979H135.313V124.647Z" fill="#E6E6E6"/>
<path d="M131.772 125.36H89.4529C89.3498 125.36 89.2509 125.322 89.1781 125.256C89.1052 125.189 89.0642 125.098 89.0642 125.003V99.6137C89.0642 99.5192 89.1052 99.4285 89.1781 99.3616C89.2509 99.2947 89.3498 99.2572 89.4529 99.2572H96.8426C96.9263 99.2555 97.0082 99.2801 97.0748 99.3267C98.2277 100.105 99.5075 100.711 100.867 101.123C102.515 101.623 104.24 101.876 105.977 101.87H114.347C117.539 101.914 120.662 101.023 123.263 99.3267C123.331 99.2812 123.412 99.2568 123.496 99.2572H131.772C131.823 99.2566 131.874 99.2654 131.921 99.2831C131.969 99.3008 132.012 99.3271 132.048 99.3603C132.084 99.3935 132.113 99.4331 132.132 99.4766C132.151 99.5201 132.161 99.5667 132.16 99.6137V124.99C132.162 125.038 132.154 125.086 132.135 125.131C132.116 125.176 132.088 125.216 132.052 125.251C132.015 125.285 131.972 125.313 131.924 125.332C131.876 125.35 131.824 125.36 131.772 125.36ZM89.8463 124.647H131.383V99.9833H123.647C120.929 101.722 117.685 102.635 114.371 102.592H106C104.18 102.598 102.371 102.332 100.644 101.805C99.2394 101.386 97.9139 100.77 96.7146 99.979H89.8416L89.8463 124.647Z" fill="#E6E6E6"/>
<path d="M86.3011 125.36H43.9871C43.884 125.36 43.7851 125.322 43.7123 125.256C43.6394 125.189 43.5984 125.098 43.5984 125.003V99.6137C43.5978 99.5667 43.6074 99.5201 43.6267 99.4766C43.646 99.4331 43.6746 99.3935 43.7108 99.3603C43.7471 99.3271 43.7902 99.3008 43.8376 99.2831C43.8851 99.2654 43.9359 99.2566 43.9871 99.2572H51.3768C51.459 99.2562 51.5391 99.2807 51.6043 99.3267C52.7582 100.103 54.0377 100.709 55.3963 101.123C57.046 101.623 58.7731 101.876 60.5107 101.87H68.8816C72.0756 101.913 75.2015 101.022 77.807 99.3267C77.8736 99.2801 77.9555 99.2555 78.0393 99.2572H86.2774C86.3805 99.2572 86.4793 99.2947 86.5522 99.3616C86.6251 99.4285 86.6661 99.5192 86.6661 99.6137V124.99C86.67 125.083 86.6339 125.174 86.5657 125.243C86.4975 125.313 86.4025 125.354 86.3011 125.36ZM44.3758 124.647H85.9124V99.9833H78.2099C75.4901 101.722 72.244 102.635 68.929 102.592H60.5344C58.7143 102.598 56.9053 102.333 55.1782 101.805C53.7736 101.386 52.4481 100.77 51.2488 99.979H44.3758V124.647Z" fill="#E6E6E6"/>
<path d="M177.366 142.401H181.983V133.065H172.527L177.366 142.401Z" fill="#F5F5F5"/>
<path d="M68.2274 88.8908H64.3928C64.4212 86.4558 64.3928 80.2725 64.1226 66.1101C63.6486 40.4552 62.7622 38.8724 62.7622 38.8724L67.3079 51.5434C68.3872 54.5233 69.0156 57.625 69.1754 60.7617C69.6779 70.6411 67.7819 78.5289 68.2274 88.8908Z" fill="#E6E6E6"/>
<path d="M71.1425 47.7212C76.2569 40.6204 86.4669 36.9157 96.9044 33.4284C101 32.0587 89.5005 49.0474 81.1391 56.7526C74.6453 62.7359 68.3411 62.6011 66.4783 68.493C66.1181 61.6488 66.7343 53.8393 71.1425 47.7212Z" fill="#E6E6E6"/>
<path d="M65.2839 43.1643C61.2738 34.8591 51.1445 24.0884 39.759 16.5006C35.2892 13.522 46.3192 39.1117 54.0975 49.5737C60.1552 57.7311 65.8053 62.6969 66.6869 68.5149C70.5074 61.2358 69.2892 51.4652 65.2839 43.1643Z" fill="#E6E6E6"/>
<path d="M65.6629 96.5701C67.8306 96.57 69.9162 95.8091 71.492 94.4436C73.0678 93.078 74.0145 91.2112 74.138 89.2258L74.8916 82.1859H56.4341L57.183 89.2258C57.3076 91.2115 58.2553 93.0784 59.8319 94.4439C61.4085 95.8093 63.4946 96.57 65.6629 96.5701Z" fill="#F0F0F0"/>
<path d="M55.2401 82.225H76.0866L76.6838 79.7247H54.6428L55.2401 82.225Z" fill="#F0F0F0"/>
<path d="M56.2684 86.5125H75.0577L75.5981 84.0122H55.728L56.2684 86.5125Z" fill="#F0F0F0"/>
<path d="M118.5 162.038C169.257 162.038 210.404 159.834 210.404 157.116C210.404 154.397 169.257 152.193 118.5 152.193C67.7427 152.193 26.5959 154.397 26.5959 157.116C26.5959 159.834 67.7427 162.038 118.5 162.038Z" fill="#F5F5F5"/>
<path d="M192.103 114.542H44.8926V129.83H192.103V114.542Z" fill="#6723B5"/>
<path opacity="0.3" d="M192.107 114.542H160.53V129.83H192.107V114.542Z" fill="black"/>
<path d="M61.146 129.83H44.8926V157.115H61.146V129.83Z" fill="#6723B5"/>
<path opacity="0.3" d="M44.8977 129.83V131.356L56.4064 134.544V157.115H61.1464V129.83H44.8977Z" fill="black"/>
<path d="M192.107 129.83H175.854V157.115H192.107V129.83Z" fill="#6723B5"/>
<path opacity="0.2" d="M192.107 129.83H175.854V157.115H192.107V129.83Z" fill="black"/>
<path opacity="0.3" d="M175.854 129.83V131.356L187.367 134.544V157.115H192.107V129.83H175.854Z" fill="black"/>
<path d="M160.53 129.83H144.276V157.115H160.53V129.83Z" fill="#6723B5"/>
<path opacity="0.3" d="M144.276 129.83V131.356L155.79 134.544V157.115H160.53V129.83H144.276Z" fill="black"/>
<path d="M92.7239 129.83H76.4705V157.115H92.7239V129.83Z" fill="#6723B5"/>
<path opacity="0.2" d="M92.7239 129.83H76.4705V157.115H92.7239V129.83Z" fill="black"/>
<path opacity="0.3" d="M76.4705 129.83V131.356L87.9839 134.544V157.115H92.7239V129.83H76.4705Z" fill="black"/>
<path d="M171.816 111.537H81.8124C81.532 111.539 81.2541 111.487 80.9964 111.386C80.7387 111.284 80.5068 111.135 80.3152 110.947C80.1237 110.759 79.9767 110.536 79.8836 110.294C79.7905 110.051 79.7533 109.793 79.7742 109.537L83.4809 55.5786C83.5279 55.0408 83.7911 54.5383 84.2195 54.1686C84.6479 53.7989 85.2108 53.5886 85.7988 53.5784H175.797C176.078 53.5765 176.355 53.6279 176.613 53.7295C176.871 53.8311 177.103 53.9806 177.294 54.1685C177.486 54.3565 177.633 54.5789 177.726 54.8216C177.819 55.0643 177.856 55.3221 177.835 55.5786L174.129 109.537C174.082 110.074 173.819 110.576 173.392 110.945C172.964 111.315 172.403 111.526 171.816 111.537Z" fill="#263238"/>
<path opacity="0.6" d="M171.816 111.537H81.8124C81.532 111.539 81.2541 111.487 80.9964 111.386C80.7387 111.284 80.5068 111.135 80.3152 110.947C80.1237 110.759 79.9767 110.536 79.8836 110.294C79.7905 110.051 79.7533 109.793 79.7742 109.537L83.4809 55.5786C83.5279 55.0408 83.7911 54.5383 84.2195 54.1686C84.6479 53.7989 85.2108 53.5886 85.7988 53.5784H175.797C176.078 53.5765 176.355 53.6279 176.613 53.7295C176.871 53.8311 177.103 53.9806 177.294 54.1685C177.486 54.3565 177.633 54.5789 177.726 54.8216C177.819 55.0643 177.856 55.3221 177.835 55.5786L174.129 109.537C174.082 110.074 173.819 110.576 173.392 110.945C172.964 111.315 172.403 111.526 171.816 111.537Z" fill="black"/>
<path d="M171.142 111.537H81.1441C80.8632 111.539 80.5848 111.488 80.3266 111.387C80.0683 111.286 79.8358 111.136 79.6437 110.948C79.4517 110.76 79.3043 110.538 79.2109 110.295C79.1175 110.052 79.0801 109.794 79.1011 109.537L82.8078 55.5787C82.8548 55.0409 83.118 54.5383 83.5464 54.1686C83.9748 53.799 84.5377 53.5886 85.1257 53.5785H175.124C175.405 53.5759 175.683 53.6269 175.941 53.7282C176.199 53.8296 176.431 53.9791 176.623 54.1672C176.815 54.3553 176.962 54.5779 177.054 54.8209C177.147 55.0639 177.184 55.3219 177.162 55.5787L173.456 109.537C173.409 110.074 173.146 110.576 172.719 110.945C172.291 111.315 171.73 111.526 171.142 111.537Z" fill="#263238"/>
<path d="M171.028 112.224H63.9376C63.4446 112.22 62.9604 112.344 62.541 112.582C62.1216 112.819 61.7841 113.161 61.5676 113.568C61.5127 113.673 61.4881 113.79 61.4961 113.906C61.5041 114.023 61.5444 114.136 61.6132 114.234C61.682 114.333 61.7771 114.413 61.8894 114.469C62.0016 114.524 62.1275 114.552 62.2549 114.55H172.687C172.815 114.552 172.941 114.524 173.053 114.469C173.165 114.413 173.26 114.333 173.329 114.234C173.398 114.136 173.438 114.023 173.446 113.906C173.454 113.79 173.43 113.673 173.375 113.568C173.161 113.164 172.827 112.824 172.412 112.586C171.997 112.348 171.518 112.223 171.028 112.224Z" fill="#263238"/>
<path opacity="0.6" d="M171.029 112.224H155.799C155.31 112.222 154.83 112.348 154.415 112.585C154 112.823 153.666 113.164 153.453 113.568C153.398 113.673 153.374 113.789 153.382 113.905C153.389 114.022 153.429 114.134 153.497 114.232C153.566 114.331 153.66 114.411 153.772 114.467C153.883 114.523 154.009 114.551 154.136 114.55H172.688C172.815 114.552 172.941 114.524 173.053 114.469C173.166 114.413 173.261 114.333 173.33 114.234C173.398 114.136 173.439 114.023 173.447 113.906C173.455 113.79 173.43 113.673 173.375 113.568C173.161 113.164 172.828 112.824 172.413 112.586C171.998 112.348 171.518 112.223 171.029 112.224Z" fill="black"/>
<path d="M161.586 113.92H157.652C157.561 113.918 157.474 113.884 157.41 113.825C157.347 113.766 157.311 113.686 157.311 113.602C157.311 113.519 157.347 113.439 157.41 113.379C157.474 113.32 157.561 113.286 157.652 113.285H161.586C161.632 113.285 161.677 113.293 161.719 113.309C161.761 113.325 161.799 113.348 161.831 113.378C161.863 113.407 161.889 113.442 161.906 113.481C161.923 113.519 161.932 113.56 161.932 113.602C161.932 113.644 161.923 113.685 161.906 113.724C161.889 113.762 161.863 113.797 161.831 113.827C161.799 113.856 161.761 113.879 161.719 113.895C161.677 113.911 161.632 113.92 161.586 113.92Z" fill="#6723B5"/>
<path opacity="0.7" d="M110.997 113.92H107.067C106.976 113.92 106.888 113.886 106.823 113.827C106.758 113.767 106.721 113.686 106.721 113.602C106.721 113.56 106.73 113.519 106.748 113.481C106.765 113.442 106.791 113.407 106.823 113.378C106.855 113.348 106.893 113.325 106.935 113.309C106.977 113.293 107.022 113.285 107.067 113.285H110.997C111.042 113.285 111.087 113.293 111.129 113.309C111.171 113.325 111.209 113.348 111.242 113.378C111.274 113.407 111.299 113.442 111.317 113.481C111.334 113.519 111.343 113.56 111.343 113.602C111.343 113.686 111.306 113.767 111.242 113.827C111.177 113.886 111.089 113.92 110.997 113.92Z" fill="white"/>
<path d="M165.658 113.285H163.084C162.927 113.285 162.8 113.401 162.8 113.546V113.659C162.8 113.803 162.927 113.92 163.084 113.92H165.658C165.815 113.92 165.943 113.803 165.943 113.659V113.546C165.943 113.401 165.815 113.285 165.658 113.285Z" fill="#6723B5"/>
<path d="M81.1294 107.589L84.5706 57.5266C84.5884 57.3178 84.6906 57.1226 84.8573 56.9794C85.0239 56.8361 85.2429 56.7553 85.4712 56.7526H174.342C174.45 56.7511 174.558 56.7705 174.659 56.8095C174.759 56.8485 174.849 56.9063 174.924 56.9791C174.998 57.052 175.055 57.1383 175.091 57.2326C175.128 57.3269 175.142 57.427 175.133 57.5266L171.697 107.589C171.678 107.798 171.575 107.993 171.407 108.136C171.24 108.279 171.02 108.36 170.791 108.363H81.9257C81.8168 108.363 81.7089 108.344 81.6088 108.304C81.5086 108.265 81.4183 108.207 81.3436 108.135C81.2689 108.062 81.2113 107.976 81.1744 107.882C81.1375 107.788 81.1222 107.688 81.1294 107.589Z" fill="white"/>
<path opacity="0.1" d="M131.686 55.209L102.085 106.823H80.248C80.1384 106.825 80.0298 106.805 79.9289 106.766C79.8281 106.727 79.7373 106.669 79.6623 106.595C79.5874 106.522 79.5299 106.435 79.4936 106.341C79.4574 106.246 79.4431 106.145 79.4516 106.045L82.8929 55.9873C82.9105 55.7781 83.0126 55.5823 83.1791 55.4384C83.3457 55.2945 83.5647 55.2127 83.7935 55.209H131.686Z" fill="#6723B5"/>
<path opacity="0.1" d="M157.609 55.209L128.008 106.823H121.106L150.708 55.209H157.609Z" fill="#6723B5"/>
<path opacity="0.1" d="M173.456 55.9875L170.014 106.045C169.998 106.255 169.896 106.451 169.729 106.595C169.562 106.739 169.343 106.821 169.114 106.823H135.46L165.061 55.2091H172.645C172.756 55.2064 172.865 55.225 172.968 55.2636C173.07 55.3023 173.162 55.3601 173.238 55.4334C173.315 55.5067 173.374 55.5939 173.411 55.6893C173.448 55.7848 173.464 55.8863 173.456 55.9875Z" fill="#6723B5"/>
<path opacity="0.4" d="M130.649 55.2613C130.636 55.419 130.559 55.5666 130.434 55.6752C130.308 55.7837 130.143 55.8455 129.971 55.8483C129.888 55.8491 129.807 55.8342 129.731 55.8045C129.655 55.7748 129.587 55.7309 129.531 55.6756C129.475 55.6204 129.432 55.555 129.405 55.4837C129.377 55.4123 129.367 55.3366 129.373 55.2613C129.385 55.1032 129.462 54.955 129.587 54.8462C129.713 54.7374 129.879 54.676 130.051 54.6742C130.134 54.6734 130.215 54.6883 130.291 54.718C130.367 54.7478 130.435 54.7916 130.491 54.8469C130.547 54.9021 130.59 54.9675 130.617 55.0388C130.645 55.1102 130.655 55.1859 130.649 55.2613Z" fill="white"/>
<path d="M115.964 43.2556C113.372 45.9776 111.874 54.322 113.793 58.4268C115.713 62.5316 93.4398 66.6407 111.817 73.311C130.194 79.9813 144.893 72.2457 139.574 65.3362C134.256 58.4268 140.148 46.9212 133.991 44.0296C128.426 41.3945 121.159 37.7985 115.964 43.2556Z" fill="#263238"/>
<path d="M110.47 76.855C109.498 79.8988 108.465 82.9426 107.394 85.9864C106.323 89.0302 105.209 92.0393 104.028 95.0613L103.578 96.2006L103.351 96.7702L103.28 96.9398L103.166 97.1963C103.095 97.3616 102.986 97.5398 102.891 97.7094C102.427 98.4858 101.736 99.1276 100.895 99.5618C100.132 99.942 99.28 100.148 98.4115 100.162C97.1936 100.167 95.9867 99.95 94.8613 99.5227C93.9401 99.1797 93.048 98.7742 92.1927 98.3095C89.0849 96.5564 86.2363 94.4431 83.7175 92.0219L85.7605 89.8129C86.4478 90.2173 87.1825 90.6478 87.8935 91.0522C88.6045 91.4566 89.3487 91.8479 90.0691 92.2349C91.4809 92.9929 92.9384 93.6766 94.4347 94.283C95.1165 94.5588 95.82 94.787 96.5392 94.9657C97.0366 95.117 97.5625 95.1732 98.0845 95.1309C98.2172 95.1309 98.1935 95.0613 98.0845 95.1004C97.9754 95.1396 97.857 95.2526 97.8522 95.2396C97.8475 95.2266 97.8522 95.2396 97.8522 95.2135C97.8544 95.2049 97.8544 95.196 97.8522 95.1874L97.8901 95.0787L98.0702 94.5178L98.4352 93.3872L101.331 84.2558C102.317 81.212 103.332 78.1682 104.374 75.1244L110.47 76.855Z" fill="#B65B52"/>
<path d="M85.6138 89.7432L80.106 87.8734L82.2911 93.2131C82.2911 93.2131 86.1779 93.7262 87.6852 91.8521L86.4576 90.3432C86.2448 90.0732 85.9519 89.8649 85.6138 89.7432Z" fill="#B55B52"/>
<path d="M75.2476 89.4258L77.3426 93.8045L82.3149 93.2044L80.125 87.8647L75.2476 89.4258Z" fill="#B55B52"/>
<path d="M106.451 68.9801C103.929 69.5672 102.185 79.0769 102.185 79.0769L109.129 83.4252C109.129 83.4252 115.765 73.8328 113.845 71.2934C111.807 68.6279 110.124 68.1235 106.451 68.9801Z" fill="#6723B5"/>
<path opacity="0.5" d="M106.451 68.9801C103.929 69.5672 102.185 79.0769 102.185 79.0769L109.129 83.4252C109.129 83.4252 115.765 73.8328 113.845 71.2934C111.807 68.6279 110.124 68.1235 106.451 68.9801Z" fill="white"/>
<path opacity="0.2" d="M106.223 72.437L111.613 73.5806L112.129 78.4203C111.216 80.1289 110.209 81.7936 109.11 83.4078L104.896 80.7988C105.081 78.5594 105.536 73.9589 106.223 72.437Z" fill="black"/>
<path d="M106.45 68.9802C106.45 68.9802 103.535 69.9195 109.37 102.819H134.189C133.772 93.5524 133.762 87.8344 138.588 68.8193C135.114 68.1604 131.592 67.7345 128.051 67.5453C123.875 67.3583 120.467 67.2366 116.779 67.5453C111.939 67.9497 106.45 68.9802 106.45 68.9802Z" fill="#6723B5"/>
<path opacity="0.5" d="M106.45 68.9802C106.45 68.9802 103.535 69.9195 109.37 102.819H134.189C133.772 93.5524 133.762 87.8344 138.588 68.8193C135.114 68.1604 131.592 67.7345 128.051 67.5453C123.875 67.3583 120.467 67.2366 116.779 67.5453C111.939 67.9497 106.45 68.9802 106.45 68.9802Z" fill="white"/>
<path opacity="0.2" d="M132.749 77.6462L135.953 80.1509C135.27 83.4773 134.81 86.2385 134.531 88.7126C133.919 86.2428 132.393 79.5377 132.749 77.6462Z" fill="black"/>
<path d="M126.933 55.9005C126.222 59.227 125.511 65.3233 128.052 67.5452C128.052 67.5452 125.682 72.5284 119.401 72.5284C113.121 72.5284 116.78 67.5452 116.78 67.5452C120.823 66.6756 120.719 63.9057 120.017 61.3228L126.933 55.9005Z" fill="#B55B52"/>
<path d="M127.245 66.3016C126.648 67.4104 124.724 69.9455 119.348 70.8499C119.199 70.8751 119.045 70.8471 118.917 70.7717C117.912 70.1281 117.287 68.7671 117.727 67.1887C117.757 67.0917 117.756 66.9892 117.725 66.8926C117.694 66.7961 117.634 66.7095 117.552 66.6425C117.47 66.5756 117.369 66.531 117.261 66.5138C117.153 66.4966 117.042 66.5074 116.941 66.5451C116.528 66.7036 116.131 66.8957 115.756 67.1191C115.673 67.1693 115.606 67.2382 115.561 67.3191C115.168 67.9975 113.575 71.3196 118.381 73.3676C118.458 73.3977 118.54 73.4154 118.623 73.4198C121.467 73.472 126.439 72.9589 129.582 67.767C129.638 67.6732 129.663 67.5664 129.654 67.4598C129.645 67.3532 129.602 67.2514 129.53 67.1669C129.108 66.7428 128.617 66.3806 128.075 66.0929C128.007 66.0527 127.93 66.0261 127.85 66.0149C127.769 66.0036 127.688 66.008 127.609 66.0277C127.531 66.0474 127.458 66.0819 127.396 66.1291C127.333 66.1763 127.282 66.2351 127.245 66.3016Z" fill="#FAFAFA"/>
<path d="M128.563 79.99L122.164 79.8204C122.097 79.8207 122.031 79.8081 121.97 79.7833C121.908 79.7586 121.854 79.7222 121.809 79.6766C121.764 79.631 121.73 79.5772 121.71 79.5188C121.689 79.4604 121.683 79.3987 121.69 79.3377L121.751 78.6115C121.77 78.4894 121.837 78.3777 121.939 78.2976C122.041 78.2175 122.172 78.1745 122.306 78.1767L128.705 78.3463C128.772 78.3459 128.839 78.3586 128.901 78.3836C128.962 78.4087 129.017 78.4454 129.062 78.4915C129.107 78.5376 129.141 78.5919 129.161 78.6508C129.181 78.7098 129.187 78.772 129.179 78.8333L129.117 79.5551C129.099 79.6773 129.032 79.789 128.93 79.8691C128.828 79.9492 128.697 79.9922 128.563 79.99Z" fill="#FAFAFA"/>
<path opacity="0.2" d="M124.112 58.1138L120.017 61.3185C120.193 61.9194 120.31 62.5335 120.368 63.1534C121.908 62.9491 124.032 61.3924 124.198 59.9096C124.288 59.3112 124.259 58.7027 124.112 58.1138Z" fill="black"/>
<path d="M131.711 49.6085C130.568 55.0743 130.213 57.4094 126.781 59.8749C121.619 63.5883 114.552 61.1011 113.898 55.4352C113.305 50.3347 115.272 42.2556 121.482 40.7598C122.842 40.428 124.273 40.4205 125.638 40.7377C127.002 41.055 128.256 41.6865 129.281 42.5726C130.305 43.4587 131.066 44.57 131.491 45.8013C131.916 47.0325 131.992 48.343 131.711 49.6085Z" fill="#B55B52"/>
<path d="M128.321 45.5644C127.582 48.9865 127.407 53.5218 130.824 53.5218C134.242 53.5218 136.92 48.1865 133.972 44.0077C131.023 39.829 128.753 43.5468 128.321 45.5644Z" fill="#263238"/>
<path d="M134.227 45.9863C134.227 49.7085 129.118 47.8691 126.857 46.2646C124.596 44.6601 124.487 44.834 120.297 44.8297C116.106 44.8253 115.267 44.5601 114.03 42.7251C112.793 40.8901 112.907 39.6813 115.694 40.0683C118.481 40.4553 116.14 37.8463 118.216 36.3983C120.292 34.9504 122.752 35.3156 125.591 38.6203C128.43 41.925 134.227 39.5378 134.227 45.9863Z" fill="#263238"/>
<path d="M132.727 54.4718C133.265 52.7896 132.737 51.1667 131.549 50.8472C130.361 50.5276 128.962 51.6323 128.424 53.3146C127.887 54.9968 128.414 56.6197 129.602 56.9392C130.79 57.2588 132.189 56.1541 132.727 54.4718Z" fill="white"/>
<path d="M123.24 58.6789C122.14 58.6787 121.051 58.4731 120.041 58.0745C120.019 58.0664 119.999 58.0545 119.983 58.0393C119.966 58.0242 119.953 58.0061 119.944 57.9863C119.936 57.9664 119.931 57.9452 119.931 57.9237C119.932 57.9023 119.937 57.8811 119.946 57.8614C119.966 57.8218 120.001 57.7906 120.045 57.7744C120.09 57.7582 120.139 57.7582 120.183 57.7745C121.135 58.1494 122.16 58.3453 123.197 58.3506C124.233 58.3558 125.26 58.1702 126.217 57.8049C127.148 57.4556 127.993 56.939 128.703 56.2856C129.412 55.6322 129.973 54.8551 130.35 54.0002C131.772 50.265 133.223 45.6036 131.545 42.6946C131.207 42.1284 130.74 41.6359 130.176 41.2509C129.611 40.8658 128.962 40.5974 128.274 40.4639C128.228 40.4527 128.189 40.4254 128.165 40.388C128.141 40.3505 128.135 40.306 128.146 40.2639C128.158 40.222 128.188 40.1862 128.229 40.1642C128.27 40.1422 128.318 40.1359 128.364 40.1465C129.099 40.2917 129.792 40.5804 130.395 40.9931C130.998 41.4058 131.497 41.9327 131.858 42.5381C133.602 45.5427 132.147 50.2954 130.682 54.1002C130.285 54.998 129.695 55.8138 128.949 56.4994C128.202 57.185 127.314 57.7264 126.335 58.0919C125.355 58.4699 124.304 58.6692 123.24 58.6789Z" fill="white"/>
<path opacity="0.6" d="M132.554 54.4872C132.132 55.7917 131.166 56.7092 130.393 56.5048C129.62 56.3004 129.336 55.0568 129.758 53.7349C130.18 52.4131 131.147 51.5086 131.919 51.7173C132.692 51.926 132.976 53.1653 132.554 54.4872Z" fill="#6723B5"/>
<path d="M120.533 57.3552L118.676 57.0265C118.349 56.9687 118.034 57.1646 117.971 57.4641L117.95 57.5623C117.887 57.8618 118.101 58.1514 118.427 58.2092L120.284 58.5378C120.611 58.5956 120.926 58.3997 120.989 58.1002L121.01 58.002C121.073 57.7025 120.859 57.4129 120.533 57.3552Z" fill="white"/>
<path d="M118.107 50.0651C118.107 50.0651 117.007 51.8957 115.964 52.7175C116.528 53.348 117.666 53.2263 117.666 53.2263L118.107 50.0651Z" fill="#A02724"/>
<path d="M119.154 55.5655H119.197C120.272 55.6433 121.339 55.345 122.183 54.7306C122.201 54.7143 122.21 54.6925 122.21 54.6697C122.21 54.6469 122.201 54.6251 122.183 54.6088C122.175 54.6011 122.165 54.5949 122.154 54.5907C122.143 54.5865 122.131 54.5844 122.119 54.5844C122.107 54.5844 122.096 54.5865 122.085 54.5907C122.074 54.5949 122.064 54.6011 122.055 54.6088C121.249 55.1904 120.234 55.4743 119.211 55.4046C119.199 55.4027 119.187 55.4032 119.175 55.406C119.163 55.4088 119.151 55.4138 119.142 55.4207C119.132 55.4277 119.124 55.4364 119.118 55.4463C119.112 55.4562 119.108 55.4672 119.107 55.4785C119.105 55.4957 119.108 55.5131 119.116 55.5286C119.125 55.5441 119.138 55.5569 119.154 55.5655Z" fill="#263238"/>
<path d="M124.577 47.9127C124.604 47.9264 124.634 47.9336 124.664 47.9336C124.695 47.9336 124.725 47.9264 124.752 47.9127C124.793 47.8878 124.821 47.8495 124.832 47.8058C124.842 47.762 124.834 47.7162 124.809 47.6779C124.582 47.3297 124.268 47.036 123.893 46.8213C123.518 46.6065 123.093 46.4768 122.652 46.443C122.603 46.443 122.555 46.4607 122.52 46.4924C122.484 46.5241 122.464 46.5672 122.463 46.6126C122.463 46.6568 122.481 46.6993 122.515 46.731C122.549 46.7627 122.595 46.781 122.643 46.7822C123.022 46.8154 123.388 46.9303 123.71 47.1177C124.032 47.3051 124.302 47.5596 124.496 47.8605C124.517 47.8843 124.545 47.9023 124.577 47.9127Z" fill="#263238"/>
<path d="M121.86 50.1389C121.78 50.5738 121.453 50.9086 121.13 50.8607C120.808 50.8129 120.623 50.4259 120.704 49.9563C120.784 49.4867 121.116 49.1867 121.434 49.2345C121.751 49.2823 121.946 49.6911 121.86 50.1389Z" fill="#263238"/>
<path d="M116.334 49.2779C116.253 49.7127 115.926 50.0475 115.604 49.9997C115.282 49.9518 115.097 49.5431 115.177 49.0952C115.258 48.6473 115.59 48.3212 115.907 48.3734C116.225 48.4256 116.419 48.8256 116.334 49.2779Z" fill="#263238"/>
<path d="M116.045 48.4212L114.926 47.9255C114.926 47.9255 115.372 48.8604 116.045 48.4212Z" fill="#263238"/>
<path d="M121.571 49.2824L120.453 48.791C120.453 48.791 120.898 49.7259 121.571 49.2824Z" fill="#263238"/>
<path d="M114.457 46.2471C114.485 46.2628 114.518 46.2711 114.552 46.2711C114.585 46.2711 114.618 46.2628 114.646 46.2471C114.939 46.0216 115.286 45.8642 115.659 45.7885C116.032 45.7128 116.42 45.7209 116.789 45.8123C116.835 45.8273 116.886 45.8247 116.931 45.8051C116.975 45.7855 117.009 45.7506 117.026 45.7079C117.042 45.6652 117.039 45.6184 117.018 45.5776C116.997 45.5368 116.959 45.5055 116.912 45.4905C116.487 45.3794 116.038 45.364 115.605 45.4458C115.172 45.5275 114.767 45.704 114.424 45.9601C114.404 45.9729 114.387 45.9894 114.375 46.0085C114.362 46.0275 114.354 46.0488 114.351 46.0708C114.348 46.0929 114.35 46.1153 114.356 46.1367C114.363 46.158 114.375 46.1779 114.39 46.1949C114.406 46.2181 114.429 46.2363 114.457 46.2471Z" fill="#263238"/>
<path d="M108.427 108.363C108.427 108.363 108.361 105.249 109.375 102.818H134.189C134.189 102.818 136.422 106.123 137 108.363H108.427Z" fill="#6723B5"/>
<path d="M134.564 101.484L134.758 103.519C134.848 103.68 134.644 103.84 134.355 103.84H109.233C109.01 103.84 108.825 103.74 108.811 103.61L108.584 101.571C108.584 101.431 108.764 101.31 109.01 101.31H134.132C134.215 101.302 134.298 101.313 134.373 101.344C134.449 101.375 134.515 101.423 134.564 101.484Z" fill="#6723B5"/>
<path opacity="0.3" d="M134.564 101.484L134.758 103.519C134.848 103.68 134.644 103.84 134.355 103.84H109.233C109.01 103.84 108.825 103.74 108.811 103.61L108.584 101.571C108.584 101.431 108.764 101.31 109.01 101.31H134.132C134.215 101.302 134.298 101.313 134.373 101.344C134.449 101.375 134.515 101.423 134.564 101.484Z" fill="#FAFAFA"/>
<path d="M131.184 104.058H131.857C131.995 104.058 132.094 103.997 132.085 103.919L131.772 101.27C131.772 101.192 131.644 101.131 131.511 101.131H130.824C130.687 101.131 130.587 101.192 130.597 101.27L130.909 103.919C130.933 103.997 131.052 104.058 131.184 104.058Z" fill="#6723B5"/>
<path d="M111.139 104.058H111.812C111.944 104.058 112.049 103.997 112.039 103.919L111.722 101.27C111.722 101.192 111.598 101.131 111.461 101.131H110.788C110.655 101.131 110.551 101.192 110.56 101.27L110.878 103.919C110.887 103.997 111.006 104.058 111.139 104.058Z" fill="#6723B5"/>
<path d="M121.164 104.058H121.818C121.951 104.058 122.055 103.997 122.045 103.919L121.728 101.27C121.728 101.192 121.6 101.131 121.467 101.131H120.794C120.661 101.131 120.557 101.192 120.567 101.27L120.884 103.919C120.913 103.997 121.026 104.058 121.164 104.058Z" fill="#6723B5"/>
<path d="M140.711 75.2633C141.802 78.51 142.849 81.7742 143.854 85.0557L145.366 89.9518L146.12 92.3869L146.309 92.9869L146.404 93.287L146.428 93.3565L146.352 93.2478C146.232 93.0904 146.085 92.9523 145.916 92.8391C145.545 92.5915 145.104 92.448 144.646 92.426C144.299 92.4109 143.954 92.4736 143.641 92.6087C143.299 92.7782 143.333 92.8174 143.361 92.7869C143.441 92.7228 143.514 92.6515 143.579 92.5739C143.803 92.3177 144.008 92.0491 144.195 91.7694C144.612 91.1433 145.025 90.4388 145.413 89.717C146.219 88.2734 146.944 86.7428 147.679 85.2035C148.414 83.6642 149.101 82.1075 149.812 80.5378C150.523 78.9681 151.201 77.3896 151.903 75.8329L154.931 76.6591C154.145 80.0508 153.225 83.3816 152.087 86.6993C151.528 88.3647 150.907 90.0127 150.191 91.6825C149.822 92.5173 149.428 93.3522 148.94 94.2175C148.68 94.6856 148.388 95.1387 148.068 95.5742C147.869 95.8474 147.647 96.1062 147.404 96.3482C147.02 96.7485 146.552 97.0751 146.03 97.3092C145.508 97.5419 144.931 97.6524 144.352 97.6309C143.664 97.5959 143.004 97.3733 142.456 96.9917C142.106 96.7499 141.803 96.4559 141.56 96.1221C141.406 95.9078 141.271 95.6824 141.157 95.4481C141.114 95.3524 141.067 95.2524 141.034 95.1654L140.944 94.9524L140.82 94.6436L140.574 94.0305C140.252 93.2174 139.925 92.4043 139.626 91.5911C139.019 89.9649 138.412 88.343 137.844 86.7124C136.681 83.454 135.597 80.1798 134.592 76.8896L140.711 75.2633Z" fill="#B65B52"/>
<path d="M138.588 68.8191C141.076 69.5104 144.882 78.4636 144.882 78.4636L135.236 84.7903C135.236 84.7903 130.899 77.1373 131.942 74.1892C133.032 71.1193 135.753 68.0277 138.588 68.8191Z" fill="#6723B5"/>
<path opacity="0.5" d="M138.588 68.8191C141.076 69.5104 144.882 78.4636 144.882 78.4636L135.236 84.7903C135.236 84.7903 130.899 77.1373 131.942 74.1892C133.032 71.1193 135.753 68.0277 138.588 68.8191Z" fill="white"/>
<path d="M152.012 77.0244L150.689 71.676L156.188 74.3372C156.188 74.3372 156.254 77.9376 154.036 79.0725L152.012 77.0244Z" fill="#B55B52"/>
<path d="M152.993 67.432L156.501 69.7149L156.188 74.3371L150.689 71.6759L152.993 67.432Z" fill="#B55B52"/>
<path d="M54.5102 40.5162H92.9042C93.6373 40.5096 94.3638 40.6426 95.038 40.9067C95.7122 41.1709 96.3192 41.5605 96.8209 42.0509C97.3225 42.5413 97.7077 43.1219 97.9523 43.7559C98.1968 44.3899 98.2953 45.0635 98.2415 45.7342L97.1702 61.675C97.0524 63.0783 96.3682 64.3908 95.2514 65.3558C94.1346 66.3209 92.6655 66.869 91.1315 66.893H86.6853L88.5008 72.3675L79.8171 66.893H52.7517C52.0186 66.8996 51.2921 66.7666 50.6179 66.5025C49.9437 66.2383 49.3366 65.8487 48.835 65.3583C48.3334 64.8679 47.9481 64.2873 47.7036 63.6533C47.4591 63.0193 47.3606 62.3457 47.4144 61.675L48.4762 45.7342C48.5939 44.3316 49.2775 43.0197 50.3933 42.0548C51.5091 41.0899 52.977 40.5413 54.5102 40.5162Z" fill="#6723B5"/>
<path d="M89.387 48.8648H56.918C56.7801 48.8641 56.6439 48.8372 56.518 48.7857C56.3921 48.7342 56.2792 48.6593 56.1866 48.5656C56.0939 48.472 56.0234 48.3618 55.9796 48.2419C55.9358 48.122 55.9196 47.995 55.9321 47.8691C55.9533 47.6052 56.0813 47.3581 56.2908 47.1763C56.5004 46.9945 56.7765 46.8911 57.0649 46.8864H89.5387C89.6758 46.8866 89.8114 46.9128 89.9371 46.9632C90.0627 47.0136 90.1758 47.0871 90.2691 47.1793C90.3625 47.2715 90.4342 47.3803 90.4797 47.4989C90.5253 47.6176 90.5438 47.7436 90.5341 47.8691C90.5172 48.1379 90.389 48.3906 90.1758 48.5757C89.9626 48.7607 89.6805 48.8642 89.387 48.8648Z" fill="white"/>
<path d="M70.1519 54.6872H56.5291C56.3912 54.6881 56.2545 54.6628 56.1278 54.613C56.001 54.5631 55.8868 54.4897 55.7924 54.3974C55.6981 54.3051 55.6255 54.1959 55.5794 54.0767C55.5332 53.9574 55.5145 53.8307 55.5243 53.7045C55.5456 53.4398 55.6742 53.1921 55.8848 53.0102C56.0954 52.8283 56.3726 52.7254 56.6619 52.7217H70.2988C70.4372 52.7202 70.5744 52.745 70.7017 52.7946C70.8291 52.8442 70.9438 52.9175 71.0387 53.0099C71.1336 53.1022 71.2065 53.2117 71.253 53.3312C71.2994 53.4508 71.3183 53.5779 71.3085 53.7045C71.2858 53.9717 71.1542 54.2213 70.9398 54.4034C70.7254 54.5856 70.4441 54.6869 70.1519 54.6872Z" fill="white"/>
<path d="M81.8265 60.5096H56.1405C56.0025 60.5105 55.8659 60.4852 55.7391 60.4353C55.6123 60.3855 55.4981 60.3121 55.4038 60.2198C55.3094 60.1275 55.2368 60.0183 55.1907 59.8991C55.1445 59.7798 55.1258 59.6531 55.1356 59.5268C55.1558 59.2619 55.2841 59.0136 55.495 58.8315C55.7058 58.6494 55.9836 58.5468 56.2732 58.5441H81.9593C82.0974 58.5426 82.2344 58.5674 82.3615 58.617C82.4886 58.6667 82.6031 58.74 82.6976 58.8325C82.7921 58.9249 82.8646 59.0344 82.9105 59.1539C82.9564 59.2735 82.9747 59.4005 82.9641 59.5268C82.9428 59.7915 82.8142 60.0392 82.6036 60.2211C82.393 60.403 82.1158 60.5059 81.8265 60.5096Z" fill="white"/>
<path d="M80.1581 54.6872H74.7877C74.6497 54.6881 74.5131 54.6628 74.3863 54.613C74.2595 54.5631 74.1453 54.4897 74.051 54.3974C73.9566 54.3051 73.8841 54.1959 73.8379 54.0767C73.7918 53.9574 73.773 53.8307 73.7828 53.7045C73.8052 53.4402 73.9341 53.1931 74.1445 53.0113C74.3549 52.8296 74.6315 52.7264 74.9204 52.7218H80.2861C80.4242 52.7202 80.5612 52.745 80.6883 52.7946C80.8155 52.8443 80.9299 52.9176 81.0244 53.0101C81.119 53.1025 81.1915 53.212 81.2374 53.3315C81.2832 53.4511 81.3015 53.5781 81.291 53.7045C81.2697 53.9684 81.1418 54.2155 80.9322 54.3973C80.7226 54.5791 80.4465 54.6825 80.1581 54.6872Z" fill="white"/>
<path d="M107.973 11.861H87.0408C85.8472 11.8774 84.7034 12.3028 83.8342 13.0535C82.965 13.8042 82.4333 14.8259 82.3435 15.918L81.5282 28.328C81.4876 28.8498 81.5652 29.3736 81.7562 29.8665C81.9472 30.3593 82.2475 30.8106 82.638 31.1917C83.0286 31.5729 83.501 31.8757 84.0254 32.081C84.5498 32.2864 85.115 32.3899 85.6852 32.3849H89.1122L87.1309 36.6463L94.4589 32.3849H106.603C107.796 32.3685 108.94 31.9432 109.809 31.1925C110.679 30.4418 111.21 29.42 111.3 28.328L112.13 15.918C112.17 15.3962 112.093 14.8724 111.902 14.3795C111.711 13.8866 111.41 13.4354 111.02 13.0542C110.629 12.6731 110.157 12.3703 109.632 12.1649C109.108 11.9596 108.543 11.8561 107.973 11.861Z" fill="#6723B5"/>
<g opacity="0.5">
<path opacity="0.5" d="M107.973 11.861H87.0408C85.8472 11.8774 84.7034 12.3028 83.8342 13.0535C82.965 13.8042 82.4333 14.8259 82.3435 15.918L81.5282 28.328C81.4876 28.8498 81.5652 29.3736 81.7562 29.8665C81.9472 30.3593 82.2475 30.8106 82.638 31.1917C83.0286 31.5729 83.501 31.8757 84.0254 32.081C84.5498 32.2864 85.115 32.3899 85.6852 32.3849H89.1122L87.1309 36.6463L94.4589 32.3849H106.603C107.796 32.3685 108.94 31.9432 109.809 31.1925C110.679 30.4418 111.21 29.42 111.3 28.328L112.13 15.918C112.17 15.3962 112.093 14.8724 111.902 14.3795C111.711 13.8866 111.41 13.4354 111.02 13.0542C110.629 12.6731 110.157 12.3703 109.632 12.1649C109.108 11.9596 108.543 11.8561 107.973 11.861Z" fill="#FAFAFA"/>
</g>
<path d="M97.8811 24.1534C97.8089 24.4267 97.639 24.6699 97.3984 24.8442C97.1578 25.0184 96.8604 25.1135 96.5539 25.1144H95.3167C95.3167 24.7926 95.3452 24.5969 95.3499 24.5274C95.3678 23.9006 95.543 23.2861 95.8618 22.7315C96.3097 22.1133 96.8786 21.5767 97.5398 21.1488C98.067 20.7983 98.5646 20.4116 99.0282 19.9921C99.2741 19.7252 99.4203 19.3929 99.4453 19.0442C99.4639 18.8131 99.4244 18.5812 99.3299 18.3664C99.2354 18.1515 99.0884 17.9594 98.9002 17.8049C98.4403 17.4435 97.8457 17.2596 97.2412 17.2918C96.6055 17.2759 95.9842 17.4669 95.4874 17.831C95.1921 18.0545 94.9501 18.3312 94.7764 18.6441C94.6484 18.8727 94.4496 19.0615 94.2051 19.1868C93.9605 19.3121 93.6811 19.3684 93.4018 19.3486C93.2008 19.3257 93.0094 19.2568 92.8452 19.1481C92.681 19.0394 92.5493 18.8945 92.4623 18.7267C92.3754 18.5589 92.336 18.3738 92.3477 18.1883C92.3595 18.0029 92.4221 17.8232 92.5296 17.6658C92.8156 17.2254 93.1829 16.834 93.6151 16.5091C94.6423 15.7516 95.9337 15.3608 97.2506 15.409C98.8006 15.409 100.005 15.7786 100.872 16.5222C101.278 16.8425 101.598 17.2447 101.806 17.6974C102.014 18.1501 102.105 18.6408 102.071 19.1311C102.028 19.6884 101.818 20.224 101.465 20.6791C100.799 21.4312 100.029 22.1007 99.1751 22.6707C98.7326 22.9541 98.3503 23.3092 98.047 23.7186C97.9699 23.8557 97.914 24.0021 97.8811 24.1534ZM95.1745 27.2755V27.1364C95.1995 26.8221 95.3522 26.5279 95.6024 26.3121C95.8526 26.0963 96.182 25.9745 96.5254 25.971H96.6961C96.8603 25.9688 97.0233 25.998 97.1746 26.0566C97.3259 26.1153 97.4623 26.2021 97.5751 26.3117C97.6878 26.4213 97.7745 26.5512 97.8297 26.6932C97.8848 26.8351 97.9071 26.986 97.8953 27.1364V27.2755C97.8704 27.5901 97.7179 27.8848 97.4678 28.1014C97.2177 28.3179 96.8882 28.4406 96.5444 28.4452H96.3927C96.2264 28.4499 96.061 28.4225 95.907 28.3646C95.7531 28.3068 95.6142 28.2199 95.4992 28.1096C95.3843 27.9992 95.296 27.868 95.2401 27.7242C95.1841 27.5805 95.1618 27.4276 95.1745 27.2755Z" fill="white"/>
</svg>
