<svg width="237" height="162" viewBox="0 0 237 162" fill="none" xmlns="http://www.w3.org/2000/svg">
<path d="M5.13764 19.6832L55.5362 10.114C55.7295 10.0763 55.9355 10.094 56.1114 10.1634C56.2873 10.2327 56.4198 10.3484 56.4815 10.4866L66.4584 34.7526C66.4878 34.8263 66.4964 34.9035 66.4837 34.9796C66.471 35.0557 66.4373 35.1292 66.3845 35.1956C66.3317 35.2621 66.2611 35.3201 66.1766 35.3663C66.0922 35.4125 65.9959 35.4458 65.8933 35.4643L13.5323 44.7541C13.4324 44.7724 13.3285 44.7761 13.2266 44.765C13.1247 44.7538 13.027 44.7281 12.939 44.6892C12.851 44.6504 12.7745 44.5992 12.7141 44.5387C12.6536 44.4782 12.6104 44.4095 12.587 44.3368L4.58793 20.3577C4.54207 20.2156 4.57364 20.0661 4.67606 19.9404C4.77848 19.8147 4.94384 19.7226 5.13764 19.6832Z" fill="#EBEBEB"/>
<path d="M4.40796 19.8246L23.9303 0.853766C24.3335 0.46035 24.9125 0.180639 25.5683 0.0623871C26.2242 -0.0558645 26.9163 -0.00532448 27.5266 0.20538L56.2964 9.97215" fill="#EBEBEB"/>
<path d="M7.51605 20.7414L4.56201 12.5509L50.4807 4.08838L53.5323 12.5025L35.4074 29.7071L7.51605 20.7414Z" fill="#FAFAFA"/>
<path d="M7.51615 20.7302L8.0299 20.8904L9.51462 21.3637L15.1658 23.171L35.4485 29.6735H35.3972L53.517 12.4652V12.495C53.0855 11.3025 52.6231 10.0319 52.1607 8.76863C51.5853 7.18865 51.0202 5.62358 50.4654 4.09951L50.5219 4.12559L4.56724 12.5695V12.5471C5.49199 15.1332 6.22664 17.1827 6.73012 18.5838C6.98185 19.2844 7.17194 19.821 7.30037 20.1862C7.36716 20.3688 7.4134 20.5066 7.44936 20.5998L7.4956 20.7414C7.4956 20.7414 7.4956 20.6967 7.44422 20.6035L7.2901 20.1936C7.15653 19.821 6.9613 19.2918 6.70443 18.595C6.19068 17.1939 5.45603 15.1444 4.51587 12.5546L50.4345 4.07715H50.4756V4.11069C51.0253 5.63476 51.5956 7.1961 52.1659 8.77608C52.6334 10.0579 53.0906 11.3286 53.5221 12.5024L35.4485 29.7256H35.4177L15.135 23.2082L9.4838 21.3861L8.00421 20.9091L7.51615 20.7302Z" fill="#E0E0E0"/>
<path d="M40.7141 11.5261C40.7141 11.5261 35.5766 12.5397 29.2216 13.762C22.8665 14.9842 17.7136 15.9419 17.7085 15.9232C17.7034 15.9046 22.846 14.9097 29.1959 13.6874C35.5458 12.4652 40.7038 11.5075 40.7141 11.5261Z" fill="#E0E0E0"/>
<path d="M46.0726 14.6191C46.0726 14.6377 39.1318 15.9643 30.5626 17.6002C21.9933 19.236 15.0423 20.5179 15.032 20.4993C15.0217 20.4806 21.9676 19.1541 30.542 17.5182C39.1164 15.8823 46.0623 14.6005 46.0726 14.6191Z" fill="#E0E0E0"/>
<path d="M47.4136 18.4535C47.4136 18.4535 40.7966 19.739 32.6229 21.2818C24.4492 22.8245 17.8116 24.084 17.8013 24.0467C17.791 24.0094 24.4183 22.7611 32.5972 21.2184C40.776 19.6757 47.4085 18.4348 47.4136 18.4535Z" fill="#E0E0E0"/>
<path d="M42.7744 22.8878H42.7282L42.5946 22.9139L42.0808 23.022L40.1697 23.3946L33.8352 24.6429C31.3692 25.1274 29.1293 25.5522 27.5058 25.854L25.5844 26.2266L25.0707 26.3198L24.932 26.3421H24.8857C24.8857 26.3421 24.8857 26.3421 24.932 26.3421L25.0656 26.3161L25.5793 26.2117L27.4956 25.8391L33.8198 24.6057C36.2858 24.1212 38.5257 23.6964 40.144 23.3946L42.0706 23.0406L42.5843 22.9474L42.7179 22.9251L42.7744 22.8878Z" fill="#E0E0E0"/>
<path d="M38.048 27.203C38.048 27.203 36.5735 27.5085 34.7446 27.8476C32.9157 28.1867 31.4258 28.4439 31.4207 28.4252C31.4155 28.4066 32.89 28.1197 34.7241 27.7806C36.5581 27.4415 38.0429 27.1843 38.048 27.203Z" fill="#E0E0E0"/>
<path d="M66.3452 35.2631C66.2922 35.2671 66.2389 35.2671 66.1859 35.2631L65.7287 35.1849L63.9614 34.8644L57.4831 33.6534L47.8863 31.8312L42.2351 30.7468L39.2348 30.1729L38.4744 30.0276C38.2176 29.9792 37.9607 29.927 37.709 29.886C37.2017 29.8128 36.6819 29.7965 36.1677 29.8376C35.1305 29.9237 34.1575 30.246 33.3884 30.758L31.1227 32.2821L26.8843 35.2147L19.6919 40.1745L14.8267 43.5058L13.4961 44.4039L13.1416 44.6349L13.0183 44.7094C13.0183 44.7094 13.0491 44.6759 13.1211 44.62L13.455 44.3741L14.7496 43.4611L19.5532 40.085L26.7148 35.0917L30.9429 32.1479L33.188 30.594C33.9995 30.0531 35.0265 29.7126 36.1215 29.6214C36.6681 29.5751 37.2214 29.5927 37.7603 29.6736C38.0326 29.7183 38.2741 29.7668 38.5412 29.8152L39.3016 29.9643C40.3291 30.158 41.2487 30.5456 42.2299 30.7319C44.1924 31.1045 46.155 31.2871 47.9582 31.6337L57.5447 33.4968L63.9974 34.7675L65.7492 35.1402L66.2065 35.2371C66.299 35.2631 66.3503 35.2631 66.3452 35.2631Z" fill="#E0E0E0"/>
<path d="M20.7656 79.1594C22.4595 78.8407 23.9874 78.1689 25.1607 77.2272C26.334 76.2855 27.1011 75.1151 27.3673 73.8606C28.1841 70.3243 25.1479 67.0078 20.5755 66.4451C16.0032 65.8824 11.6415 68.3083 10.8144 71.8334C10.495 73.0924 10.6969 74.3917 11.3945 75.5675C12.0922 76.7433 13.2543 77.7429 14.7343 78.4402C1.68509 78.3173 0 88.4306 0 88.4306L30.1055 92.1197C30.1055 92.1197 33.0801 82.0474 20.7656 79.1594Z" fill="#EBEBEB"/>
<path d="M213.02 0.858261L162.913 14.8386L175.904 39.3336L226.011 25.3532L213.02 0.858261Z" fill="#EBEBEB"/>
<path d="M213.333 1.1073C213.259 1.26738 213.161 1.42108 213.04 1.56564L212.116 2.84378L208.632 7.50545L196.955 22.8692L196.857 22.9959L196.667 22.9512L196.205 22.8431L172.855 17.4287L165.796 15.7519L163.885 15.2749C163.659 15.2269 163.439 15.1646 163.228 15.0886C163.461 15.1133 163.692 15.1532 163.916 15.2078L165.858 15.6177L172.963 17.1902L196.354 22.5077L196.816 22.6121L196.529 22.6978L208.345 7.38248L211.941 2.77298C212.357 2.25502 212.691 1.84139 212.968 1.52838C213.076 1.38166 213.197 1.24092 213.333 1.1073Z" fill="#E0E0E0"/>
<path d="M176.215 39.5857C176.092 39.5521 178.075 35.1439 180.654 29.7369C183.233 24.33 185.427 19.9739 185.555 20.0037C185.684 20.0335 183.695 24.4455 181.116 29.8524C178.537 35.2594 176.349 39.6155 176.215 39.5857Z" fill="#E0E0E0"/>
<path d="M202.051 15.0512C202.118 14.9692 207.61 17.2609 214.314 20.1749C221.019 23.0889 226.398 25.5185 226.326 25.6042C226.254 25.6899 220.767 23.3945 214.063 20.4805C207.358 17.5665 201.979 15.1406 202.051 15.0512Z" fill="#E0E0E0"/>
<path d="M198.975 56.8353L196.216 73.8444L231.008 76.8134L233.767 59.8044L198.975 56.8353Z" fill="#EBEBEB"/>
<path d="M233.857 60.0284C233.745 60.1028 233.623 60.169 233.493 60.2259L232.424 60.7587L228.463 62.6853L215.26 68.9828L215.152 69.035L215.059 68.9679L214.838 68.8039L203.623 60.5314C202.216 59.4806 201.055 58.6198 200.253 58.005L199.344 57.3119C199.235 57.2338 199.135 57.1491 199.046 57.0585C199.17 57.1234 199.286 57.1971 199.39 57.2783L200.341 57.9416L203.783 60.4159L215.085 68.6437L215.306 68.8039H215.106L228.34 62.566L232.357 60.7028L233.462 60.2072C233.585 60.1378 233.717 60.0779 233.857 60.0284Z" fill="#E0E0E0"/>
<path d="M196.308 74.0656C196.246 74.0209 199.241 71.9117 202.986 69.3592C206.731 66.8066 209.835 64.772 209.896 64.8168C209.958 64.8615 206.963 66.9706 203.217 69.5269C199.472 72.0832 196.364 74.114 196.308 74.0656Z" fill="#E0E0E0"/>
<path d="M221.497 65.5918C221.574 65.5582 223.783 68.0959 226.434 71.2558C229.085 74.4158 231.186 76.9981 231.094 77.0354C231.001 77.0727 228.813 74.535 226.162 71.3751C223.511 68.2151 221.425 65.6253 221.497 65.5918Z" fill="#E0E0E0"/>
<path d="M223.32 126.436C225.93 125.459 228.997 125.318 231.89 125.69C233.431 125.877 235.065 126.216 236.123 127.062C237.181 127.908 237.382 129.398 236.169 130.129C235.445 130.561 234.438 130.628 233.498 130.617C231.232 130.598 228.72 130.311 226.912 131.299C225.884 131.861 225.19 132.789 223.957 133.076C223.34 133.18 222.692 133.135 222.113 132.948C221.534 132.761 221.054 132.442 220.747 132.04C220.157 131.218 220.027 130.262 220.382 129.372C220.526 128.751 220.866 128.163 221.376 127.654C221.886 127.144 222.551 126.727 223.32 126.436Z" fill="#EBEBEB"/>
<path d="M217.35 118.074C218.943 119.725 222.041 119.192 223.479 118.171C224.918 117.15 225.534 115.704 226.074 114.31C227.338 111.128 228.607 107.789 227.672 104.551C227.444 103.568 226.849 102.648 225.951 101.894C225.495 101.524 224.914 101.247 224.265 101.09C223.616 100.934 222.922 100.904 222.252 101.003C220.71 101.301 219.719 102.412 219.015 103.466C216.948 106.583 215.866 109.995 215.845 113.453C215.845 115.059 216.102 116.747 217.35 118.074Z" fill="#EBEBEB"/>
<path d="M212.974 120.444C214.705 118.953 215.029 116.781 214.263 114.918C213.498 113.054 211.756 111.463 209.748 110.166C207.39 108.643 204.645 107.468 201.666 106.708C200.513 106.37 199.272 106.216 198.029 106.258C197.409 106.284 196.807 106.419 196.276 106.653C195.744 106.887 195.3 107.212 194.982 107.599C194.13 108.773 194.947 110.207 195.825 111.366C197.382 113.423 199.158 115.388 201.137 117.243C202.73 118.733 204.548 120.198 206.973 120.869C209.398 121.539 211.921 121.454 213.205 120.224" fill="#EBEBEB"/>
<path d="M217.243 142.981C217.326 142.737 217.374 142.487 217.387 142.236C217.459 141.692 217.551 141.006 217.664 140.19C217.803 139.181 218.014 138.179 218.296 137.186C218.665 135.978 219.169 134.792 219.801 133.643C220.42 132.493 221.261 131.413 222.298 130.434C223.141 129.638 224.219 128.989 225.453 128.534C226.288 128.232 227.185 128.029 228.109 127.934C228.455 127.923 228.799 127.887 229.136 127.826C228.795 127.798 228.45 127.798 228.109 127.826C227.15 127.876 226.211 128.053 225.34 128.347C224.039 128.791 222.9 129.448 222.01 130.267C220.936 131.259 220.071 132.362 219.442 133.538C218.8 134.704 218.3 135.909 217.947 137.138C217.678 138.142 217.495 139.158 217.397 140.179C217.31 141.051 217.274 141.755 217.258 142.239C217.217 142.485 217.211 142.734 217.243 142.981Z" fill="#E0E0E0"/>
<path d="M217.438 141.405C217.468 141.289 217.477 141.171 217.464 141.054V140.059C217.464 139.195 217.464 137.946 217.52 136.404C217.628 133.315 217.993 129.991 218.702 125.307C219.375 120.902 220.274 115.775 221.224 112.443C221.425 111.698 221.63 111.005 221.826 110.405C222.021 109.805 222.165 109.287 222.339 108.873C222.514 108.46 222.576 108.162 222.658 107.905C222.704 107.793 222.732 107.678 222.74 107.562C222.672 107.667 222.617 107.777 222.576 107.89C222.473 108.139 222.339 108.456 222.175 108.844C222.011 109.231 221.82 109.768 221.61 110.364C221.399 110.96 221.153 111.653 220.911 112.399C219.736 116.336 218.853 120.317 218.265 124.323C217.551 129.018 217.238 133.292 217.207 136.389C217.181 137.935 217.207 139.187 217.279 140.052C217.315 140.458 217.341 140.797 217.366 141.047C217.368 141.168 217.392 141.288 217.438 141.405Z" fill="#E0E0E0"/>
<path d="M217.464 133.158C217.503 132.812 217.503 132.464 217.464 132.118C217.384 131.174 217.238 130.234 217.027 129.301C216.712 127.919 216.29 126.55 215.763 125.202C215.148 123.546 214.358 121.926 213.4 120.358C211.756 117.458 209.401 114.798 206.449 112.506C205.937 112.115 205.391 111.748 204.815 111.407C204.564 111.251 204.343 111.098 204.117 110.975L203.48 110.658C203.098 110.449 202.695 110.262 202.272 110.099C202.206 110.166 203.983 110.927 206.228 112.659C209.086 114.968 211.378 117.615 213.004 120.485C213.946 122.048 214.742 123.655 215.388 125.295C216.005 126.804 216.416 128.191 216.729 129.361C217.043 130.531 217.197 131.485 217.299 132.148C217.322 132.487 217.377 132.824 217.464 133.158Z" fill="#E0E0E0"/>
<path d="M206.48 147.702L207.62 159.019H227.662L228.802 147.702H206.48Z" fill="#E0E0E0"/>
<path d="M231.191 143.241H204.543V147.702H231.191V143.241Z" fill="#E0E0E0"/>
<path d="M204.543 158.587V159.824H205.796H230.754V158.587H204.543Z" fill="#EBEBEB"/>
<path d="M207.024 162L205.797 159.824H229.799L228.366 162H207.024Z" fill="#E0E0E0"/>
<path d="M228.432 151.402C228.404 151.439 228.371 151.474 228.335 151.507L228.037 151.794L226.87 152.878L226.819 152.926L226.768 152.874C226.033 152.129 225.052 151.156 223.901 149.997H224.065L221.24 152.897L221.152 152.99L221.05 152.904C220.022 152.002 218.876 151.041 217.7 150.012H217.895L217.71 150.184L214.715 152.904L214.618 152.997L214.525 152.9L211.699 150.001H211.864L208.381 152.878L208.319 152.926L208.273 152.87L207.184 151.54L206.906 151.19C206.872 151.15 206.842 151.107 206.819 151.063C206.819 151.063 206.865 151.097 206.937 151.175L207.245 151.514L208.391 152.818H208.278L211.705 149.908L211.792 149.834L211.869 149.915L214.72 152.8H214.53L217.515 150.072L217.7 149.904L217.798 149.819L217.895 149.904L221.235 152.8H221.044L223.901 149.915L223.983 149.83L224.065 149.915L226.87 152.826H226.768L227.985 151.771L228.309 151.495C228.386 151.428 228.427 151.399 228.432 151.402Z" fill="#F5F5F5"/>
<path d="M229.08 147.627C229.08 147.676 224.06 147.717 217.865 147.717C211.669 147.717 206.649 147.676 206.649 147.627C206.649 147.579 211.669 147.538 217.865 147.538C224.06 147.538 229.08 147.579 229.08 147.627Z" fill="#F5F5F5"/>
<path d="M230.097 159.943C230.097 159.995 224.636 160.036 217.906 160.036C211.176 160.036 205.715 159.995 205.715 159.943C205.715 159.891 211.171 159.854 217.906 159.854C224.641 159.854 230.097 159.895 230.097 159.943Z" fill="#F5F5F5"/>
<path d="M138.855 161.501L58.7109 161.53C55.612 161.531 52.6394 160.64 50.4468 159.051C48.2541 157.463 47.0208 155.308 47.018 153.06L46.9256 22.1127C46.9242 20.844 47.2675 19.5875 47.9358 18.4151C48.6041 17.2426 49.5843 16.1771 50.8204 15.2795C52.0565 14.3818 53.5243 13.6696 55.14 13.1836C56.7557 12.6975 58.4876 12.447 60.2367 12.4466L138.902 12.4167C142.035 12.4167 145.041 13.3197 147.257 14.927C149.473 16.5343 150.718 18.7143 150.718 20.9874L150.815 152.833C150.813 155.133 149.551 157.337 147.309 158.962C145.066 160.588 142.026 161.501 138.855 161.501Z" fill="#455A64"/>
<path d="M48.6462 150.035L48.5537 23.9386C48.5605 21.2089 50.06 18.5926 52.723 16.6638C55.3861 14.735 58.9954 13.6512 62.7588 13.6502L134.858 13.6204C136.725 13.6194 138.573 13.8851 140.298 14.4024C142.023 14.9198 143.59 15.6785 144.911 16.6353C146.232 17.5921 147.279 18.7282 147.994 19.9788C148.709 21.2294 149.078 22.5699 149.078 23.9237L149.171 150.02C149.172 151.374 148.806 152.714 148.093 153.966C147.38 155.217 146.333 156.354 145.014 157.311C143.695 158.269 142.129 159.029 140.405 159.548C138.681 160.067 136.832 160.334 134.966 160.334L62.8667 160.364C60.9973 160.365 59.1461 160.098 57.4192 159.579C55.6922 159.059 54.1234 158.298 52.8025 157.339C51.4816 156.379 50.4346 155.24 49.7214 153.987C49.0082 152.734 48.6428 151.391 48.6462 150.035Z" fill="#263238"/>
<path d="M91.3595 18.3192C91.053 18.3192 90.759 18.2309 90.5422 18.0737C90.3254 17.9164 90.2036 17.7032 90.2036 17.4808C90.2036 17.2584 90.3254 17.0452 90.5422 16.8879C90.759 16.7307 91.053 16.6424 91.3595 16.6424H106.202C106.36 16.6347 106.518 16.6507 106.667 16.6893C106.816 16.7278 106.953 16.7882 107.068 16.8666C107.184 16.9451 107.276 17.0399 107.339 17.1452C107.402 17.2505 107.435 17.3641 107.435 17.4789C107.435 17.5937 107.402 17.7073 107.339 17.8127C107.276 17.918 107.184 18.0128 107.068 18.0912C106.953 18.1697 106.816 18.23 106.667 18.2686C106.518 18.3072 106.36 18.3231 106.202 18.3155L91.3595 18.3192Z" fill="#455A64"/>
<path d="M83.4015 18.3231C83.1727 18.3238 82.9487 18.2753 82.7579 18.1836C82.5672 18.0919 82.4182 17.9612 82.3299 17.8081C82.2417 17.655 82.218 17.4863 82.2621 17.3234C82.3061 17.1605 82.4158 17.0108 82.5772 16.8931C82.7387 16.7755 82.9446 16.6953 83.169 16.6626C83.3934 16.63 83.626 16.6464 83.8376 16.7097C84.0491 16.7731 84.2299 16.8805 84.3572 17.0185C84.4844 17.1564 84.5523 17.3187 84.5523 17.4847C84.5523 17.7064 84.4313 17.9191 84.2156 18.0762C83.9999 18.2333 83.7072 18.3221 83.4015 18.3231Z" fill="#455A64"/>
<path d="M87.6501 18.3192C87.4212 18.3199 87.1973 18.2714 87.0065 18.1797C86.8157 18.088 86.6668 17.9573 86.5785 17.8042C86.4902 17.6511 86.4666 17.4824 86.5106 17.3195C86.5546 17.1566 86.6643 17.0069 86.8258 16.8892C86.9872 16.7716 87.1932 16.6914 87.4175 16.6587C87.6419 16.6261 87.8746 16.6425 88.0861 16.7058C88.2976 16.7691 88.4785 16.8766 88.6057 17.0146C88.733 17.1525 88.8009 17.3148 88.8009 17.4808C88.8009 17.7025 88.6798 17.9152 88.4641 18.0723C88.2485 18.2294 87.9558 18.3182 87.6501 18.3192Z" fill="#455A64"/>
<path d="M114.226 18.3082C113.997 18.3082 113.774 18.2589 113.583 18.1666C113.393 18.0743 113.245 17.9432 113.158 17.7898C113.07 17.6363 113.048 17.4676 113.093 17.3048C113.138 17.1421 113.249 16.9927 113.411 16.8756C113.573 16.7585 113.779 16.6789 114.004 16.647C114.228 16.6151 114.461 16.6322 114.672 16.6962C114.883 16.7603 115.063 16.8683 115.19 17.0067C115.316 17.1451 115.383 17.3075 115.382 17.4735C115.382 17.5834 115.352 17.6923 115.294 17.7938C115.236 17.8953 115.151 17.9875 115.043 18.065C114.936 18.1426 114.808 18.204 114.668 18.2457C114.528 18.2875 114.378 18.3087 114.226 18.3082Z" fill="#455A64"/>
<path d="M109.977 18.3119C109.749 18.3119 109.525 18.2627 109.335 18.1706C109.145 18.0784 108.997 17.9475 108.909 17.7943C108.822 17.6411 108.799 17.4725 108.844 17.3099C108.888 17.1472 108.998 16.9978 109.16 16.8806C109.322 16.7633 109.527 16.6835 109.752 16.6511C109.976 16.6188 110.208 16.6354 110.42 16.6988C110.631 16.7623 110.811 16.8698 110.938 17.0076C111.065 17.1455 111.133 17.3076 111.133 17.4734C111.134 17.5837 111.104 17.6929 111.047 17.7949C110.989 17.8968 110.904 17.9894 110.796 18.0674C110.689 18.1454 110.561 18.2071 110.42 18.2491C110.28 18.291 110.129 18.3124 109.977 18.3119Z" fill="#455A64"/>
<path d="M135.629 15.3308H121.655C120.996 15.3306 120.355 15.4851 119.827 15.7713C119.299 16.0574 118.913 16.4598 118.727 16.9182L117.586 19.7577C117.38 20.2713 116.95 20.7224 116.359 21.043C115.769 21.3635 115.051 21.5363 114.314 21.5352H83.3555C82.6185 21.5355 81.9011 21.363 81.3103 21.0433C80.7196 20.7237 80.2872 20.274 80.0778 19.7615L78.9321 16.922C78.7463 16.4636 78.3603 16.0613 77.8322 15.7757C77.3041 15.4901 76.6625 15.3366 76.0038 15.3383H62.0196C59.076 15.3343 56.2508 16.1784 54.165 17.685C52.0793 19.1915 50.9038 21.2372 50.897 23.3723L50.9894 150.299C50.9942 151.356 51.2859 152.402 51.8479 153.378C52.4099 154.353 53.2313 155.238 54.2651 155.983C55.2989 156.728 56.5248 157.318 57.873 157.719C59.2211 158.121 60.6651 158.326 62.1223 158.322L135.717 158.296C138.66 158.3 141.485 157.456 143.571 155.949C145.657 154.443 146.832 152.397 146.839 150.262L146.747 23.3388C146.732 21.2086 145.553 19.1696 143.469 17.6685C141.385 16.1675 138.566 15.3269 135.629 15.3308Z" fill="#FAFAFA"/>
<path d="M150.728 44.8136C150.909 44.8146 151.082 44.8671 151.21 44.9598C151.338 45.0526 151.41 45.1781 151.412 45.3092V61.4555C151.412 61.5863 151.34 61.7118 151.213 61.8046C151.086 61.8975 150.914 61.9501 150.733 61.9511L150.728 44.8136Z" fill="#455A64"/>
<path d="M46.9409 55.415C46.7542 55.415 46.5752 55.4688 46.4432 55.5646C46.3112 55.6603 46.2371 55.7902 46.2371 55.9255V65.7519C46.2384 65.8877 46.3137 66.0175 46.4465 66.1132C46.5793 66.2088 46.7589 66.2625 46.946 66.2625L46.9409 55.415Z" fill="#455A64"/>
<path d="M46.9307 41.2252C46.8378 41.2252 46.7458 41.2385 46.6601 41.2644C46.5744 41.2903 46.4966 41.3283 46.4311 41.3761C46.3657 41.4239 46.314 41.4806 46.2789 41.5429C46.2438 41.6053 46.2261 41.6721 46.2268 41.7395V51.5621C46.2282 51.6982 46.3033 51.8284 46.436 51.9247C46.5686 52.0209 46.7482 52.0754 46.9358 52.0764L46.9307 41.2252Z" fill="#455A64"/>
<path d="M46.9256 30.6014C46.7634 30.6014 46.6079 30.6482 46.4933 30.7313C46.3786 30.8145 46.3142 30.9273 46.3142 31.0449V35.2072C46.3142 35.2653 46.3301 35.3228 46.3608 35.3763C46.3916 35.4299 46.4367 35.4786 46.4936 35.5195C46.5504 35.5603 46.6179 35.5927 46.692 35.6145C46.7661 35.6364 46.8455 35.6474 46.9256 35.6469V30.6014Z" fill="#455A64"/>
<path d="M124.183 19.4633H123.469V20.1899H124.183V19.4633Z" fill="white"/>
<path d="M125.344 19.1392H124.63V20.1863H125.344V19.1392Z" fill="white"/>
<path d="M126.505 18.8969H125.791V20.1862H126.505V18.8969Z" fill="white"/>
<path d="M127.666 18.4274H126.952V20.1862H127.666V18.4274Z" fill="white"/>
<path d="M138.198 20.2198H134.602C134.568 20.2203 134.535 20.216 134.504 20.207C134.473 20.198 134.444 20.1847 134.42 20.1677C134.396 20.1507 134.377 20.1304 134.364 20.108C134.351 20.0856 134.345 20.0615 134.345 20.0372V18.7442C134.345 18.6954 134.371 18.6486 134.418 18.6137C134.465 18.5789 134.529 18.5588 134.596 18.5579H138.193C138.21 18.5587 138.226 18.5641 138.239 18.573C138.251 18.5819 138.258 18.5937 138.259 18.6063V19.0311H138.645C138.653 19.0311 138.662 19.0324 138.67 19.0348C138.677 19.0373 138.684 19.0409 138.69 19.0455C138.696 19.0501 138.701 19.0554 138.703 19.0613C138.706 19.0672 138.707 19.0734 138.706 19.0796V19.6981C138.706 19.711 138.699 19.7233 138.687 19.7324C138.674 19.7415 138.657 19.7466 138.64 19.7466H138.254V20.1714C138.255 20.1772 138.254 20.1832 138.252 20.1888C138.249 20.1944 138.245 20.1996 138.24 20.2041C138.235 20.2086 138.228 20.2123 138.221 20.215C138.214 20.2177 138.206 20.2193 138.198 20.2198ZM138.131 18.651H134.602C134.569 18.651 134.538 18.6604 134.514 18.6772C134.491 18.694 134.478 18.7167 134.478 18.7405V20.0335C134.478 20.0572 134.491 20.08 134.514 20.0967C134.538 20.1135 134.569 20.1229 134.602 20.1229H138.116V19.6981C138.116 19.6863 138.122 19.6749 138.134 19.6665C138.145 19.6581 138.161 19.6534 138.177 19.6534H138.563V19.1243H138.198C138.181 19.1243 138.166 19.1196 138.154 19.1112C138.143 19.1028 138.136 19.0914 138.136 19.0796L138.131 18.651Z" fill="white"/>
<path d="M134.776 19.9142V18.8671L137.833 18.8634V19.3367V19.441V19.9142H134.776Z" fill="white"/>
<path d="M131.077 20.1229C131.077 20.0853 131.062 20.0486 131.033 20.0173C131.004 19.9861 130.963 19.9617 130.916 19.9473C130.868 19.9329 130.815 19.9292 130.764 19.9365C130.713 19.9438 130.667 19.9619 130.63 19.9885C130.593 20.0151 130.568 20.049 130.558 20.0858C130.548 20.1227 130.553 20.1609 130.573 20.1956C130.593 20.2304 130.627 20.26 130.67 20.2809C130.713 20.3018 130.763 20.3129 130.815 20.3129C130.885 20.3129 130.951 20.2929 131.001 20.2573C131.05 20.2216 131.077 20.1733 131.077 20.1229Z" fill="white"/>
<path d="M129.921 19.6683L130.255 19.9068C130.404 19.7998 130.605 19.7398 130.815 19.7398C131.025 19.7398 131.226 19.7998 131.375 19.9068L131.709 19.6645C131.471 19.4933 131.15 19.3969 130.815 19.3962C130.649 19.3965 130.484 19.4206 130.331 19.4673C130.177 19.514 130.038 19.5823 129.921 19.6683Z" fill="white"/>
<path d="M130.815 18.8671C130.284 18.8674 129.774 19.0201 129.397 19.2919L129.731 19.5341C130.019 19.327 130.409 19.2109 130.815 19.2109C131.221 19.2109 131.61 19.327 131.899 19.5341L132.233 19.2919C132.047 19.1566 131.826 19.0495 131.582 18.9766C131.339 18.9037 131.078 18.8664 130.815 18.8671Z" fill="white"/>
<path d="M128.853 18.8931L129.187 19.1354C129.4 18.9789 129.653 18.8548 129.933 18.7703C130.213 18.6858 130.513 18.6427 130.816 18.6435C131.426 18.6439 132.011 18.8193 132.444 19.1316L132.778 18.8894C132.52 18.7024 132.214 18.554 131.878 18.4528C131.541 18.3515 131.18 18.2994 130.816 18.2994C130.451 18.2994 130.09 18.3515 129.753 18.4528C129.417 18.554 129.111 18.7024 128.853 18.8894V18.8931Z" fill="white"/>
<path d="M70.6245 50.8018C70.6133 51.7518 70.214 52.678 69.477 53.4633C68.7401 54.2486 67.6986 54.8578 66.4844 55.2139C65.2701 55.5699 63.9375 55.6567 62.6552 55.4635C61.3729 55.2702 60.1984 54.8054 59.2802 54.128C58.362 53.4505 57.7414 52.5908 57.4968 51.6575C57.2523 50.7243 57.3948 49.7594 57.9063 48.8848C58.4178 48.0103 59.2753 47.2654 60.3704 46.7443C61.4656 46.2233 62.7492 45.9495 64.0588 45.9576C64.9285 45.9629 65.7882 46.0925 66.5888 46.3388C67.3894 46.5852 68.1153 46.9435 68.7249 47.3934C69.3346 47.8432 69.8162 48.3757 70.1421 48.9605C70.468 49.5454 70.632 50.171 70.6245 50.8018Z" fill="#6723B5"/>
<path d="M103.725 47.1017C103.725 47.1539 97.5604 47.1613 90.0083 47.1017C82.4562 47.0421 76.2861 46.9787 76.2861 46.9228C76.2861 46.867 82.4511 46.8632 90.0083 46.9228C97.5655 46.9825 103.73 47.0495 103.725 47.1017Z" fill="#263238"/>
<path d="M126.119 51.6591C126.119 51.7112 114.92 51.6889 101.105 51.6069C87.2903 51.5249 76.0906 51.4131 76.0906 51.3609C76.0906 51.3088 87.2902 51.3311 101.11 51.4131C114.93 51.4951 126.119 51.6032 126.119 51.6591Z" fill="#E0E0E0"/>
<path d="M126.079 55.2401C126.079 55.2922 114.879 55.2699 101.064 55.1879C87.2498 55.1059 76.0347 55.0127 76.0347 54.9419C76.0347 54.8711 87.2292 54.9121 101.049 54.9941C114.869 55.0761 126.079 55.1842 126.079 55.2401Z" fill="#E0E0E0"/>
<path d="M140.844 46.4122C140.844 46.4681 138.419 46.4942 135.434 46.4793C132.449 46.4643 130.029 46.401 130.029 46.3488C130.029 46.2967 132.449 46.2669 135.439 46.2855C138.429 46.3041 140.844 46.36 140.844 46.4122Z" fill="#263238"/>
<path d="M136.657 51.4092L137.104 52.08C137.141 52.1374 137.197 52.1875 137.266 52.2258C137.336 52.2641 137.418 52.2895 137.504 52.2998L138.532 52.4116C138.637 52.4148 138.738 52.4414 138.822 52.4878C138.906 52.5341 138.968 52.5981 139 52.6709C139.032 52.7436 139.032 52.8218 139.001 52.8947C138.969 52.9677 138.908 53.0319 138.825 53.0786L138.08 53.5966C138.017 53.641 137.97 53.6956 137.942 53.7559C137.914 53.8161 137.907 53.8804 137.92 53.9431L138.09 54.6884C138.105 54.7607 138.093 54.8346 138.053 54.9019C138.014 54.9693 137.95 55.0274 137.868 55.0699C137.786 55.1124 137.69 55.1376 137.589 55.1426C137.488 55.1476 137.388 55.1323 137.299 55.0983L136.395 54.7443C136.316 54.7136 136.227 54.6976 136.138 54.6976C136.048 54.6976 135.96 54.7136 135.881 54.7443L134.966 55.0871C134.878 55.1294 134.775 55.1509 134.669 55.1489C134.564 55.1468 134.462 55.1212 134.377 55.0757C134.292 55.0301 134.229 54.9666 134.195 54.894C134.162 54.8214 134.16 54.7431 134.191 54.6698L134.37 53.9245C134.388 53.8623 134.384 53.7978 134.358 53.7372C134.332 53.6765 134.285 53.6217 134.221 53.578L133.492 53.0525C133.42 53.0011 133.369 52.936 133.345 52.8647C133.322 52.7934 133.326 52.7187 133.359 52.6491C133.391 52.5796 133.449 52.518 133.527 52.4714C133.605 52.4248 133.7 52.395 133.8 52.3855L134.828 52.2849C134.915 52.2775 134.998 52.2542 135.069 52.217C135.14 52.1798 135.196 52.1301 135.233 52.0725L135.696 51.4092C135.742 51.3461 135.812 51.2933 135.896 51.2565C135.981 51.2198 136.078 51.2003 136.176 51.2003C136.275 51.2003 136.372 51.2198 136.456 51.2565C136.541 51.2933 136.61 51.3461 136.657 51.4092Z" fill="#6723B5"/>
<path d="M111.051 46.8856C111.049 47.0639 110.974 47.2378 110.836 47.3853C110.698 47.5328 110.502 47.6472 110.274 47.7141C110.047 47.7809 109.796 47.7973 109.556 47.7611C109.315 47.7248 109.094 47.6376 108.922 47.5105C108.749 47.3833 108.633 47.2219 108.587 47.0467C108.541 46.8715 108.568 46.6903 108.664 46.5261C108.76 46.3619 108.92 46.2221 109.126 46.1242C109.332 46.0263 109.573 45.9749 109.818 45.9763C109.982 45.9773 110.143 46.0016 110.293 46.0478C110.444 46.0941 110.58 46.1613 110.695 46.2457C110.809 46.3302 110.9 46.4301 110.961 46.5399C111.022 46.6497 111.053 46.7672 111.051 46.8856Z" fill="#6723B5"/>
<path d="M146.366 38.1845C146.366 38.2366 124.969 38.1546 98.5877 37.9981C72.2069 37.8416 50.8093 37.6702 50.8093 37.6255C50.8093 37.5808 72.2017 37.6553 98.5877 37.8118C124.974 37.9683 146.371 38.1323 146.366 38.1845Z" fill="#E0E0E0"/>
<path d="M146.089 63.0095C146.089 63.0654 124.686 62.9797 98.3104 62.8232C71.9347 62.6667 50.532 62.4953 50.532 62.4506C50.532 62.4059 71.9295 62.4804 98.3104 62.6369C124.691 62.7934 146.089 62.9574 146.089 63.0095Z" fill="#E0E0E0"/>
<path d="M68.1257 103.726C70.7118 101.85 70.7118 98.8085 68.1257 96.9327C65.5395 95.0569 61.3466 95.0569 58.7605 96.9327C56.1744 98.8085 56.1743 101.85 58.7605 103.726C61.3466 105.601 65.5395 105.601 68.1257 103.726Z" fill="#6723B5"/>
<path d="M103.166 96.6697C103.166 96.7219 97.0263 96.7293 89.4485 96.6697C81.8707 96.6101 75.7263 96.5467 75.7263 96.4908C75.7263 96.4349 81.8913 96.4312 89.4485 96.4908C97.0057 96.5505 103.171 96.6175 103.166 96.6697Z" fill="#263238"/>
<path d="M125.56 101.219C125.56 101.272 114.36 101.249 100.545 101.167C86.7307 101.085 75.531 100.974 75.531 100.921C75.531 100.869 86.7307 100.892 100.55 100.974C114.37 101.056 125.56 101.171 125.56 101.219Z" fill="#E0E0E0"/>
<path d="M125.519 104.808C125.519 104.86 114.319 104.838 100.504 104.756C86.6897 104.674 75.49 104.562 75.4951 104.51C75.5003 104.458 86.6897 104.48 100.509 104.562C114.329 104.644 125.519 104.752 125.519 104.808Z" fill="#E0E0E0"/>
<path d="M140.284 95.9802C140.284 96.0361 137.864 96.0621 134.874 96.0472C131.884 96.0323 129.469 95.969 129.469 95.9168C129.469 95.8646 131.889 95.8348 134.879 95.8535C137.869 95.8721 140.284 95.928 140.284 95.9802Z" fill="#263238"/>
<path d="M136.091 100.977L136.538 101.648C136.576 101.705 136.631 101.755 136.701 101.794C136.771 101.832 136.853 101.857 136.939 101.868L137.967 101.98C138.072 101.983 138.173 102.009 138.257 102.056C138.341 102.102 138.403 102.166 138.434 102.239C138.466 102.312 138.467 102.39 138.435 102.463C138.404 102.536 138.343 102.6 138.259 102.647L137.514 103.165C137.452 103.209 137.405 103.264 137.377 103.324C137.349 103.384 137.342 103.448 137.355 103.511L137.525 104.256C137.54 104.329 137.527 104.403 137.488 104.47C137.449 104.537 137.385 104.595 137.303 104.638C137.221 104.68 137.124 104.706 137.024 104.711C136.923 104.716 136.823 104.7 136.734 104.666L135.829 104.294C135.75 104.263 135.662 104.247 135.572 104.247C135.483 104.247 135.395 104.263 135.316 104.294L134.401 104.636C134.313 104.679 134.209 104.7 134.104 104.698C133.998 104.696 133.896 104.671 133.812 104.625C133.727 104.579 133.664 104.516 133.63 104.443C133.597 104.371 133.595 104.292 133.625 104.219L133.81 103.474C133.828 103.411 133.823 103.347 133.796 103.286C133.769 103.225 133.721 103.171 133.656 103.127L132.927 102.602C132.855 102.55 132.804 102.485 132.78 102.414C132.757 102.343 132.761 102.268 132.793 102.198C132.825 102.129 132.884 102.067 132.962 102.021C133.04 101.974 133.135 101.944 133.235 101.935L134.262 101.834C134.349 101.827 134.432 101.804 134.503 101.766C134.574 101.729 134.631 101.679 134.668 101.622L135.131 100.959C135.179 100.896 135.251 100.845 135.337 100.81C135.423 100.774 135.52 100.757 135.619 100.759C135.717 100.761 135.813 100.782 135.897 100.821C135.98 100.859 136.047 100.913 136.091 100.977Z" fill="#6723B5"/>
<path d="M110.471 96.6332C110.605 96.1447 110.167 95.67 109.494 95.5729C108.82 95.4759 108.166 95.7932 108.032 96.2817C107.898 96.7701 108.336 97.2448 109.009 97.3419C109.682 97.439 110.337 97.1217 110.471 96.6332Z" fill="#6723B5"/>
<path d="M145.806 87.7525C145.806 87.8046 124.409 87.7226 98.0279 87.5661C71.6471 87.4096 50.2495 87.2382 50.2495 87.1935C50.2495 87.1488 71.6419 87.2233 98.0279 87.3798C124.414 87.5363 145.812 87.7003 145.806 87.7525Z" fill="#E0E0E0"/>
<path d="M145.529 112.577C145.529 112.633 124.465 112.533 98.4747 112.354C72.4843 112.175 51.4207 111.981 51.4207 111.936C51.4207 111.892 72.4843 111.981 98.4798 112.16C124.475 112.339 145.529 112.525 145.529 112.577Z" fill="#E0E0E0"/>
<path d="M69.5354 147.508C69.5242 148.458 69.125 149.384 68.3883 150.169C67.6516 150.955 66.6104 151.564 65.3965 151.92C64.1825 152.276 62.8502 152.363 61.568 152.17C60.2858 151.977 59.1113 151.513 58.1929 150.836C57.2745 150.159 56.6535 149.299 56.4083 148.366C56.1632 147.433 56.3049 146.469 56.8156 145.594C57.3263 144.719 58.1831 143.974 59.2776 143.453C60.372 142.931 61.6551 142.657 62.9646 142.664C64.7214 142.675 66.4004 143.191 67.6325 144.1C68.8646 145.008 69.5491 146.234 69.5354 147.508Z" fill="#E0E0E0"/>
<path d="M102.636 143.812C102.636 143.864 96.4713 143.871 88.9141 143.812C81.3568 143.752 75.197 143.689 75.197 143.633C75.197 143.577 81.362 143.573 88.9192 143.633C96.4764 143.693 102.636 143.76 102.636 143.812Z" fill="#263238"/>
<path d="M125.025 148.369C125.025 148.421 113.826 148.399 100.016 148.317C86.2065 148.235 75.0017 148.123 75.0017 148.071C75.0017 148.019 86.2014 148.041 100.016 148.123C113.831 148.205 125.025 148.313 125.025 148.369Z" fill="#E0E0E0"/>
<path d="M124.984 151.946C124.984 152.002 113.784 151.98 99.9748 151.898C86.1653 151.816 74.9604 151.704 74.9604 151.652C74.9604 151.6 86.1601 151.618 99.9748 151.7C113.789 151.782 124.989 151.898 124.984 151.946Z" fill="#E0E0E0"/>
<path d="M139.739 143.122C139.739 143.174 137.319 143.204 134.334 143.186C131.349 143.167 128.925 143.111 128.925 143.059C128.925 143.007 131.349 142.977 134.334 142.992C137.319 143.007 139.739 143.07 139.739 143.122Z" fill="#263238"/>
<path d="M109.942 143.596C109.94 143.774 109.865 143.948 109.726 144.095C109.588 144.243 109.393 144.357 109.165 144.424C108.937 144.491 108.686 144.507 108.446 144.471C108.205 144.435 107.984 144.348 107.812 144.22C107.64 144.093 107.523 143.932 107.477 143.757C107.431 143.581 107.458 143.4 107.554 143.236C107.65 143.072 107.811 142.932 108.016 142.834C108.222 142.736 108.463 142.685 108.709 142.686C108.872 142.687 109.033 142.712 109.184 142.758C109.334 142.804 109.47 142.871 109.585 142.956C109.699 143.04 109.79 143.14 109.851 143.25C109.912 143.36 109.943 143.477 109.942 143.596Z" fill="#6723B5"/>
<path d="M146.619 63.0152L51.3481 62.4484L51.0674 87.2725L146.338 87.8393L146.619 63.0152Z" fill="#F5F5F5"/>
<path d="M68.603 78.4584C71.1891 76.5826 71.1891 73.5414 68.603 71.6656C66.0168 69.7898 61.8239 69.7898 59.2378 71.6656C56.6516 73.5414 56.6516 76.5826 59.2378 78.4584C61.8239 80.3342 66.0168 80.3342 68.603 78.4584Z" fill="#455A64"/>
<path d="M103.643 71.4087C103.643 71.4646 97.4781 71.4721 89.926 71.4274C82.3739 71.3826 76.2039 71.3007 76.2039 71.2485C76.2039 71.1963 82.3688 71.1851 89.926 71.2485C97.4832 71.3118 103.643 71.3491 103.643 71.4087Z" fill="#263238"/>
<path d="M126.037 75.9586C126.037 76.0145 114.838 75.9884 101.023 75.9064C87.2085 75.8244 76.0088 75.7163 76.0088 75.6604C76.0088 75.6046 87.2085 75.6306 101.023 75.7126C114.838 75.7946 126.037 75.9064 126.037 75.9586Z" fill="#E0E0E0"/>
<path d="M125.996 79.5395C125.996 79.5917 114.796 79.5693 100.982 79.4873C87.1672 79.4053 75.9675 79.2973 75.9675 79.2414C75.9675 79.1855 87.1672 79.2116 100.987 79.2935C114.807 79.3755 125.996 79.4873 125.996 79.5395Z" fill="#E0E0E0"/>
<path d="M140.767 70.7156C140.767 70.7678 138.342 70.7976 135.357 70.7789C133.554 70.8013 131.75 70.7578 129.952 70.6485C129.952 70.5964 132.372 70.5665 135.362 70.5852C137.166 70.5628 138.969 70.6063 140.767 70.7156Z" fill="#263238"/>
<path d="M136.569 75.7125C136.569 75.7125 136.528 75.6716 136.436 75.6119C136.37 75.5723 136.293 75.5452 136.209 75.5328C136.126 75.5204 136.039 75.5233 135.958 75.5411C135.843 75.564 135.745 75.6189 135.686 75.6939C135.619 75.7759 135.552 75.8877 135.48 75.9957L135.244 76.3684C135.202 76.4466 135.133 76.5155 135.043 76.5678C134.952 76.6202 134.844 76.6543 134.73 76.6665L134.067 76.741L133.718 76.7783C133.62 76.7904 133.531 76.8273 133.466 76.8826C133.399 76.9389 133.361 77.0111 133.361 77.0857C133.361 77.1604 133.399 77.2325 133.466 77.2888L134.052 77.7061L134.206 77.8142C134.268 77.8567 134.319 77.9073 134.355 77.9633C134.427 78.0806 134.44 78.2125 134.391 78.3359C134.34 78.5471 134.288 78.7632 134.237 78.9843C134.22 79.0273 134.218 79.0725 134.229 79.1165C134.24 79.1604 134.265 79.2019 134.302 79.2378C134.338 79.2737 134.386 79.3031 134.441 79.3237C134.495 79.3443 134.555 79.3557 134.617 79.3569C134.735 79.3569 134.843 79.3122 134.997 79.2563L135.434 79.0961C135.583 79.0309 135.741 78.9784 135.907 78.9396C136 78.9261 136.097 78.9264 136.19 78.9405C136.284 78.9546 136.373 78.9822 136.451 79.0215L137.273 79.342C137.325 79.3604 137.381 79.3708 137.438 79.3725C137.496 79.3743 137.553 79.3675 137.607 79.3524C137.66 79.3374 137.709 79.3145 137.75 79.2851C137.79 79.2557 137.822 79.2205 137.843 79.1818C137.879 79.0955 137.879 79.0035 137.843 78.9172C137.843 78.8129 137.802 78.7123 137.777 78.6117L137.715 78.3098C137.684 78.1916 137.715 78.0693 137.802 77.967C137.889 77.8856 137.988 77.8107 138.095 77.7434L138.378 77.5534L138.645 77.3708C138.717 77.3235 138.768 77.261 138.789 77.1919C138.805 77.1261 138.794 77.0583 138.755 76.9976C138.716 76.9369 138.653 76.8863 138.573 76.8528C138.389 76.8097 138.2 76.7797 138.008 76.7634L137.494 76.6963C137.406 76.6907 137.322 76.6719 137.245 76.6411C137.168 76.6103 137.1 76.5682 137.047 76.5174C136.979 76.4311 136.919 76.3415 136.867 76.2491C136.754 76.0896 136.663 75.9223 136.595 75.7498C136.737 75.897 136.86 76.0529 136.965 76.2156C137.019 76.3003 137.081 76.3824 137.15 76.4615C137.196 76.4999 137.253 76.531 137.317 76.5527C137.38 76.5745 137.449 76.5866 137.52 76.5882L138.033 76.6404C138.247 76.6516 138.458 76.6829 138.66 76.7336C138.749 76.7688 138.824 76.8188 138.881 76.8792C138.938 76.9397 138.975 77.009 138.988 77.0816C139.001 77.1542 138.99 77.228 138.956 77.297C138.922 77.366 138.867 77.4283 138.794 77.4788L138.527 77.6652L138.254 77.8627C138.161 77.9192 138.077 77.983 138.003 78.0527C137.949 78.1204 137.931 78.1997 137.951 78.2763C137.977 78.3769 137.998 78.4775 138.023 78.5781C138.049 78.6787 138.069 78.7793 138.095 78.8837C138.147 79.005 138.147 79.1349 138.095 79.2563C138.062 79.3201 138.012 79.3781 137.946 79.4267C137.88 79.4753 137.801 79.5133 137.714 79.5382C137.627 79.5632 137.533 79.5745 137.44 79.5716C137.346 79.5686 137.254 79.5513 137.17 79.5209L136.343 79.2004C136.291 79.1717 136.231 79.1512 136.168 79.1402C136.104 79.1293 136.038 79.1283 135.973 79.1371C135.833 79.1756 135.698 79.2217 135.567 79.2749L135.136 79.4352L134.915 79.5172C134.823 79.5474 134.723 79.5615 134.622 79.5581C134.525 79.5546 134.43 79.536 134.344 79.5036C134.258 79.4712 134.182 79.4257 134.122 79.3702C134.062 79.3147 134.019 79.2506 133.997 79.1821C133.974 79.1136 133.972 79.0423 133.99 78.9731C134.047 78.7533 134.103 78.5371 134.155 78.3284C134.197 78.2455 134.197 78.1543 134.155 78.0713C134.09 77.991 134.004 77.9202 133.903 77.8627L133.292 77.3708C133.189 77.2836 133.132 77.1726 133.132 77.0578C133.132 76.9429 133.189 76.8319 133.292 76.7447C133.392 76.6642 133.529 76.6115 133.677 76.5957L134.031 76.5622L134.699 76.5025C134.787 76.4954 134.869 76.4712 134.939 76.4325C135.009 76.3937 135.063 76.342 135.095 76.2827L135.347 75.9324C135.429 75.8243 135.496 75.7275 135.578 75.6268C135.661 75.5381 135.788 75.4755 135.932 75.4517C136.029 75.4348 136.13 75.4369 136.224 75.4579C136.319 75.4789 136.405 75.5179 136.472 75.5709C136.559 75.6567 136.574 75.7088 136.569 75.7125Z" fill="#263238"/>
<path d="M110.969 71.1888C110.967 71.3671 110.892 71.5411 110.754 71.6885C110.616 71.836 110.42 71.9504 110.192 72.0173C109.964 72.0842 109.714 72.1005 109.474 72.0643C109.233 72.028 109.012 71.9408 108.84 71.8137C108.667 71.6865 108.551 71.5251 108.505 71.3499C108.459 71.1747 108.486 70.9936 108.582 70.8294C108.677 70.6652 108.838 70.5253 109.044 70.4274C109.25 70.3296 109.491 70.2781 109.736 70.2796C110.066 70.2825 110.38 70.3797 110.611 70.55C110.842 70.7203 110.971 70.9499 110.969 71.1888Z" fill="#6723B5"/>
<path d="M146.691 112.504L51.4204 111.937L51.1397 136.761L146.411 137.328L146.691 112.504Z" fill="#F5F5F5"/>
<path d="M68.6747 127.945C71.2609 126.069 71.2609 123.028 68.6747 121.152C66.0886 119.276 61.8957 119.276 59.3095 121.152C56.7234 123.028 56.7234 126.069 59.3095 127.945C61.8957 129.821 66.0886 129.821 68.6747 127.945Z" fill="#455A64"/>
<path d="M103.715 120.891C103.715 120.943 97.5501 120.951 89.998 120.891C82.446 120.831 76.2759 120.768 76.2759 120.712C76.2759 120.656 82.4408 120.652 89.998 120.712C97.5553 120.772 103.715 120.839 103.715 120.891Z" fill="#263238"/>
<path d="M126.109 125.441C126.109 125.493 114.91 125.471 101.095 125.389C87.2802 125.307 76.0806 125.195 76.0806 125.143C76.0806 125.091 87.2802 125.113 101.095 125.195C114.91 125.277 126.109 125.392 126.109 125.441Z" fill="#E0E0E0"/>
<path d="M126.068 129.029C126.068 129.081 114.869 129.059 101.054 128.977C87.2395 128.895 76.0347 128.794 76.0347 128.731C76.0347 128.668 87.2343 128.701 101.054 128.783C114.874 128.865 126.068 128.973 126.068 129.029Z" fill="#E0E0E0"/>
<path d="M140.833 120.201C140.833 120.257 138.408 120.283 135.423 120.269C132.439 120.254 130.019 120.19 130.019 120.138C130.019 120.086 132.439 120.056 135.429 120.075C138.419 120.093 140.833 120.149 140.833 120.201Z" fill="#263238"/>
<path d="M136.656 125.199C136.656 125.199 136.615 125.158 136.523 125.102C136.458 125.062 136.38 125.034 136.297 125.021C136.214 125.008 136.127 125.01 136.045 125.027C135.931 125.052 135.834 125.106 135.773 125.18C135.706 125.266 135.639 125.378 135.567 125.486C135.495 125.594 135.413 125.717 135.331 125.84C135.291 125.919 135.222 125.989 135.131 126.042C135.041 126.095 134.932 126.129 134.817 126.141L134.155 126.212L133.805 126.253C133.729 126.261 133.658 126.284 133.599 126.32C133.539 126.355 133.495 126.402 133.469 126.454C133.444 126.507 133.439 126.564 133.455 126.618C133.47 126.673 133.506 126.723 133.559 126.764L134.144 127.177L134.298 127.285C134.362 127.329 134.412 127.381 134.447 127.438C134.522 127.555 134.535 127.688 134.483 127.811C134.432 128.024 134.381 128.241 134.329 128.459C134.316 128.501 134.316 128.545 134.329 128.586C134.342 128.628 134.368 128.667 134.404 128.701C134.44 128.735 134.487 128.763 134.539 128.782C134.592 128.801 134.65 128.812 134.709 128.813C134.846 128.808 134.978 128.774 135.09 128.716L135.526 128.552C135.676 128.489 135.834 128.436 135.999 128.396C136.189 128.371 136.385 128.402 136.543 128.482L137.365 128.802C137.417 128.82 137.473 128.831 137.531 128.833C137.588 128.834 137.645 128.828 137.699 128.813C137.753 128.797 137.801 128.775 137.842 128.745C137.883 128.716 137.915 128.681 137.936 128.642C137.972 128.556 137.972 128.464 137.936 128.377C137.936 128.273 137.895 128.169 137.869 128.068L137.807 127.77C137.776 127.652 137.807 127.529 137.895 127.427C137.982 127.346 138.08 127.271 138.187 127.203L138.47 127.013L138.737 126.827C138.811 126.781 138.862 126.718 138.881 126.648C138.897 126.583 138.885 126.516 138.847 126.456C138.808 126.396 138.745 126.346 138.665 126.313C138.482 126.268 138.292 126.238 138.1 126.223L137.586 126.156C137.498 126.15 137.413 126.131 137.336 126.099C137.259 126.068 137.192 126.025 137.139 125.974C137.071 125.889 137.011 125.8 136.96 125.709C136.845 125.549 136.754 125.38 136.687 125.206C136.828 125.355 136.952 125.512 137.057 125.676C137.112 125.759 137.174 125.84 137.242 125.918C137.288 125.957 137.345 125.989 137.408 126.011C137.472 126.034 137.541 126.046 137.612 126.048L138.126 126.1C138.325 126.113 138.521 126.142 138.711 126.186C138.829 126.232 138.925 126.303 138.984 126.39C139.043 126.477 139.062 126.575 139.04 126.671C139.018 126.773 138.949 126.867 138.845 126.939L138.578 127.125L138.306 127.319C138.214 127.378 138.129 127.443 138.054 127.513C138 127.58 137.982 127.66 138.003 127.736C138.028 127.837 138.049 127.934 138.074 128.034C138.1 128.135 138.121 128.239 138.146 128.344C138.196 128.465 138.196 128.595 138.146 128.716C138.112 128.78 138.06 128.837 137.993 128.885C137.927 128.933 137.848 128.97 137.76 128.995C137.673 129.019 137.579 129.03 137.486 129.027C137.392 129.024 137.301 129.007 137.216 128.977C136.944 128.873 136.667 128.769 136.389 128.657C136.282 128.602 136.149 128.579 136.019 128.593C135.88 128.633 135.744 128.681 135.614 128.735L135.182 128.895L134.961 128.977C134.868 129.005 134.768 129.017 134.668 129.014C134.572 129.011 134.477 128.992 134.392 128.96C134.306 128.928 134.23 128.883 134.171 128.828C134.111 128.773 134.068 128.709 134.045 128.641C134.021 128.573 134.019 128.502 134.036 128.433C134.093 128.213 134.149 127.997 134.201 127.785C134.243 127.702 134.243 127.611 134.201 127.528C134.133 127.449 134.048 127.378 133.949 127.319L133.363 126.89C133.26 126.803 133.204 126.692 133.204 126.577C133.204 126.463 133.26 126.352 133.363 126.264C133.465 126.184 133.601 126.13 133.749 126.112L134.103 126.078L134.771 126.018C134.858 126.013 134.942 125.99 135.012 125.952C135.081 125.913 135.135 125.862 135.167 125.802L135.418 125.452C135.501 125.34 135.567 125.243 135.65 125.147C135.731 125.056 135.858 124.992 136.004 124.968C136.097 124.955 136.192 124.959 136.282 124.98C136.372 125.001 136.453 125.038 136.518 125.087C136.656 125.147 136.656 125.199 136.656 125.199Z" fill="#263238"/>
<path d="M111.041 120.675C111.039 120.853 110.964 121.027 110.826 121.174C110.688 121.322 110.492 121.436 110.264 121.503C110.036 121.57 109.786 121.586 109.545 121.55C109.305 121.514 109.084 121.427 108.912 121.3C108.739 121.172 108.623 121.011 108.577 120.836C108.531 120.661 108.557 120.48 108.653 120.315C108.749 120.151 108.91 120.011 109.116 119.913C109.321 119.816 109.562 119.764 109.808 119.766C109.971 119.767 110.133 119.791 110.283 119.837C110.434 119.883 110.57 119.95 110.684 120.035C110.799 120.119 110.889 120.219 110.95 120.329C111.012 120.439 111.043 120.556 111.041 120.675Z" fill="#6723B5"/>
<path d="M102.851 28.9809L94.8678 28.9334C94.2294 28.9296 93.7077 29.3019 93.7024 29.7649L93.6532 34.1171C93.648 34.5802 94.1612 34.9586 94.7996 34.9624L102.783 35.0099C103.421 35.0137 103.943 34.6414 103.948 34.1784L103.998 29.8262C104.003 29.3631 103.49 28.9847 102.851 28.9809Z" fill="#6723B5"/>
<path d="M103.443 29.2115C103.357 29.326 103.25 29.4313 103.124 29.5246C102.908 29.7183 102.61 29.9941 102.184 30.3332L100.766 31.5144L99.9184 32.2075C99.7714 32.3374 99.6153 32.4618 99.4509 32.5802C99.2426 32.7049 98.975 32.7651 98.7059 32.7479C98.4393 32.7277 98.1941 32.6327 98.0227 32.4833L97.5654 32.1106L96.7075 31.425L95.269 30.2586C94.858 29.9233 94.5343 29.6513 94.3134 29.4575C94.1874 29.3651 94.0786 29.2611 93.9897 29.1482C93.9897 29.1482 94.1439 29.2302 94.3905 29.409C94.6371 29.5879 94.9813 29.8413 95.418 30.1543L96.8976 31.2946L97.7709 31.9728L98.2282 32.3454C98.2904 32.4017 98.3675 32.4484 98.4549 32.4828C98.5424 32.5173 98.6383 32.5387 98.7373 32.546C98.8363 32.5533 98.9362 32.5462 99.0314 32.5252C99.1266 32.5042 99.215 32.4697 99.2916 32.4237C99.4303 32.3342 99.5896 32.1889 99.7334 32.0771L100.591 31.3915L102.056 30.2363C102.472 29.9121 102.816 29.6475 103.083 29.491C103.186 29.3873 103.307 29.2934 103.443 29.2115Z" fill="white"/>
<path d="M97.2572 31.9429C96.7594 32.4257 96.2079 32.8782 95.608 33.2955C95.068 33.7589 94.4462 34.1686 93.7585 34.5141C94.2575 34.0308 94.8108 33.5784 95.4128 33.1614C95.9518 32.6987 96.5718 32.289 97.2572 31.9429Z" fill="white"/>
<path d="M103.941 34.6557C103.243 34.2514 102.604 33.7956 102.035 33.2956C101.398 32.84 100.824 32.3409 100.319 31.8051C101.019 32.2098 101.659 32.6656 102.23 33.1652C102.867 33.6202 103.44 34.1194 103.941 34.6557Z" fill="white"/>
<path d="M65.6413 31.4023C65.6413 31.4356 63.8843 31.4615 61.7163 31.4615C59.5483 31.4615 57.7913 31.4356 57.7913 31.4023C57.7913 31.3689 59.5483 31.343 61.7163 31.343C63.8843 31.343 65.6413 31.3689 65.6413 31.4023Z" fill="#263238"/>
<path d="M65.6413 32.8592C65.6413 32.8925 63.8843 32.9184 61.7163 32.9184C59.5483 32.9184 57.7913 32.8925 57.7913 32.8592C57.7913 32.8259 59.5483 32.7999 61.7163 32.7999C63.8843 32.7999 65.6413 32.8259 65.6413 32.8592Z" fill="#263238"/>
<path d="M65.6413 34.3162C65.6413 34.3495 63.8843 34.3792 61.7163 34.3792C59.5483 34.3792 57.7913 34.3495 57.7913 34.3199C57.7913 34.2903 59.5483 34.257 61.7163 34.257C63.8843 34.257 65.6413 34.2866 65.6413 34.3162Z" fill="#263238"/>
<path d="M139.318 32.3304C139.292 32.3304 139.318 32.1888 139.205 31.9578C139.078 31.6279 138.803 31.3381 138.424 31.1343C138.12 30.9671 137.758 30.8645 137.379 30.838C136.999 30.8114 136.617 30.862 136.275 30.984C135.933 31.106 135.644 31.2946 135.441 31.5288C135.239 31.763 135.13 32.0335 135.127 32.31C135.124 32.5865 135.227 32.8582 135.424 33.0946C135.622 33.3311 135.907 33.523 136.246 33.6488C136.586 33.7747 136.967 33.8296 137.347 33.8073C137.727 33.7851 138.091 33.6866 138.398 33.5229C138.78 33.3207 139.061 33.0344 139.2 32.7068C139.292 32.472 139.292 32.3342 139.318 32.3342C139.324 32.3675 139.324 32.4014 139.318 32.4348C139.321 32.5325 139.307 32.6301 139.277 32.7254C139.165 33.0824 138.885 33.4 138.485 33.6235C138.148 33.8065 137.747 33.9176 137.327 33.9441C136.908 33.9707 136.486 33.9116 136.11 33.7737C135.735 33.6357 135.419 33.4243 135.2 33.1634C134.981 32.9024 134.867 32.6022 134.871 32.2967C134.874 31.9912 134.996 31.6924 135.221 31.4342C135.446 31.176 135.766 30.9686 136.145 30.8353C136.524 30.7021 136.947 30.6483 137.366 30.68C137.785 30.7118 138.183 30.8278 138.516 31.015C138.911 31.2434 139.182 31.5653 139.282 31.9243C139.311 32.0196 139.323 32.1173 139.318 32.2149C139.33 32.2529 139.33 32.2924 139.318 32.3304Z" fill="#263238"/>
<path d="M140.474 35.0357C140.079 34.8444 139.732 34.6063 139.446 34.3315C139.095 34.0942 138.802 33.8158 138.578 33.5079C138.972 33.6993 139.32 33.9374 139.605 34.2122C139.958 34.4486 140.251 34.7272 140.474 35.0357Z" fill="#263238"/>
<path d="M134.504 110.163L134.432 130.188L122.231 128.37L111.956 126.812C111.956 126.812 126.022 146.934 141.322 146.934C156.621 146.934 158.599 130.192 158.599 130.192L159.508 110.163H134.504Z" fill="#9B7564"/>
<path d="M197.885 58.5042C196.765 58.9663 195.224 58.3664 194.71 57.5018C194.196 56.6373 194.433 55.6387 194.823 54.7294C195.214 53.8202 195.758 52.9482 195.851 52.0055C195.896 51.1448 195.559 50.2964 194.89 49.5852C194.22 48.874 193.253 48.3377 192.131 48.0555C194.34 46.7849 194.52 44.0609 192.491 42.6411C191.54 41.9779 190.276 41.6164 189.172 41.0947C188.544 40.7937 187.959 40.4479 187.425 40.0625C188.411 40.2387 189.437 40.2616 190.436 40.1296C191.236 40.0022 191.98 39.7306 192.597 39.3398C193.215 38.949 193.687 38.4517 193.97 37.8938C194.231 37.3287 194.269 36.7219 194.081 36.1419C193.892 35.5619 193.483 35.0317 192.902 34.6109C192.302 34.2034 191.545 33.938 190.731 33.8502C189.918 33.7623 189.088 33.8561 188.35 34.119C186.922 34.6668 186.141 35.7921 185.447 36.8504L184.8 37.8304C182.791 35.9002 180.901 33.9066 177.803 33.2284C174.992 32.6135 171.972 33.2992 169.043 33.1464C166.911 33.0309 164.867 32.4757 162.74 32.3042C160.613 32.1328 158.193 32.4645 156.939 33.7203C156.2 34.4655 155.968 35.412 155.224 36.1461C153.682 37.659 150.363 37.864 149.1 39.4998C148.072 40.8339 148.863 42.5182 148.421 44.0124C147.944 45.6371 146.094 46.8258 144.584 48.0742C143.073 49.3225 141.753 51.0366 142.601 52.5793C143.351 53.9394 145.534 54.6698 146.243 56.0374C146.757 57.036 146.387 58.1428 146.361 59.2085C146.336 60.2742 146.921 61.5412 148.355 61.7834L164.656 64.9061C170.271 66.5606 176.061 68.2598 182.123 68.2375C188.185 68.2151 194.654 66.1209 197.022 62.0815C196.141 62.0574 195.305 61.791 194.684 61.3363C195.476 61.0679 196.174 60.6741 196.728 60.184C197.282 59.6939 197.677 59.1199 197.885 58.5042Z" fill="#263238"/>
<path d="M184.523 62.2121C185.869 59.231 187.194 56.194 187.806 53.0713C188.417 49.9487 188.289 46.6918 186.778 43.7555C186.552 43.3083 184.595 40.3011 183.937 40.3496C183.47 40.3831 184.672 43.1853 184.451 43.4834C182.19 46.3006 181.574 49.6878 181.939 52.9409C182.328 56.0982 183.201 59.214 184.543 62.2307" fill="#263238"/>
<path d="M170.127 88.4232C176.868 88.3189 184.512 77.6168 184.512 77.6168L184.949 50.1685C185.298 42.2649 179.252 35.5276 168.35 35.4904L167.322 35.5276C162.433 35.7215 157.822 37.2413 154.405 39.7855C150.988 42.3297 149.013 45.7124 148.874 49.263C148.622 56.1157 148.458 63.6914 148.792 67.3507C149.48 74.9226 160.017 75.694 160.017 75.694C160.017 75.694 160.079 77.4528 160.109 79.6812C160.181 84.6819 167.399 88.5797 170.102 88.412L170.127 88.4232Z" fill="#9B7564"/>
<path d="M160.042 75.7052C160.042 75.7052 166.649 75.7313 173.431 72.2583C173.431 72.2583 170.523 77.9 160.048 77.6242L160.042 75.7052Z" fill="#7F6358"/>
<path d="M153.41 55.2214C153.428 55.5064 153.599 55.775 153.888 55.9689C154.176 56.1628 154.558 56.2664 154.951 56.2573C155.142 56.2608 155.331 56.2367 155.508 56.1864C155.685 56.1362 155.846 56.0607 155.983 55.9646C156.119 55.8685 156.228 55.7535 156.302 55.6265C156.376 55.4996 156.415 55.3631 156.416 55.2251C156.4 54.9395 156.229 54.67 155.94 54.4753C155.651 54.2805 155.268 54.1764 154.874 54.1855C154.684 54.182 154.494 54.2062 154.317 54.2567C154.139 54.3072 153.978 54.383 153.841 54.4795C153.705 54.5761 153.596 54.6914 153.522 54.8189C153.448 54.9463 153.41 55.0831 153.41 55.2214Z" fill="#263238"/>
<path d="M151.365 52.3335C151.561 52.4677 152.645 51.8155 154.253 51.7559C155.861 51.6963 157.078 52.2366 157.243 52.0838C157.32 52.0205 157.114 51.7708 156.58 51.5212C155.861 51.1978 155.02 51.0454 154.176 51.0852C153.34 51.1152 152.54 51.3371 151.889 51.7187C151.417 52.0317 151.268 52.2739 151.365 52.3335Z" fill="#263238"/>
<path d="M167.872 54.9419C167.889 55.2269 168.061 55.4955 168.349 55.6894C168.638 55.8833 169.02 55.9869 169.413 55.9778C169.604 55.9813 169.793 55.9571 169.971 55.9066C170.148 55.8561 170.31 55.7803 170.447 55.6838C170.583 55.5872 170.691 55.4718 170.765 55.3444C170.839 55.217 170.878 55.0801 170.877 54.9419C170.86 54.6602 170.692 54.3944 170.409 54.201C170.126 54.0076 169.751 53.9018 169.362 53.906C169.169 53.9005 168.977 53.9231 168.797 53.9727C168.617 54.0222 168.453 54.0976 168.314 54.1943C168.174 54.291 168.064 54.407 167.988 54.5355C167.912 54.6639 167.873 54.8022 167.872 54.9419Z" fill="#263238"/>
<path d="M167.127 52.1918C167.322 52.3259 168.411 51.6776 170.014 51.6179C171.617 51.5583 172.84 52.0949 173.004 51.9459C173.087 51.8788 172.881 51.6328 172.342 51.3794C171.621 51.0581 170.782 50.9059 169.937 50.9435C169.102 50.9743 168.302 51.196 167.651 51.5769C167.184 51.8713 167.035 52.1322 167.127 52.1918Z" fill="#263238"/>
<path d="M162.03 61.3663C162.03 61.2992 161.003 61.2135 159.395 61.1278C158.984 61.1278 158.594 61.0682 158.506 60.8669C158.448 60.5614 158.521 60.2503 158.717 59.9763C159.059 59.2311 159.402 58.4597 159.744 57.6623C161.193 54.3756 162.215 51.674 162.03 51.633C161.846 51.592 160.525 54.2415 159.082 57.517C158.737 58.3256 158.403 59.1006 158.09 59.8385C157.857 60.2076 157.811 60.6248 157.962 61.016C158.029 61.1184 158.128 61.2082 158.251 61.2786C158.374 61.349 158.518 61.3981 158.671 61.4222C158.9 61.4591 159.135 61.4741 159.369 61.4669C161.018 61.4669 162.025 61.4333 162.03 61.3663Z" fill="#263238"/>
<path d="M166.814 61.9885C166.552 61.9885 166.644 63.2517 165.216 64.2056C163.788 65.1596 161.928 65.0962 161.928 65.2714C161.928 65.3534 162.36 65.5024 163.14 65.4875C164.163 65.4575 165.138 65.1673 165.894 64.6677C166.622 64.1862 167.062 63.5178 167.122 62.8045C167.153 62.2828 166.932 61.9773 166.814 61.9885Z" fill="#263238"/>
<path d="M166.865 47.4632C167.05 47.7762 168.643 47.5638 170.538 47.6532C172.434 47.7426 173.986 48.0594 174.212 47.765C174.314 47.6234 174.027 47.3365 173.39 47.0533C172.542 46.7101 171.598 46.5114 170.628 46.472C169.659 46.4326 168.69 46.5537 167.795 46.826C167.117 47.0533 166.788 47.3178 166.865 47.4632Z" fill="#263238"/>
<path d="M151.74 48.4357C152.043 48.6891 153.132 48.3723 154.458 48.309C155.783 48.2456 156.929 48.391 157.165 48.104C157.273 47.9662 157.073 47.7053 156.564 47.4743C155.881 47.2006 155.1 47.08 154.322 47.1278C153.544 47.1755 152.803 47.3895 152.192 47.7426C151.74 48.0332 151.607 48.3053 151.74 48.4357Z" fill="#263238"/>
<path d="M184.512 55.8251C184.687 55.7617 191.576 54.0066 191.736 59.1788C191.895 64.351 184.672 63.4082 184.656 63.2778C184.641 63.1474 184.512 55.8251 184.512 55.8251Z" fill="#9B7564"/>
<path d="M186.783 61.2804C186.814 61.2804 186.912 61.34 187.122 61.4071C187.42 61.4944 187.754 61.4944 188.052 61.4071C188.802 61.1947 189.413 60.3116 189.424 59.3763C189.426 58.9309 189.292 58.4907 189.033 58.0869C188.961 57.9264 188.837 57.7809 188.67 57.6628C188.504 57.5447 188.301 57.4575 188.078 57.4087C187.933 57.3837 187.781 57.3961 187.648 57.4437C187.515 57.4914 187.409 57.5712 187.348 57.6696C187.256 57.8149 187.307 57.9192 187.266 57.9267C187.225 57.9342 187.112 57.841 187.163 57.6286C187.2 57.4989 187.296 57.382 187.436 57.2969C187.531 57.2415 187.64 57.2004 187.757 57.176C187.875 57.1517 187.998 57.1447 188.119 57.1553C188.414 57.1928 188.69 57.2844 188.922 57.4214C189.154 57.5584 189.334 57.7362 189.444 57.9379C189.764 58.3828 189.929 58.8781 189.922 59.38C189.922 60.4271 189.198 61.4146 188.17 61.6493C187.979 61.6933 187.777 61.7054 187.579 61.6848C187.38 61.6641 187.191 61.6113 187.025 61.5301C186.799 61.4034 186.757 61.2879 186.783 61.2804Z" fill="#7F6358"/>
<path d="M153.38 40.6327C152.213 40.1818 155.64 37.428 158.471 36.4629C162.745 35.0096 169.301 34.078 173.277 34.8568C178.07 35.7921 182.067 37.4653 184.523 40.6103C186.979 43.7553 187.944 47.4034 187.867 51.0031C187.842 52.1024 187.708 53.2389 186.912 54.1854C185.936 55.3406 184.03 56.0821 184.143 57.6658C184.175 57.9521 184.128 58.2401 184.005 58.5133C183.883 58.7864 183.687 59.0392 183.429 59.257C182.134 60.278 180.516 59.3427 179.766 58.3999C178.152 56.3802 177.937 53.9544 177.757 51.6291C177.628 49.9746 177.505 48.2754 178.122 46.688C178.456 45.8197 179.005 44.9962 179.272 44.1168C179.54 43.2374 179.488 42.2536 178.718 41.527C178.541 41.3738 178.345 41.2328 178.132 41.1059C177.122 40.4844 175.902 40.0685 174.598 39.9009C173.294 39.7333 171.951 39.82 170.708 40.152C166.696 41.2251 159.842 42.8349 158.029 41.8586C155.419 40.4538 154.782 39.5297 154.782 39.5297L153.38 40.6327Z" fill="#263238"/>
<path d="M172.891 34.1451C168.946 33.2284 164.466 33.3216 160.813 34.7413C158.871 35.4866 157.124 36.6865 156.559 38.2255C155.994 39.7644 156.929 41.6537 158.974 42.235L159.118 42.2984C162.2 43.0138 164.163 42.7008 167.194 41.9071C169.762 41.2401 172.002 40.0737 174.556 39.4142C177.293 38.7157 180.255 38.6261 183.063 39.157C180.289 36.9287 176.842 35.073 172.891 34.1451Z" fill="#263238"/>
<path d="M186.49 39.2875C186.429 39.3248 185.853 38.8292 184.692 38.2442C184.016 37.9019 183.287 37.6192 182.519 37.402C181.6 37.1213 180.607 36.9939 179.611 37.0294C177.788 37.1764 176.059 37.693 174.623 38.5199C173.513 39.1571 172.999 39.6937 172.932 39.6564C172.866 39.6192 173.009 39.4962 173.246 39.2577C173.583 38.9196 173.97 38.6097 174.402 38.3336C175.847 37.4076 177.653 36.8307 179.57 36.6828C180.637 36.6384 181.703 36.7762 182.683 37.0853C183.475 37.3257 184.218 37.6428 184.892 38.028C186.048 38.7025 186.542 39.2652 186.49 39.2875Z" fill="#455A64"/>
<path d="M187.214 41.1245C187.155 41.6407 186.971 42.1452 186.67 42.6151C185.384 44.9415 183.023 46.8713 179.991 48.0742C179.389 48.3461 178.724 48.5379 178.029 48.6406C177.941 48.54 181.034 47.6904 183.628 45.5365C186.223 43.3827 187.065 41.0761 187.214 41.1245Z" fill="#455A64"/>
<path d="M190.127 41.9705C190.183 42.1641 190.192 42.3634 190.153 42.5592C190.116 43.0964 190.013 43.6301 189.845 44.1541C189.296 45.9005 188.159 47.5212 186.537 48.8717C184.914 50.2221 182.856 51.2603 180.546 51.8937C179.853 52.085 179.138 52.2322 178.409 52.3334C178.146 52.3889 177.87 52.4091 177.597 52.3931C177.597 52.3334 178.722 52.1918 180.418 51.6478C182.629 50.9721 184.599 49.9386 186.176 48.6262C187.753 47.3139 188.895 45.7574 189.516 44.0758C189.999 42.8014 190.04 41.9705 190.127 41.9705Z" fill="#455A64"/>
<path d="M164.697 33.6793C164.697 33.7389 163.952 33.8656 162.801 34.1973C159.782 35.0676 157.214 36.6028 155.46 38.5869C155.136 39.0162 154.781 39.4329 154.396 39.8353C154.533 39.3461 154.795 38.8798 155.167 38.4602C155.988 37.4089 157.068 36.4756 158.352 35.7065C159.637 34.9379 161.107 34.349 162.688 33.97C163.329 33.7867 164.009 33.6882 164.697 33.6793Z" fill="#455A64"/>
<path d="M192.373 34.3315C192.491 34.3315 192.177 35.8221 190.559 37.2195C188.941 38.6168 186.963 39.1013 186.963 39.0156C186.963 38.9299 188.694 38.3225 190.205 36.9959C191.715 35.6693 192.229 34.298 192.373 34.3315Z" fill="#455A64"/>
<path d="M116.343 126.98L120.587 125.091C121.307 124.773 122.133 124.604 122.976 124.602H131.196L139.683 130.211L142.216 131.127L141.27 140.816L135.753 140.324C135.753 140.324 123.973 140.697 122.832 140.141C121.692 139.586 120.042 137.842 120.042 137.842C120.042 137.842 113.585 136.326 112.953 135.916C110.554 134.354 111.519 133.982 111.519 133.982L110.415 133.609C110.209 133.892 108.601 131.992 108.771 131.038C108.868 130.483 108.642 130.486 108.642 130.486C108.107 130.263 107.646 129.958 107.29 129.592C106.935 129.225 106.695 128.807 106.587 128.366C106.469 127.8 109.67 128.206 109.67 128.206L117.648 128.284L116.343 126.98Z" fill="#9B7564"/>
<path d="M123.438 128.153L115.932 120.742C115.661 120.472 115.305 120.253 114.894 120.102C114.483 119.951 114.029 119.873 113.569 119.874H98.7319C98.4458 119.874 98.1714 119.956 97.9691 120.103C97.7667 120.249 97.6531 120.449 97.6531 120.656C97.6555 120.843 97.7482 121.024 97.9151 121.167L106.418 128.321L123.438 128.153Z" fill="#455A64"/>
<path d="M119.801 131.19C119.255 131.297 118.692 131.351 118.126 131.351C115.408 131.466 112.681 131.295 110.029 130.844C109.472 130.771 108.93 130.646 108.416 130.471C108.977 130.499 109.534 130.56 110.081 130.654C111.108 130.784 112.511 130.945 114.083 131.027C115.655 131.109 117.083 131.146 118.116 131.142C118.678 131.122 119.242 131.138 119.801 131.19Z" fill="#7F6358"/>
<path d="M121.933 134.436C121.386 134.542 120.823 134.596 120.258 134.596C118.9 134.655 117.539 134.642 116.184 134.555C114.827 134.471 113.481 134.316 112.156 134.09C111.6 134.017 111.059 133.892 110.548 133.717C111.109 133.745 111.666 133.806 112.213 133.9C113.24 134.03 114.643 134.19 116.215 134.272C117.787 134.354 119.215 134.392 120.248 134.388C120.81 134.368 121.374 134.384 121.933 134.436Z" fill="#7F6358"/>
<path d="M106.608 128.366C106.67 128.596 106.752 128.822 106.855 129.044C107.192 129.657 107.844 130.151 108.673 130.423L108.73 130.442V130.486C108.712 131.142 108.911 131.791 109.31 132.379C109.804 133.102 110.621 133.683 111.627 134.026L111.766 134.071L111.699 134.164C111.622 134.28 111.582 134.408 111.582 134.537C111.582 134.666 111.622 134.793 111.699 134.909C111.874 135.161 112.123 135.381 112.429 135.554C113.108 135.933 113.854 136.244 114.648 136.478C116.407 137.008 118.228 137.422 120.089 137.715H120.161L120.197 137.76C120.673 138.261 121.234 138.717 121.866 139.116C122.475 139.554 123.223 139.875 124.045 140.052C124.678 140.165 125.33 140.212 125.981 140.193L127.934 140.231L131.699 140.305L138.481 140.443H138.507L146.588 141.639L148.833 141.99L149.418 142.09C149.488 142.096 149.556 142.111 149.619 142.135C149.551 142.141 149.482 142.141 149.413 142.135L148.817 142.068L146.552 141.777L138.445 140.659H138.471L131.689 140.555L127.928 140.492L125.971 140.458C125.29 140.473 124.609 140.421 123.947 140.301C123.072 140.115 122.274 139.775 121.625 139.31C120.97 138.895 120.392 138.42 119.904 137.898L120.012 137.954C118.131 137.654 116.292 137.229 114.52 136.683C113.701 136.437 112.931 136.111 112.234 135.714C111.891 135.513 111.615 135.258 111.427 134.969C111.338 134.826 111.294 134.669 111.3 134.512C111.305 134.355 111.359 134.2 111.458 134.06L111.53 134.198C110.469 133.828 109.614 133.208 109.105 132.439C108.703 131.823 108.515 131.145 108.555 130.464L108.612 130.527C108.182 130.382 107.798 130.175 107.482 129.919C107.166 129.662 106.924 129.362 106.772 129.037C106.661 128.822 106.605 128.595 106.608 128.366Z" fill="#7F6358"/>
<path d="M124.363 137.287C124.404 137.346 123.407 137.715 122.056 137.846C120.705 137.976 119.616 137.812 119.631 137.749C119.646 137.686 120.715 137.715 122.01 137.585C123.304 137.454 124.327 137.216 124.363 137.287Z" fill="#7F6358"/>
<path d="M128.175 128.142C128.175 128.213 126.546 128.314 124.522 128.37C122.498 128.426 120.859 128.407 120.859 128.332C120.859 128.258 122.487 128.161 124.512 128.105C126.536 128.049 128.175 128.068 128.175 128.142Z" fill="#7F6358"/>
<path d="M142.056 130.333C142.056 130.333 141.902 130.442 141.543 130.482C141.027 130.523 140.507 130.439 140.063 130.244C139.442 129.95 138.863 129.613 138.332 129.238L136.308 127.952L132.609 125.646C132.071 125.347 131.57 125.017 131.108 124.658C131.698 124.901 132.254 125.184 132.768 125.504C133.759 126.056 135.105 126.846 136.549 127.74C137.268 128.195 137.946 128.634 138.553 129.04C139.059 129.415 139.607 129.759 140.191 130.069C140.587 130.261 141.051 130.364 141.527 130.367C141.866 130.371 142.046 130.311 142.056 130.333Z" fill="#7F6358"/>
<path d="M121.856 128.314C121.782 128.266 121.714 128.212 121.656 128.154L121.142 127.677L119.19 125.892L116.374 123.231L114.72 121.658C114.428 121.401 114.044 121.206 113.61 121.096C113.388 121.04 113.157 121.006 112.922 120.995C112.691 120.995 112.408 120.995 112.182 120.995L101.907 120.965L98.7887 120.936H97.941C97.8411 120.937 97.7411 120.931 97.6431 120.917C97.7406 120.9 97.841 120.894 97.941 120.898L98.7887 120.88L101.907 120.846L112.182 120.82C112.439 120.82 112.696 120.82 112.942 120.82C113.2 120.833 113.454 120.87 113.698 120.932C114.176 121.056 114.599 121.272 114.92 121.558L116.569 123.142L119.339 125.828C120.104 126.574 120.731 127.196 121.188 127.65C121.388 127.852 121.548 128.023 121.702 128.15C121.762 128.2 121.814 128.255 121.856 128.314Z" fill="#263238"/>
<path d="M105.719 122.046C105.814 121.993 105.929 121.961 106.049 121.955C106.169 121.949 106.289 121.969 106.394 122.012C106.498 122.055 106.583 122.119 106.637 122.197C106.692 122.275 106.713 122.363 106.699 122.449C106.685 122.536 106.636 122.618 106.558 122.684C106.48 122.751 106.377 122.799 106.261 122.823C106.146 122.848 106.023 122.846 105.908 122.82C105.793 122.794 105.692 122.744 105.616 122.676C105.521 122.585 105.476 122.471 105.491 122.357C105.506 122.243 105.58 122.137 105.698 122.061" fill="#F5F5F5"/>
<path d="M185.247 75.4594L206.146 84.3691L209.989 133.557L214.983 161.385H139.873C139.873 161.385 140.7 127.516 140.957 117.273C141.142 110.092 140.875 96.1741 144.224 87.6147C145.653 83.9666 159.637 79.2528 159.637 79.2528C167.297 84.1604 175.861 82.6959 185.247 75.4594Z" fill="#6723B5"/>
<path d="M212.774 149.088C212.774 149.14 196.56 149.185 176.555 149.185C156.549 149.185 140.335 149.14 140.335 149.088C140.335 149.036 156.549 148.991 176.555 148.991C196.56 148.991 212.774 149.032 212.774 149.088Z" fill="white"/>
<g opacity="0.3">
<path opacity="0.3" d="M140.289 140.719C146.105 144.255 155.142 146.17 162.581 147.262C170.02 148.354 177.618 148.753 185.078 149.744C190.292 150.448 195.764 151.443 200.793 150.214C203.297 149.569 205.493 148.416 207.12 146.892C208.746 145.368 209.735 143.537 209.969 141.617C210.006 141.488 210.005 141.355 209.966 141.227C209.927 141.098 209.851 140.977 209.743 140.872C209.593 140.789 209.421 140.73 209.238 140.698C209.055 140.665 208.865 140.661 208.679 140.685C186.223 141.408 162.442 141.308 140.289 140.708" fill="black"/>
</g>
<path d="M136.313 130.524H188.797L189.054 110.465L213.272 108.199C213.272 108.199 213.38 128.571 213.38 135.252C213.38 143.271 203.824 148.846 195.799 147.989C187.775 147.132 136.313 140.164 136.313 140.164V130.524Z" fill="#9B7564"/>
<path d="M214.952 112.365L186.727 114.493V90.4728C186.727 90.4728 189.501 82.3568 199.252 82.6959C209.003 83.035 214.746 90.6852 214.952 97.7019C215.157 104.719 214.952 112.365 214.952 112.365Z" fill="#6723B5"/>
<path d="M147.209 84.7975C147.209 84.7975 138.162 89.1163 135.737 93.8823C133.194 98.8794 129.624 115.067 129.624 115.067H142.308L147.209 84.7975Z" fill="#6723B5"/>
<path d="M186.49 91.4266C186.524 91.718 186.524 92.0109 186.49 92.3023C186.465 92.9097 186.429 93.7146 186.388 94.6909C186.305 96.7032 186.218 99.4867 186.228 102.561C186.239 105.635 186.352 108.419 186.46 110.431C186.511 111.407 186.552 112.212 186.583 112.82C186.614 113.111 186.614 113.404 186.583 113.695C186.502 113.408 186.454 113.116 186.439 112.823C186.367 112.264 186.28 111.448 186.197 110.442C186.028 108.426 185.879 105.643 185.864 102.561C185.848 99.4793 185.977 96.6957 186.131 94.6797C186.203 93.6736 186.28 92.8613 186.346 92.2986C186.363 92.0057 186.411 91.7142 186.49 91.4266Z" fill="#263238"/>
<path d="M200.7 83.0833C200.7 83.1355 199.755 82.9529 198.224 82.9716C196.231 82.9865 194.28 83.3937 192.581 84.1498C190.882 84.9058 189.497 85.9823 188.576 87.2643C187.862 88.2443 187.661 88.93 187.594 88.9188C187.599 88.7542 187.637 88.5909 187.708 88.4344C187.862 88.0023 188.077 87.5827 188.35 87.1823C189.236 85.8372 190.64 84.7065 192.392 83.9264C194.144 83.1463 196.169 82.75 198.224 82.7852C198.841 82.7931 199.455 82.8442 200.058 82.938C200.281 82.9622 200.498 83.0112 200.7 83.0833Z" fill="#263238"/>
<path d="M141.399 96.1106C141.423 96.2002 141.435 96.2913 141.435 96.3826C141.435 96.5913 141.435 96.8484 141.465 97.1614C141.465 97.8359 141.496 98.8122 141.496 100.02C141.496 102.434 141.445 105.769 141.347 109.451C141.25 113.133 141.152 116.43 141.085 118.879C141.054 120.056 141.029 121.025 141.008 121.737C141.008 122.05 140.977 122.307 140.967 122.516C140.974 122.606 140.961 122.696 140.931 122.784C140.904 122.696 140.892 122.606 140.895 122.516C140.895 122.307 140.895 122.05 140.864 121.737C140.864 121.062 140.833 120.086 140.833 118.879C140.833 116.464 140.885 113.129 140.982 109.443C141.08 105.758 141.173 102.464 141.239 100.02C141.275 98.8383 141.301 97.8732 141.322 97.1614C141.322 96.8484 141.352 96.5913 141.358 96.3826C141.354 96.291 141.368 96.1994 141.399 96.1106Z" fill="#263238"/>
<path d="M141.075 104.156C139.647 104.244 138.212 104.267 136.78 104.227C135.346 104.249 133.912 104.207 132.485 104.1C133.913 104.012 135.348 103.989 136.78 104.029C138.214 104.004 139.649 104.047 141.075 104.156Z" fill="white"/>
<path d="M186.007 98.611C186.007 98.6632 176.246 98.7079 164.25 98.7079C152.254 98.7079 142.482 98.6632 142.482 98.611C142.482 98.5589 152.244 98.5142 164.25 98.5142C176.256 98.5142 186.007 98.5477 186.007 98.611Z" fill="white"/>
<path d="M214.34 95.3244C214.245 95.3324 214.148 95.3324 214.053 95.3244L213.241 95.2759L210.261 95.0896C207.739 94.9369 204.255 94.7692 200.402 94.6909C196.549 94.6127 193.056 94.6462 190.528 94.6909L187.533 94.758H186.721C186.626 94.7681 186.529 94.7681 186.434 94.758C186.526 94.7404 186.621 94.7304 186.716 94.7282L187.528 94.676C188.237 94.635 189.254 94.5903 190.523 94.5456C193.051 94.4599 196.544 94.4114 200.407 94.486C204.271 94.5605 207.759 94.7543 210.277 94.9406C211.535 95.0337 212.552 95.1194 213.251 95.1902L214.058 95.2722C214.155 95.2806 214.25 95.2981 214.34 95.3244Z" fill="white"/>
<path d="M214.608 109.555C214.608 109.611 208.232 109.555 200.377 109.421C192.522 109.287 186.141 109.142 186.146 109.089C186.151 109.037 192.516 109.089 200.382 109.227C208.247 109.365 214.608 109.503 214.608 109.555Z" fill="white"/>
<path d="M188.966 86.6457C188.966 86.7016 178.907 86.7426 166.5 86.7426C154.093 86.7426 144.034 86.7016 144.034 86.6457C144.034 86.5898 154.093 86.5488 166.5 86.5488C178.907 86.5488 188.966 86.5935 188.966 86.6457Z" fill="white"/>
<path d="M186.151 113.721C186.151 113.774 176.061 113.818 163.613 113.818C151.165 113.818 141.075 113.774 141.075 113.721C141.075 113.669 151.165 113.625 163.613 113.625C176.061 113.625 186.151 113.665 186.151 113.721Z" fill="white"/>
<path d="M189.388 125.676C189.388 125.728 178.414 125.772 164.882 125.772C151.35 125.772 140.371 125.728 140.371 125.676C140.371 125.623 151.345 125.579 164.882 125.579C178.419 125.579 189.388 125.62 189.388 125.676Z" fill="white"/>
<path d="M214.197 160.144C214.197 160.197 197.649 160.241 177.243 160.241C156.837 160.241 140.289 160.197 140.289 160.144C140.289 160.092 156.832 160.047 177.243 160.047C197.654 160.047 214.197 160.096 214.197 160.144Z" fill="white"/>
<g opacity="0.3">
<path opacity="0.3" d="M186.382 114.72C186.053 109.973 186.289 105.531 185.955 100.787C183.727 107.749 182.675 114.882 182.822 122.028C182.858 123.723 182.971 125.448 183.726 127.054C184.481 128.66 186.572 130.035 188.709 130.721L188.915 114.515C187.954 114.567 187.348 114.687 186.382 114.72Z" fill="black"/>
</g>
<path d="M228.658 161.46C228.658 161.512 177.797 161.557 115.084 161.557C52.3712 161.557 1.5 161.512 1.5 161.46C1.5 161.408 52.3609 161.363 115.084 161.363C177.808 161.363 228.658 161.404 228.658 161.46Z" fill="#263238"/>
</svg>
