<svg width="237" height="162" viewBox="0 0 237 162" fill="none" xmlns="http://www.w3.org/2000/svg">
<path d="M237 142.363H0V142.472H237V142.363Z" fill="#EBEBEB"/>
<path d="M213.252 149.359H197.553V149.468H213.252V149.359Z" fill="#EBEBEB"/>
<path d="M156.998 150.542H152.879V150.651H156.998V150.542Z" fill="#EBEBEB"/>
<path d="M197.08 145.324H187.984V145.433H197.08V145.324Z" fill="#EBEBEB"/>
<path d="M45.338 146.055H24.866V146.164H45.338V146.055Z" fill="#EBEBEB"/>
<path d="M52.5619 146.055H49.5615V146.164H52.5619V146.055Z" fill="#EBEBEB"/>
<path d="M106.721 147.89H62.3167V147.999H106.721V147.89Z" fill="#EBEBEB"/>
<path d="M112.338 122.97H20.8134C20.0964 122.969 19.4092 122.707 18.9027 122.241C18.3961 121.776 18.1116 121.145 18.1116 120.487V2.46119C18.1179 1.80722 18.4051 1.18192 18.911 0.721103C19.4169 0.260288 20.1005 0.00118132 20.8134 6.10352e-05H112.338C113.056 6.10352e-05 113.744 0.261649 114.252 0.727278C114.759 1.19291 115.045 1.82444 115.045 2.48294V120.487C115.045 121.145 114.759 121.777 114.252 122.243C113.744 122.708 113.056 122.97 112.338 122.97ZM20.8134 0.0870272C20.1279 0.0881791 19.4708 0.338821 18.9865 0.783939C18.5021 1.22906 18.2301 1.83228 18.2301 2.46119V120.487C18.2301 121.116 18.5021 121.719 18.9865 122.164C19.4708 122.609 20.1279 122.86 20.8134 122.861H112.338C113.024 122.86 113.682 122.609 114.167 122.164C114.652 121.719 114.925 121.116 114.926 120.487V2.46119C114.925 1.83188 114.652 1.22867 114.167 0.783674C113.682 0.33868 113.024 0.0881767 112.338 0.0870272H20.8134Z" fill="#EBEBEB"/>
<path d="M214.869 122.97H123.339C122.622 122.969 121.934 122.707 121.427 122.241C120.92 121.776 120.634 121.145 120.633 120.487V2.46119C120.64 1.80683 120.929 1.18153 121.435 0.720831C121.942 0.260136 122.626 0.00116911 123.339 6.10352e-05H214.869C215.581 0.0023241 216.263 0.261937 216.768 0.722629C217.273 1.18332 217.56 1.80797 217.566 2.46119V120.487C217.566 121.144 217.282 121.774 216.776 122.239C216.271 122.705 215.585 122.967 214.869 122.97ZM123.339 0.0870272C122.653 0.0881767 121.996 0.33868 121.511 0.783674C121.026 1.22867 120.753 1.83188 120.751 2.46119V120.487C120.753 121.116 121.026 121.719 121.511 122.164C121.996 122.609 122.653 122.86 123.339 122.861H214.869C215.555 122.86 216.212 122.609 216.697 122.164C217.182 121.719 217.455 121.116 217.457 120.487V2.46119C217.455 1.83188 217.182 1.22867 216.697 0.783674C216.212 0.33868 215.555 0.0881767 214.869 0.0870272H123.339Z" fill="#EBEBEB"/>
<path d="M106.693 25.6593L111.589 25.0027L106.693 24.3461L107.901 22.5894L105.986 23.6983L105.271 19.2108L104.555 23.6983L102.64 22.5894L103.853 24.3461L98.957 25.0027L103.853 25.6593L102.64 27.416L104.555 26.3029L105.271 30.7947L105.986 26.3029L107.901 27.416L106.693 25.6593Z" fill="#F5F5F5"/>
<path d="M155.913 37.6476L160.804 36.991L155.913 36.3344L157.122 34.5777L155.207 35.6865L154.491 31.1947L153.775 35.6865L151.86 34.5777L153.074 36.3344L148.177 36.991L153.074 37.6476L151.86 39.4043L153.775 38.2911L154.491 42.7829L155.207 38.2911L157.122 39.4043L155.913 37.6476Z" fill="#F5F5F5"/>
<path d="M87.0737 57.1279L91.9702 56.4713L87.0737 55.8104L88.2872 54.058L86.3722 55.1668L85.6565 50.675L84.9407 55.1668L83.0258 54.058L84.2392 55.8104L79.3428 56.4713L84.2392 57.1279L83.0258 58.8846L84.9407 57.7715L85.6565 62.2633L86.3722 57.7715L88.2872 58.8846L87.0737 57.1279Z" fill="#F5F5F5"/>
<path d="M45.6891 57.1279L50.5807 56.4713L45.6891 55.8104L46.8978 54.058L44.9828 55.1668L44.267 50.675L43.5513 55.1668L41.6363 54.058L42.8498 55.8104L37.9534 56.4713L42.8498 57.1279L41.6363 58.8846L43.5513 57.7715L44.267 62.2633L44.9828 57.7715L46.8978 58.8846L45.6891 57.1279Z" fill="#F5F5F5"/>
<path d="M69.1331 83.8656L74.0295 83.209L69.1331 82.5481L70.3465 80.7957L68.4316 81.9045L67.7158 77.4127L66.9953 81.9045L65.0851 80.7957L66.2938 82.5481L61.3974 83.209L66.2938 83.8656L65.0851 85.6223L66.9953 84.5091L67.7158 89.0009L68.4316 84.5091L70.3465 85.6223L69.1331 83.8656Z" fill="#F5F5F5"/>
<path d="M165.312 69.4684L170.209 68.8118L165.312 68.1552L166.526 66.3985L164.611 67.5116L163.895 63.0198L163.179 67.5116L161.265 66.3985L162.473 68.1552L157.582 68.8118L162.473 69.4684L161.265 71.2251L163.179 70.1163L163.895 74.608L164.611 70.1163L166.526 71.2251L165.312 69.4684Z" fill="#F5F5F5"/>
<path d="M199.848 109.268L204.74 108.607L199.848 107.951L201.057 106.198L199.142 107.307L198.426 102.815L197.71 107.307L195.795 106.198L197.009 107.951L192.112 108.607L197.009 109.268L195.795 111.021L197.71 109.912L198.426 114.404L199.142 109.912L201.057 111.021L199.848 109.268Z" fill="#F5F5F5"/>
<path d="M158.999 107.886L163.895 107.229L158.999 106.568L160.212 104.816L158.297 105.925L157.581 101.433L156.861 105.925L154.951 104.816L156.159 106.568L151.263 107.229L156.159 107.886L154.951 109.642L156.861 108.529L157.581 113.021L158.297 108.529L160.212 109.642L158.999 107.886Z" fill="#F5F5F5"/>
<path d="M69.1331 117.243L74.0295 116.582L69.1331 115.926L70.3465 114.169L68.4316 115.282L67.7158 110.79L66.9953 115.282L65.0851 114.169L66.2938 115.926L61.3974 116.582L66.2938 117.243L65.0851 118.995L66.9953 117.887L67.7158 122.378L68.4316 117.887L70.3465 118.995L69.1331 117.243Z" fill="#F5F5F5"/>
<path d="M122.335 96.8279L127.231 96.1713L122.335 95.5147L123.548 93.758L121.633 94.8668L120.917 90.3794L120.202 94.8668L118.287 93.758L119.495 95.5147L114.599 96.1713L119.495 96.8279L118.287 98.5846L120.202 97.4715L120.917 101.963L121.633 97.4715L123.548 98.5846L122.335 96.8279Z" fill="#F5F5F5"/>
<path d="M94.558 145.194L99.4545 144.537L94.558 143.881L95.7667 142.124L93.8518 143.233L93.136 138.745L92.4203 143.233L90.5053 142.124L91.7188 143.881L86.8224 144.537L91.7188 145.194L90.5053 146.951L92.4203 145.837L93.136 150.329L93.8518 145.837L95.7667 146.951L94.558 145.194Z" fill="#F5F5F5"/>
<path d="M149.026 142.263L153.922 141.607L149.026 140.95L150.234 139.193L148.324 140.306L147.604 135.815L146.888 140.306L144.973 139.193L146.186 140.95L141.29 141.607L146.186 142.263L144.973 144.02L146.888 142.907L147.604 147.399L148.324 142.907L150.234 144.02L149.026 142.263Z" fill="#F5F5F5"/>
<path d="M149.642 61.1849C146.732 57.2323 145.485 51.0316 142.816 48.5749C144.882 47.12 147.075 45.8227 149.372 44.6962C151.007 49.014 151.979 55.7147 156.197 57.3062C154.131 58.7611 151.939 60.0583 149.642 61.1849Z" fill="#EBEBEB"/>
<path d="M154.571 58.0455C154.164 57.7976 154.268 57.3106 154.766 57.0062C151.846 54.8538 150.798 49.8446 149.476 46.0964C149.368 46.1412 149.251 46.1642 149.133 46.1639C149.014 46.1636 148.898 46.14 148.79 46.0946C148.683 46.0493 148.587 45.9832 148.51 45.901C148.433 45.8188 148.376 45.7223 148.343 45.618C146.957 46.3225 145.612 47.0932 144.314 47.927C144.415 48.1463 144.422 48.3923 144.334 48.6163C144.246 48.8402 144.07 49.0257 143.84 49.1358C145.816 51.697 147.02 56.4236 149.182 59.9544C149.425 59.8716 149.69 59.8637 149.938 59.932C150.186 60.0002 150.403 60.1409 150.556 60.3327C151.937 59.6352 153.277 58.8718 154.571 58.0455ZM147.461 53.658C147.03 52.6014 147.428 51.4535 148.31 51.0795C149.191 50.7055 150.206 51.3273 150.609 52.4101C151.011 53.4928 150.699 54.6147 149.822 54.9712C148.945 55.3278 147.888 54.7234 147.475 53.658H147.461Z" fill="#E0E0E0"/>
<path d="M83.4472 48.214C79.2807 50.2751 72.9623 50.5316 70.3269 52.584C69.0047 50.5276 67.8512 48.3838 66.8762 46.1703C71.327 45.3006 78.1289 45.3615 79.9965 41.8002C81.3225 43.8547 82.476 45.9988 83.4472 48.214Z" fill="#EBEBEB"/>
<path d="M80.6318 43.3569C80.3569 43.6917 79.8687 43.5308 79.5985 43.0395C77.2285 45.3571 72.133 45.605 68.2699 46.2703C68.3118 46.3655 68.3303 46.4679 68.3242 46.5704C68.3182 46.6729 68.2876 46.773 68.2347 46.8634C68.1817 46.9539 68.1078 47.0325 68.018 47.0938C67.9283 47.1552 67.8249 47.1976 67.7153 47.2182C68.2794 48.4531 68.9477 49.7533 69.763 51.1317C70.128 50.9621 70.6636 51.2273 70.948 51.723C73.6545 50.3098 78.4846 49.8837 82.1865 48.4357C82.1137 48.2188 82.1207 47.9859 82.2064 47.773C82.292 47.5601 82.4516 47.3789 82.6605 47.2573C82.1012 46.0268 81.4423 44.731 80.6365 43.3439L80.6318 43.3569ZM75.7401 49.1358C75.241 49.2594 74.7101 49.2141 74.2444 49.0081C73.7788 48.8021 73.4095 48.4492 73.2042 48.0139C72.8866 47.1443 73.5834 46.3572 74.6973 46.1398C75.8112 45.9224 76.9204 46.3616 77.219 47.1965C77.5176 48.0313 76.8351 48.8836 75.7401 49.1358Z" fill="#E0E0E0"/>
<path d="M124.799 42.4307C121.258 39.5391 118.831 34.169 115.826 32.6167C117.479 30.7716 119.28 29.0434 121.216 27.4465C123.628 30.986 125.899 36.8693 130.184 37.2563C128.533 39.1025 126.733 40.8322 124.799 42.4307Z" fill="#EBEBEB"/>
<path d="M128.804 38.3346C128.373 38.2128 128.368 37.7389 128.781 37.3388C125.61 36.0909 123.595 31.7817 121.59 28.6988C121.507 28.7682 121.408 28.8198 121.301 28.8499C121.193 28.88 121.08 28.8878 120.969 28.8729C120.858 28.8579 120.752 28.8205 120.658 28.7633C120.565 28.7061 120.486 28.6306 120.429 28.5422C119.357 29.4554 118.253 30.4729 117.111 31.6556C117.409 31.9122 117.319 32.4644 116.907 32.8775C119.277 34.7299 121.372 38.7477 124.126 41.4393C124.323 41.3028 124.564 41.2289 124.811 41.2289C125.058 41.2289 125.298 41.3028 125.496 41.4393C126.562 40.5348 127.662 39.5217 128.814 38.352L128.804 38.3346ZM121.22 36.0909C120.922 35.703 120.787 35.2294 120.839 34.7572C120.891 34.2851 121.128 33.8461 121.505 33.521C122.263 32.9601 123.325 33.2819 123.936 34.1689C124.548 35.056 124.467 36.1604 123.714 36.704C122.96 37.2475 121.851 36.9605 121.234 36.0909H121.22Z" fill="#E0E0E0"/>
<path d="M135.91 87.779C134.294 83.6959 134.938 77.9258 133.113 75.2342C135.523 74.3383 138.003 73.6087 140.531 73.0513C140.821 77.217 139.759 83.3829 143.328 85.6005C140.918 86.4965 138.439 87.2247 135.91 87.779Z" fill="#EBEBEB"/>
<path d="M141.555 85.931C141.238 85.6309 141.484 85.2178 142.029 85.0613C139.877 82.5741 140.356 77.9084 140.204 74.308C140.095 74.3332 139.981 74.3358 139.87 74.3157C139.76 74.2956 139.655 74.2533 139.565 74.1917C139.474 74.1302 139.399 74.051 139.346 73.9598C139.293 73.8686 139.262 73.7678 139.256 73.6644C137.834 73.9992 136.341 74.4123 134.72 74.9472C134.848 75.3037 134.483 75.7516 133.905 75.9342C135.033 78.5997 134.787 83.048 135.801 86.6136C136.045 86.5822 136.294 86.6236 136.511 86.7316C136.728 86.8396 136.901 87.0086 137.005 87.2137C138.427 86.8832 139.911 86.4745 141.527 85.944L141.555 85.931ZM136.066 80.6521C136.004 80.1813 136.129 79.7056 136.419 79.313C136.709 78.9205 137.145 78.6377 137.645 78.5171C138.593 78.3519 139.37 79.0998 139.446 80.1434C139.522 81.187 138.882 82.1262 137.939 82.2784C136.995 82.4306 136.152 81.6827 136.066 80.6521Z" fill="#E0E0E0"/>
<path d="M198.871 71.1424C195.331 68.2508 192.904 62.8807 189.899 61.3283C191.552 59.4843 193.354 57.7561 195.288 56.1582C197.705 59.6977 199.976 65.581 204.261 65.968C202.608 67.8143 200.807 69.544 198.871 71.1424Z" fill="#EBEBEB"/>
<path d="M202.872 67.0507C202.436 66.9246 202.436 66.4507 202.849 66.0506C199.668 64.7896 197.658 60.4935 195.663 57.3975C195.58 57.4669 195.481 57.5185 195.373 57.5486C195.266 57.5787 195.153 57.5866 195.042 57.5716C194.93 57.5566 194.824 57.5192 194.731 57.462C194.638 57.4048 194.559 57.3293 194.501 57.241C193.43 58.1541 192.326 59.1716 191.183 60.3543C191.482 60.6109 191.392 61.1631 190.98 61.5762C193.35 63.4286 195.445 67.4464 198.199 70.138C198.396 70.0022 198.637 69.9287 198.883 69.9287C199.13 69.9287 199.371 70.0022 199.568 70.138C200.635 69.2336 201.735 68.2204 202.886 67.0507H202.872ZM195.288 64.7896C194.99 64.4027 194.854 63.9296 194.906 63.4579C194.958 62.9863 195.195 62.548 195.573 62.2241C196.326 61.6588 197.393 61.9806 197.999 62.8677C198.606 63.7547 198.535 64.8592 197.781 65.4027C197.028 65.9463 195.923 65.6593 195.288 64.7896Z" fill="#E0E0E0"/>
<path d="M196.065 64.5157L195.862 64.6592L195.743 64.4896L195.942 64.3461C195.818 64.1578 195.746 63.9442 195.734 63.7243L195.98 63.6852C195.987 63.8679 196.04 64.0467 196.137 64.207L196.492 63.9548C196.383 63.6852 196.274 63.3851 196.525 63.2069C196.705 63.0764 196.975 63.1242 197.227 63.4373L197.431 63.2938L197.549 63.4678L197.35 63.6069C197.448 63.7638 197.512 63.9365 197.54 64.1156L197.298 64.1548C197.274 64.0125 197.226 63.8746 197.156 63.746L196.795 64.0026C196.909 64.2722 197.028 64.5722 196.795 64.7461C196.563 64.9201 196.321 64.8288 196.065 64.5157ZM196.71 63.7982L197.032 63.5765C196.909 63.4373 196.8 63.4199 196.72 63.4764C196.639 63.533 196.658 63.6547 196.71 63.7982ZM196.568 64.4853C196.658 64.4244 196.634 64.3026 196.568 64.1548L196.25 64.3809C196.388 64.52 196.492 64.5418 196.568 64.4853Z" fill="#E0E0E0"/>
<path d="M114.907 62.5676C111.727 66.3288 108.821 70.3554 107.536 74.6558C105.394 73.8427 103.195 73.0252 101.047 72.0729C102.73 67.5985 105.636 63.672 108.418 59.9847C110.561 60.7978 112.76 61.6153 114.907 62.5676Z" fill="#EBEBEB"/>
<path d="M109.413 60.7327C109.254 60.9296 109.029 61.0736 108.772 61.1434C108.516 61.2132 108.242 61.2049 107.991 61.1197C105.697 64.194 103.403 67.4378 101.858 71.0338C102.091 71.1487 102.272 71.3361 102.369 71.5624C102.465 71.7887 102.47 72.0391 102.384 72.2688C103.725 72.834 105.081 73.3602 106.422 73.8733C106.456 73.7662 106.514 73.667 106.593 73.5824C106.672 73.4977 106.77 73.4296 106.88 73.3826C106.99 73.3356 107.11 73.3109 107.231 73.31C107.353 73.3091 107.473 73.3322 107.584 73.3776C108.887 69.8772 111.177 66.5725 113.717 63.4461C113.607 63.4012 113.509 63.3331 113.432 63.2472C113.356 63.1614 113.302 63.0603 113.276 62.952C113.25 62.8438 113.251 62.7313 113.281 62.6238C113.311 62.5163 113.368 62.4166 113.447 62.3329C112.101 61.7676 110.75 61.2415 109.408 60.7284L109.413 60.7327ZM109.02 67.8335C108.767 68.2615 108.352 68.5894 107.853 68.7545C107.354 68.9197 106.806 68.9107 106.313 68.7292C106.084 68.6284 105.88 68.4841 105.716 68.3061C105.552 68.128 105.43 67.9201 105.359 67.696C105.289 67.4718 105.27 67.2365 105.306 67.0054C105.341 66.7744 105.429 66.5527 105.564 66.3551C105.835 65.9274 106.266 65.6038 106.776 65.444C107.286 65.2842 107.842 65.2989 108.342 65.4854C108.571 65.5835 108.773 65.7265 108.935 65.9042C109.097 66.082 109.215 66.2902 109.279 66.5141C109.344 66.738 109.354 66.9723 109.309 67.2002C109.264 67.4282 109.166 67.6444 109.02 67.8335Z" fill="#E0E0E0"/>
<path d="M108.295 67.329L108.55 67.4378L108.441 67.6117L108.186 67.503C108.062 67.6883 107.885 67.8388 107.674 67.9378L107.498 67.7421C107.676 67.6613 107.827 67.54 107.939 67.3899L107.465 67.1943C107.256 67.403 107.015 67.6291 106.697 67.4899C106.465 67.3899 106.356 67.1421 106.531 66.7942L106.275 66.6855L106.384 66.5116L106.64 66.6203C106.746 66.4688 106.889 66.3422 107.057 66.2507L107.233 66.4333C107.098 66.5095 106.981 66.6084 106.887 66.7246L107.361 66.9203C107.574 66.7116 107.835 66.4855 108.143 66.6246C108.375 66.7333 108.475 66.9638 108.295 67.329ZM107.204 67.0855L106.797 66.9116C106.726 67.0725 106.768 67.1725 106.868 67.216C106.967 67.2595 107.086 67.1943 107.204 67.0855ZM107.986 66.916C107.873 66.8681 107.759 66.9377 107.64 67.0508L108.048 67.2203C108.119 67.0551 108.072 66.9638 107.986 66.916Z" fill="#E0E0E0"/>
<path d="M195.729 84.8657C192.544 88.6269 189.643 92.6535 188.358 96.9539C186.216 96.1408 184.016 95.3233 181.869 94.371C183.552 89.8966 186.457 85.9701 189.235 82.2828C191.382 83.0959 193.582 83.9221 195.729 84.8657Z" fill="#EBEBEB"/>
<path d="M190.235 83.0263C190.077 83.2244 189.852 83.3698 189.596 83.4404C189.339 83.5111 189.064 83.5031 188.813 83.4176C186.519 86.4875 184.225 89.7357 182.68 93.3318C182.914 93.4444 183.097 93.6307 183.194 93.8565C183.292 94.0824 183.298 94.3329 183.211 94.5623C184.552 95.132 185.908 95.6538 187.249 96.1712C187.282 96.0637 187.34 95.964 187.419 95.879C187.497 95.7939 187.595 95.7255 187.706 95.6784C187.816 95.6314 187.936 95.6067 188.058 95.6062C188.179 95.6057 188.3 95.6293 188.41 95.6755C189.714 92.1969 192.003 88.8704 194.544 85.744C194.433 85.6991 194.336 85.631 194.259 85.5452C194.183 85.4594 194.129 85.3582 194.103 85.25C194.076 85.1417 194.078 85.0292 194.108 84.9217C194.138 84.8142 194.194 84.7145 194.274 84.6308C192.932 84.0699 191.581 83.5438 190.24 83.0307L190.235 83.0263ZM189.818 90.1401C189.566 90.5681 189.15 90.896 188.651 91.0611C188.152 91.2263 187.604 91.2173 187.112 91.0359C186.882 90.9355 186.678 90.7916 186.513 90.6136C186.348 90.4356 186.226 90.2275 186.156 90.0032C186.085 89.7788 186.067 89.5433 186.102 89.3121C186.138 89.0808 186.227 88.8592 186.363 88.6617C186.64 88.244 187.071 87.9311 187.578 87.7796C188.085 87.6281 188.634 87.6479 189.126 87.8355C189.349 87.9333 189.546 88.0739 189.705 88.2477C189.863 88.4215 189.979 88.6245 190.045 88.843C190.111 89.0615 190.124 89.2904 190.085 89.5142C190.046 89.738 189.955 89.9514 189.818 90.1401Z" fill="#E0E0E0"/>
<path d="M189.126 89.6271L189.382 89.7358C189.344 89.7923 189.306 89.8489 189.273 89.9097L189.017 89.801C188.889 89.9848 188.711 90.1346 188.5 90.2359L188.33 90.0402C188.506 89.9579 188.658 89.8369 188.771 89.688L188.297 89.4923C188.088 89.701 187.846 89.9271 187.529 89.788C187.296 89.688 187.187 89.4401 187.363 89.0923L187.107 88.9836C187.14 88.9227 187.178 88.8661 187.216 88.8096L187.472 88.9183C187.577 88.7656 187.72 88.6375 187.889 88.5444L188.06 88.7313C187.928 88.8088 187.812 88.9075 187.718 89.0227L188.192 89.2184C188.406 89.0096 188.666 88.7835 188.974 88.9227C189.197 89.0314 189.292 89.2749 189.126 89.6271ZM188.036 89.3836L187.628 89.2097C187.557 89.3705 187.6 89.4706 187.699 89.514C187.799 89.5575 187.908 89.4923 188.026 89.3836H188.036ZM188.818 89.214C188.704 89.1662 188.59 89.2357 188.472 89.3445L188.875 89.5184C188.941 89.3532 188.908 89.2531 188.808 89.214H188.818Z" fill="#E0E0E0"/>
<path d="M175.295 34.2037C175.043 29.4597 170.417 26.1942 170.166 21.4502L176.802 19.2108C177.058 23.9548 181.679 27.2204 181.935 31.96L175.295 34.2037Z" fill="#EBEBEB"/>
<path d="M180.637 32.0252C180.609 31.7774 180.668 31.528 180.806 31.313C180.943 31.0981 181.151 30.9287 181.4 30.8294C180.599 27.1377 177.395 24.2635 176.603 20.5718C176.493 20.6163 176.373 20.6356 176.253 20.6281C176.133 20.6206 176.017 20.5865 175.914 20.5288C175.812 20.4711 175.726 20.3915 175.664 20.2967C175.603 20.202 175.567 20.095 175.56 19.9848L171.437 21.3806C171.464 21.6279 171.406 21.877 171.27 22.0919C171.133 22.3068 170.926 22.4764 170.678 22.5764C171.47 26.2681 174.674 29.1467 175.475 32.8384C175.584 32.7938 175.704 32.7744 175.823 32.7816C175.943 32.7888 176.059 32.8225 176.161 32.8798C176.263 32.9371 176.348 33.0163 176.41 33.1106C176.471 33.2049 176.506 33.3114 176.513 33.421L180.632 32.0252H180.637ZM174.262 27.2421C174.133 27.0474 174.054 26.8285 174.03 26.6018C174.007 26.3751 174.039 26.1464 174.125 25.9328C174.211 25.7192 174.349 25.5262 174.527 25.3682C174.706 25.2102 174.922 25.0912 175.157 25.0201C175.673 24.8651 176.232 24.8772 176.739 25.0545C177.246 25.2318 177.672 25.5635 177.945 25.9941C178.074 26.1884 178.154 26.4071 178.179 26.6338C178.203 26.8605 178.171 27.0893 178.085 27.3031C178 27.5169 177.862 27.7101 177.684 27.8682C177.505 28.0263 177.289 28.1453 177.053 28.2161C176.535 28.3708 175.974 28.3566 175.465 28.176C174.957 27.9954 174.532 27.6594 174.262 27.2247V27.2421Z" fill="#E0E0E0"/>
<path d="M175.228 27.1031L174.953 27.1944L174.849 27.0248L175.119 26.9291C175.012 26.752 174.971 26.5469 175.005 26.3464H175.309C175.278 26.5116 175.303 26.6816 175.38 26.8335L175.854 26.6682C175.778 26.4117 175.716 26.129 176.053 26.016C176.205 25.9764 176.367 25.9859 176.512 26.0429C176.657 26.0999 176.776 26.201 176.849 26.3291L177.124 26.2377L177.233 26.4117L176.958 26.503C177.042 26.6504 177.081 26.8154 177.072 26.9813H176.802C176.809 26.8487 176.783 26.7163 176.726 26.5943L176.252 26.7639C176.328 27.0204 176.399 27.3031 176.058 27.4161C175.902 27.4647 175.732 27.4597 175.579 27.4021C175.427 27.3446 175.302 27.2383 175.228 27.1031ZM176.176 26.5769L176.608 26.4291C176.489 26.2899 176.366 26.2551 176.257 26.2899C176.148 26.3247 176.134 26.4421 176.167 26.5769H176.176ZM175.849 27.1596C175.968 27.1204 175.968 27.0074 175.935 26.8682L175.503 27.0117C175.612 27.1596 175.735 27.1944 175.854 27.1596H175.849Z" fill="#E0E0E0"/>
<path d="M40.9676 90.3924C40.7117 85.6615 36.0902 82.3828 35.8342 77.6388L42.4702 75.3995C42.7262 80.1435 47.3477 83.4047 47.6037 88.1487L40.9676 90.3924Z" fill="#EBEBEB"/>
<path d="M46.3098 88.2138C46.2819 87.9665 46.3403 87.7175 46.4766 87.5026C46.6129 87.2877 46.8201 87.118 47.0682 87.018C46.2719 83.3263 43.0677 80.4521 42.2713 76.7561C42.1617 76.8015 42.0417 76.8217 41.9216 76.8149C41.8015 76.8082 41.6851 76.7746 41.5823 76.7172C41.4796 76.6598 41.3937 76.5803 41.332 76.4855C41.2704 76.3907 41.2348 76.2836 41.2285 76.1734L37.1047 77.5692C37.1326 77.8165 37.0742 78.0656 36.9379 78.2805C36.8016 78.4954 36.5945 78.665 36.3463 78.765C37.1427 82.4567 40.3469 85.3353 41.1432 89.027C41.2529 88.9815 41.3729 88.9613 41.493 88.9681C41.6131 88.9749 41.7295 89.0084 41.8322 89.0658C41.935 89.1232 42.0209 89.2028 42.0826 89.2975C42.1442 89.3923 42.1797 89.4994 42.186 89.6096L46.3098 88.2138ZM39.9298 83.4307C39.8011 83.236 39.722 83.0171 39.6984 82.7904C39.6748 82.5637 39.7072 82.335 39.7933 82.1214C39.8794 81.9078 40.017 81.7148 40.1957 81.5568C40.3745 81.3988 40.5898 81.2798 40.8256 81.2087C41.3409 81.0548 41.8981 81.0675 42.4044 81.2448C42.9107 81.422 43.3355 81.753 43.608 82.1827C43.7377 82.377 43.8177 82.5957 43.8422 82.8224C43.8666 83.0491 43.8347 83.2779 43.749 83.4917C43.6632 83.7055 43.5258 83.8987 43.3471 84.0568C43.1684 84.2149 42.9529 84.3339 42.7169 84.4047C42.1989 84.5583 41.639 84.5435 41.1315 84.363C40.6239 84.1824 40.1996 83.8471 39.9298 83.4133V83.4307Z" fill="#E0E0E0"/>
<path d="M40.8965 83.2916L40.6216 83.3829L40.5173 83.209L40.7875 83.1177C40.6834 82.9394 40.6452 82.7349 40.6785 82.535H40.9819C40.9483 82.7001 40.9732 82.8708 41.053 83.022L41.527 82.8568C41.4464 82.6002 41.3848 82.3176 41.726 82.2045C41.8778 82.1641 42.0401 82.1732 42.1853 82.2303C42.3305 82.2874 42.4496 82.3889 42.5224 82.5176L42.7973 82.4263L42.9016 82.6002L42.6314 82.6915C42.7168 82.8381 42.7546 83.0041 42.7404 83.1699H42.4418C42.449 83.0372 42.4231 82.9049 42.3659 82.7829L41.8919 82.9524C41.9725 83.2046 42.0389 83.4916 41.7023 83.6047C41.5493 83.6465 41.3851 83.6381 41.2381 83.581C41.0911 83.5239 40.9703 83.4215 40.8965 83.2916ZM41.8445 82.7655L42.2806 82.6176C42.2463 82.5618 42.1929 82.5179 42.1286 82.4927C42.0643 82.4676 41.9928 82.4626 41.9251 82.4785C41.8019 82.5176 41.8019 82.6176 41.8351 82.7655H41.8445ZM41.5175 83.3481C41.6407 83.309 41.6407 83.1959 41.6028 83.0525L41.1715 83.2003C41.2852 83.3481 41.4037 83.3829 41.508 83.3481H41.5175Z" fill="#E0E0E0"/>
<path d="M57.899 34.1081C56.0931 38.6826 49.841 38.5912 47.7839 42.4699C45.8594 40.9176 43.9919 39.4261 42.1291 38.0955C43.9303 33.5211 50.1871 33.6124 52.2442 29.7338C54.1639 31.3078 56.0599 32.7645 57.899 34.1081Z" fill="#EBEBEB"/>
<path d="M53.1639 30.8947C52.9222 31.3034 52.3249 31.299 51.8888 30.9425C49.6421 33.6297 45.0822 34.0733 43.0156 37.2127C43.2173 37.3767 43.3561 37.5959 43.4116 37.8378C43.4671 38.0798 43.4362 38.3317 43.3237 38.5563C44.4834 39.426 45.6621 40.3449 46.8597 41.3132C47.1014 40.9088 47.6987 40.9088 48.13 41.2653C50.3768 38.5781 54.9367 38.1346 57.008 34.9951C56.8061 34.8322 56.667 34.6138 56.6115 34.3724C56.5559 34.131 56.587 33.8797 56.6999 33.6558C55.5339 32.7862 54.3536 31.8672 53.1592 30.899L53.1639 30.8947ZM51.4812 37.4171C50.5711 37.8519 49.1112 37.6084 48.2343 36.8649C47.3574 36.1213 47.2863 35.1255 48.2343 34.6907C49.1823 34.2559 50.6043 34.4994 51.4859 35.2473C52.3676 35.9952 52.3865 36.9866 51.4812 37.4258V37.4171Z" fill="#E0E0E0"/>
<path d="M50.8885 36.6996C50.9739 36.7692 51.0544 36.8344 51.1303 36.904L50.9549 36.991L50.7132 36.7909C50.4913 36.8804 50.2482 36.9163 50.0069 36.8953L49.8837 36.6648C50.0864 36.6863 50.2917 36.6609 50.4809 36.5909L50.0496 36.23C49.894 36.2887 49.7242 36.3084 49.5576 36.287C49.391 36.2656 49.2336 36.2039 49.1016 36.1083C49.0435 36.0738 48.9966 36.0256 48.966 35.9688C48.9353 35.9119 48.9219 35.8485 48.9272 35.7853C48.9326 35.722 48.9564 35.6613 48.9963 35.6095C49.0362 35.5576 49.0905 35.5166 49.1537 35.4908L48.9072 35.2864L49.0826 35.1995L49.3243 35.3995C49.5048 35.3268 49.7009 35.2926 49.8979 35.2995L50.0259 35.5256C49.8646 35.523 49.7042 35.5466 49.5519 35.5952L49.9927 35.9648C50.1471 35.9022 50.3174 35.88 50.4847 35.9007C50.6521 35.9215 50.8099 35.9843 50.9407 36.0822C50.9974 36.1175 51.043 36.1659 51.0727 36.2226C51.1024 36.2792 51.1153 36.3421 51.11 36.4048C51.1047 36.4675 51.0814 36.5278 51.0425 36.5796C51.0037 36.6313 50.9505 36.6728 50.8885 36.6996ZM49.7699 36.0126L49.3812 35.6865C49.3557 35.7009 49.3347 35.721 49.3201 35.745C49.3055 35.769 49.2978 35.796 49.2978 35.8234C49.2978 35.8509 49.3055 35.8779 49.3201 35.9019C49.3347 35.9259 49.3557 35.946 49.3812 35.9604C49.4382 35.9941 49.5023 36.0162 49.5694 36.0252C49.6364 36.0342 49.7048 36.0299 49.7699 36.0126ZM50.6705 36.2344C50.6101 36.1968 50.541 36.1725 50.4686 36.1635C50.3963 36.1544 50.3226 36.1608 50.2534 36.1822L50.6373 36.504C50.789 36.4083 50.7843 36.3126 50.6895 36.2344H50.6705Z" fill="#E0E0E0"/>
<path d="M62.7576 98.8019C60.9564 103.376 54.6996 103.285 52.6424 107.164C50.7464 105.611 48.8504 104.12 46.9876 102.789C48.7935 98.2149 55.0456 98.3062 57.1027 94.4276C59.0272 95.9799 60.9184 97.4583 62.7576 98.8019Z" fill="#EBEBEB"/>
<path d="M58.0222 95.5886C57.7804 95.993 57.1879 95.993 56.7519 95.6365C54.5051 98.3237 49.9452 98.7672 47.8738 101.907C48.077 102.07 48.2172 102.289 48.2736 102.531C48.33 102.773 48.2995 103.025 48.1867 103.25C49.348 104.12 50.5282 105.051 51.7227 106.007C51.9597 105.603 52.557 105.603 52.993 105.959C55.2351 103.272 59.7997 102.824 61.8663 99.6891C61.6644 99.5262 61.5253 99.3077 61.4697 99.0664C61.4142 98.825 61.4452 98.5736 61.5582 98.3498C60.3985 97.4801 59.2198 96.5612 58.0222 95.593V95.5886ZM56.3395 102.111C55.4341 102.546 53.9695 102.302 53.0973 101.559C52.2252 100.815 52.1493 99.8195 53.0973 99.3847C54.0453 98.9499 55.4673 99.1934 56.3442 99.9413C57.2211 100.689 57.2448 101.681 56.3395 102.12V102.111Z" fill="#E0E0E0"/>
<path d="M55.7518 101.394L55.9935 101.598C55.9319 101.624 55.875 101.654 55.8181 101.685L55.5764 101.481C55.3535 101.572 55.1086 101.61 54.8654 101.589C54.8275 101.511 54.7848 101.437 54.7469 101.359C54.9496 101.38 55.1548 101.354 55.3441 101.285L54.908 100.924C54.7521 100.982 54.582 101.001 54.4154 100.979C54.2488 100.957 54.0916 100.894 53.96 100.798C53.9032 100.763 53.8574 100.715 53.8275 100.659C53.7977 100.602 53.7847 100.54 53.79 100.477C53.7953 100.415 53.8187 100.355 53.8578 100.303C53.8968 100.252 53.9501 100.211 54.0122 100.185L53.7704 99.9804L53.9458 99.8934L54.1876 100.093C54.3667 100.021 54.5608 99.9858 54.7564 99.9891C54.799 100.067 54.8464 100.141 54.8891 100.215C54.7275 100.214 54.567 100.239 54.4151 100.289L54.8512 100.654C55.0067 100.596 55.1765 100.576 55.3431 100.597C55.5097 100.619 55.6671 100.681 55.7992 100.776C55.8561 100.811 55.9019 100.859 55.932 100.916C55.9621 100.972 55.9755 101.035 55.9707 101.097C55.9658 101.16 55.9431 101.221 55.9046 101.273C55.8662 101.325 55.8135 101.366 55.7518 101.394ZM54.6473 100.702L54.2634 100.38C54.1307 100.476 54.1449 100.572 54.2634 100.654C54.3201 100.687 54.3836 100.708 54.4498 100.716C54.516 100.724 54.5833 100.719 54.6473 100.702ZM55.5479 100.928C55.4885 100.889 55.4193 100.863 55.3465 100.854C55.2738 100.845 55.1997 100.853 55.1308 100.876L55.5148 101.198C55.6475 101.102 55.6427 101.007 55.5479 100.928Z" fill="#E0E0E0"/>
<path d="M148.295 53.571L148.058 53.6624C148.035 53.5928 148.006 53.5232 147.978 53.4493L148.21 53.358C148.127 53.133 148.103 52.8932 148.139 52.6579L148.395 52.6883C148.363 52.8817 148.378 53.079 148.438 53.2667L148.85 53.1014C148.798 52.7927 148.755 52.4535 149.049 52.3405C149.262 52.2535 149.523 52.3753 149.703 52.7753L149.935 52.6796L150.021 52.8927L149.789 52.984C149.854 53.1706 149.88 53.3669 149.864 53.5624L149.613 53.5363C149.623 53.381 149.605 53.2254 149.561 53.0753L149.144 53.2406C149.196 53.5493 149.248 53.8928 148.959 54.0059C148.746 54.0841 148.485 53.9624 148.295 53.571ZM149.106 53.0058L149.476 52.8579C149.381 52.684 149.277 52.6318 149.187 52.671C149.096 52.7101 149.082 52.8405 149.106 53.0058ZM148.807 53.6754C148.912 53.6363 148.916 53.5015 148.888 53.3319L148.523 53.4797C148.618 53.658 148.722 53.7102 148.807 53.6754Z" fill="#E0E0E0"/>
<path d="M75.7025 48.3661C75.7309 48.4357 75.7546 48.514 75.7831 48.5879L75.565 48.6314C75.5366 48.5575 75.5129 48.4835 75.4892 48.4096C75.2528 48.4535 75.0081 48.4415 74.7782 48.3748C74.7782 48.3009 74.8114 48.227 74.8256 48.1487C75.0145 48.2076 75.2161 48.224 75.4134 48.1965C75.366 48.0661 75.3186 47.9313 75.2759 47.8008C74.9583 47.8008 74.617 47.8009 74.5175 47.5182C74.4511 47.3138 74.5886 47.0834 74.9915 46.9921C74.9678 46.9182 74.9394 46.8442 74.9157 46.766L75.1337 46.7225C75.1337 46.7964 75.1858 46.8703 75.2095 46.9442C75.402 46.9092 75.6001 46.9092 75.7926 46.9442C75.7926 47.0182 75.7926 47.0921 75.7546 47.166C75.5978 47.1417 75.4375 47.1417 75.2806 47.166C75.3233 47.3008 75.3707 47.4312 75.4181 47.566C75.7309 47.566 76.0817 47.566 76.1718 47.8356C76.2523 48.0313 76.1101 48.2661 75.7025 48.3661ZM75.1906 47.5617C75.1527 47.4443 75.11 47.3225 75.0721 47.2095C74.8872 47.266 74.8303 47.353 74.8635 47.4399C74.8967 47.5269 75.0247 47.5573 75.1906 47.5617ZM75.8494 47.9183C75.8163 47.8182 75.6788 47.8009 75.5082 47.7965C75.5508 47.9139 75.5887 48.0313 75.6314 48.1487C75.84 48.0878 75.8779 48.0009 75.84 47.9183H75.8494Z" fill="#E0E0E0"/>
<path d="M121.993 35.804L121.789 35.9475L121.671 35.7779L121.87 35.6344C121.746 35.4461 121.674 35.2325 121.661 35.0126L121.908 34.9734C121.915 35.1562 121.968 35.335 122.064 35.4952L122.425 35.243C122.311 34.9735 122.202 34.6734 122.453 34.4951C122.704 34.3169 122.927 34.4125 123.155 34.7256L123.358 34.5821L123.477 34.756L123.278 34.8952C123.376 35.0521 123.44 35.2248 123.467 35.4039L123.226 35.4431C123.202 35.3008 123.154 35.1628 123.083 35.0343L122.723 35.2909C122.837 35.5605 122.955 35.8605 122.723 36.0344C122.491 36.2084 122.249 36.117 121.993 35.804ZM122.638 35.0865L122.96 34.8647C122.837 34.7256 122.728 34.7082 122.647 34.7604C122.567 34.8126 122.586 34.943 122.638 35.0865ZM122.5 35.7735C122.586 35.7127 122.562 35.5909 122.5 35.4431L122.183 35.6648C122.316 35.8083 122.42 35.8301 122.5 35.7735Z" fill="#E0E0E0"/>
<path d="M136.877 80.7305L136.626 80.7696C136.626 80.7001 136.626 80.6305 136.626 80.5653L136.877 80.5261C136.867 80.3056 136.916 80.086 137.019 79.8869L137.256 79.9652C137.166 80.1266 137.119 80.3055 137.119 80.487L137.569 80.4218C137.607 80.1348 137.669 79.826 137.982 79.7782C138.209 79.7434 138.418 79.9 138.479 80.287L138.731 80.2522V80.4565L138.484 80.4913C138.491 80.6722 138.459 80.8524 138.389 81.0218L138.152 80.9523C138.21 80.8132 138.24 80.6661 138.242 80.5174L137.792 80.587C137.749 80.874 137.702 81.1871 137.389 81.2349C137.157 81.274 136.944 81.1175 136.877 80.7305ZM137.825 80.3826L138.223 80.3217C138.185 80.1478 138.1 80.0869 138.001 80.1C137.901 80.113 137.849 80.2304 137.821 80.3826H137.825ZM137.351 80.9262C137.46 80.9262 137.503 80.7914 137.531 80.6348L137.133 80.6914C137.162 80.8783 137.242 80.9392 137.337 80.9262H137.351Z" fill="#E0E0E0"/>
<path d="M118.5 162C169.257 162 210.404 159.796 210.404 157.078C210.404 154.359 169.257 152.155 118.5 152.155C67.7428 152.155 26.596 154.359 26.596 157.078C26.596 159.796 67.7428 162 118.5 162Z" fill="#F5F5F5"/>
<path d="M81.4897 30.1815C76.9535 27.8508 72.8013 22.8242 69.2273 21.7415C70.3571 19.59 71.681 17.529 73.1852 15.58C76.7592 18.7586 80.9114 24.3461 85.4476 24.0156C84.3148 26.167 82.9911 28.2293 81.4897 30.1815Z" fill="#6723B5"/>
<path opacity="0.5" d="M81.4897 30.1815C76.9535 27.8508 72.8013 22.8242 69.2273 21.7415C70.3571 19.59 71.681 17.529 73.1852 15.58C76.7592 18.7586 80.9114 24.3461 85.4476 24.0156C84.3148 26.167 82.9911 28.2293 81.4897 30.1815Z" fill="white"/>
<path opacity="0.2" d="M84.3717 25.3463C83.8977 25.2941 83.7413 24.8158 84.0352 24.3375C80.3759 23.6157 76.9821 19.5543 73.9674 16.7671C73.8936 16.8522 73.8005 16.9216 73.6946 16.9705C73.5887 17.0194 73.4725 17.0466 73.354 17.0503C73.2355 17.0541 73.1175 17.0342 73.0082 16.992C72.8989 16.9499 72.8008 16.8865 72.7208 16.8062C71.8286 18.0088 71.0044 19.2526 70.2513 20.5327C70.4487 20.6867 70.5758 20.9032 70.6074 21.1392C70.6391 21.3752 70.5728 21.6135 70.4219 21.8068C73.4413 23.2852 76.8304 27.0247 80.4944 29.2728C80.6706 29.096 80.9056 28.9776 81.1627 28.9359C81.4199 28.8942 81.6848 28.9316 81.9164 29.0423C82.8061 27.8481 83.6288 26.6131 84.3812 25.3419L84.3717 25.3463ZM75.8682 24.3505C74.9676 23.5809 74.759 22.3938 75.3657 21.6981C75.9725 21.0023 77.1717 21.1415 78.0723 21.9372C78.9729 22.7329 79.2288 23.8679 78.6221 24.5462C78.0154 25.2245 76.7877 25.1289 75.8682 24.3505Z" fill="black"/>
<g opacity="0.2">
<path opacity="0.2" d="M76.5555 23.9157L76.3943 24.094L76.2142 23.9418C76.2711 23.8809 76.3232 23.82 76.3801 23.7635C76.1946 23.5957 76.055 23.3901 75.9725 23.1635L76.219 23.0852C76.282 23.2731 76.3906 23.4456 76.5365 23.5896L76.8257 23.2678C76.6266 23.0156 76.4228 22.7286 76.6266 22.5069C76.8304 22.2851 77.0674 22.346 77.4229 22.6199C77.4798 22.5634 77.5319 22.5025 77.5888 22.4416L77.7642 22.5982L77.603 22.7765C77.7522 22.9139 77.8713 23.0762 77.9538 23.2548L77.7168 23.3417C77.6505 23.1974 77.5593 23.0638 77.4466 22.946L77.1527 23.2678C77.3518 23.52 77.5651 23.807 77.3613 24.0288C77.1575 24.2505 76.9205 24.2027 76.5555 23.9157ZM77.0295 23.0765L77.2855 22.7938C77.1196 22.6764 77.0011 22.6764 76.9394 22.746C76.8778 22.8156 76.9063 22.9547 77.0058 23.0939L77.0295 23.0765ZM77.0959 23.7983C77.167 23.72 77.0959 23.6026 76.9963 23.4591L76.7404 23.7418C76.892 23.8809 77.0058 23.8853 77.0722 23.8157L77.0959 23.7983Z" fill="black"/>
</g>
<path d="M120.396 48.5835C116.224 50.6446 109.911 50.9055 107.275 52.9536C105.953 50.8942 104.802 48.7458 103.834 46.5268C108.285 45.6571 115.087 45.7137 116.954 42.1524C118.276 44.2137 119.427 46.3635 120.396 48.5835Z" fill="#6723B5"/>
<path opacity="0.5" d="M120.396 48.5835C116.224 50.6446 109.911 50.9055 107.275 52.9536C105.953 50.8942 104.802 48.7458 103.834 46.5268C108.285 45.6571 115.087 45.7137 116.954 42.1524C118.276 44.2137 119.427 46.3635 120.396 48.5835Z" fill="white"/>
<path opacity="0.2" d="M117.585 43.7308C117.31 44.0612 116.827 43.9003 116.557 43.4133C114.187 45.7266 109.087 45.9788 105.228 46.6398C105.27 46.7355 105.288 46.8386 105.282 46.9416C105.276 47.0446 105.245 47.1451 105.191 47.236C105.138 47.3268 105.064 47.4058 104.973 47.4673C104.883 47.5288 104.779 47.5714 104.669 47.592C105.238 48.827 105.901 50.1227 106.716 51.5055C107.086 51.3359 107.622 51.6012 107.901 52.1012C110.613 50.688 115.443 50.2619 119.14 48.8139C119.07 48.5962 119.078 48.3636 119.164 48.1506C119.249 47.9376 119.407 47.7555 119.614 47.6312C119.05 46.4006 118.391 45.1092 117.585 43.7177V43.7308ZM112.694 49.4836C112.195 49.6098 111.664 49.5656 111.198 49.3592C110.732 49.1529 110.364 48.7984 110.162 48.3617C109.845 47.5181 110.537 46.7093 111.656 46.4876C112.774 46.2658 113.874 46.7137 114.173 47.5486C114.471 48.3834 113.793 49.2531 112.694 49.4836Z" fill="black"/>
<g opacity="0.2">
<path opacity="0.2" d="M112.66 48.7357C112.689 48.8096 112.712 48.8835 112.736 48.9574L112.518 49.0053C112.518 48.9314 112.466 48.8574 112.442 48.7835C112.205 48.8247 111.962 48.8128 111.731 48.7487C111.731 48.6705 111.764 48.5965 111.783 48.5226C111.97 48.5819 112.171 48.5969 112.366 48.5661C112.324 48.4357 112.276 48.3052 112.229 48.1704C111.916 48.1704 111.57 48.1704 111.475 47.8878C111.404 47.6877 111.541 47.4747 111.949 47.3616C111.921 47.2877 111.897 47.2138 111.868 47.1399L112.091 47.0964C112.091 47.1703 112.139 47.2442 112.167 47.3181C112.359 47.2812 112.558 47.2812 112.75 47.3181L112.707 47.5399C112.551 47.5156 112.39 47.5156 112.233 47.5399C112.281 47.6704 112.328 47.8051 112.371 47.9399C112.689 47.9399 113.035 47.9399 113.129 48.2095C113.21 48.4009 113.068 48.6183 112.66 48.7357ZM112.148 47.9312C112.105 47.8138 112.068 47.6964 112.025 47.579C111.845 47.6399 111.788 47.7269 111.816 47.8138C111.845 47.9008 111.982 47.9269 112.148 47.9312ZM112.802 48.2878C112.769 48.1921 112.636 48.1704 112.466 48.1704C112.504 48.2878 112.546 48.4052 112.584 48.5183C112.774 48.4574 112.812 48.3748 112.812 48.2878H112.802Z" fill="black"/>
</g>
<path d="M154.491 21.185C149.571 22.7069 144.731 24.5897 141.067 27.5248C139.768 25.7594 138.432 23.9635 137.214 22.0807C141.314 19.2065 146.096 17.3933 150.637 15.7409C151.936 17.5063 153.273 19.3022 154.491 21.185Z" fill="#6723B5"/>
<path opacity="0.5" d="M154.491 21.185C149.571 22.7069 144.731 24.5897 141.067 27.5248C139.768 25.7594 138.432 23.9635 137.214 22.0807C141.314 19.2065 146.096 17.3933 150.637 15.7409C151.936 17.5063 153.273 19.3022 154.491 21.185Z" fill="white"/>
<path opacity="0.2" d="M151.016 16.8671C150.765 16.952 150.49 16.9594 150.233 16.8879C149.977 16.8165 149.752 16.6703 149.594 16.4714C145.831 17.8672 141.963 19.4108 138.512 21.6241C138.641 21.8383 138.682 22.0878 138.627 22.3272C138.572 22.5665 138.425 22.7799 138.214 22.9286C138.991 24.0809 139.802 25.2027 140.612 26.3116C140.704 26.2389 140.813 26.1854 140.93 26.1548C141.047 26.1241 141.169 26.117 141.29 26.134C141.41 26.1509 141.525 26.1915 141.626 26.2529C141.728 26.3143 141.813 26.3951 141.878 26.4898C145.073 24.2287 148.988 22.6373 152.969 21.3197C152.904 21.2259 152.864 21.1193 152.852 21.0086C152.84 20.8979 152.857 20.7862 152.9 20.6825C152.944 20.5787 153.014 20.4859 153.104 20.4116C153.195 20.3372 153.303 20.2834 153.42 20.2544C152.642 19.1064 151.827 17.9846 151.021 16.8758L151.016 16.8671ZM146.39 22.5851C145.922 22.814 145.378 22.8767 144.862 22.7612C144.346 22.6457 143.895 22.3602 143.594 21.9589C143.463 21.7588 143.38 21.5355 143.35 21.3038C143.32 21.0721 143.344 20.8372 143.42 20.6146C143.496 20.3919 143.622 20.1866 143.791 20.0121C143.96 19.8376 144.167 19.6979 144.399 19.6021C144.885 19.3824 145.442 19.3323 145.965 19.4611C146.488 19.5899 146.943 19.8888 147.243 20.3022C147.371 20.4997 147.45 20.7202 147.475 20.9483C147.5 21.1765 147.471 21.407 147.39 21.624C147.309 21.841 147.178 22.0392 147.005 22.2052C146.833 22.3711 146.623 22.5007 146.39 22.5851Z" fill="black"/>
<g opacity="0.2">
<path opacity="0.2" d="M146.115 21.8024L146.262 22.0241L146.063 22.1111L145.916 21.8937C145.699 21.9866 145.458 22.0242 145.219 22.0024C145.219 21.9198 145.219 21.8328 145.196 21.7502C145.392 21.7733 145.591 21.7493 145.774 21.6806C145.689 21.5458 145.599 21.4154 145.509 21.2849C145.205 21.3545 144.873 21.4154 144.693 21.1414C144.556 20.9414 144.617 20.6805 144.973 20.4805L144.821 20.2544L145.02 20.1674L145.167 20.3848C145.347 20.3141 145.541 20.2814 145.736 20.2892C145.736 20.3674 145.76 20.4501 145.774 20.5327C145.613 20.5272 145.452 20.5493 145.3 20.5979L145.565 20.9979C145.869 20.9327 146.21 20.8718 146.395 21.1458C146.537 21.3458 146.466 21.598 146.115 21.8024ZM145.352 21.0458L145.115 20.6936C144.959 20.7936 144.935 20.8979 144.992 20.9849C145.049 21.0719 145.186 21.0762 145.352 21.0458ZM146.106 21.298C146.039 21.2023 145.902 21.2067 145.736 21.2371L145.968 21.585C146.13 21.485 146.163 21.3849 146.106 21.3067V21.298Z" fill="black"/>
</g>
<path d="M67.8669 67.5421C64.2835 64.1157 58.458 64.4374 54.8746 61.0197C56.0027 59.1296 57.1324 57.2381 58.2637 55.3452C61.8471 58.7716 67.6726 58.4542 71.256 61.8676C70.1279 63.7606 68.9982 65.6521 67.8669 67.5421Z" fill="#6723B5"/>
<path opacity="0.5" d="M67.8669 67.5421C64.2835 64.1157 58.458 64.4374 54.8746 61.0197C56.0027 59.1296 57.1324 57.2381 58.2637 55.3452C61.8471 58.7716 67.6726 58.4542 71.256 61.8676C70.1279 63.7606 68.9982 65.6521 67.8669 67.5421Z" fill="white"/>
<path opacity="0.2" d="M70.3414 62.685C70.1421 62.5156 70.007 62.2921 69.9559 62.0473C69.9047 61.8025 69.9401 61.5491 70.057 61.324C66.8149 59.0194 62.3403 58.7803 59.0981 56.4713C59.0473 56.5712 58.9707 56.6583 58.875 56.7249C58.7792 56.7916 58.6672 56.8358 58.5486 56.8538C58.4301 56.8718 58.3085 56.863 58.1945 56.8282C58.0804 56.7933 57.9773 56.7335 57.8942 56.6539L55.7849 60.1935C55.9824 60.3631 56.1159 60.586 56.1662 60.8299C56.2165 61.0738 56.1809 61.326 56.0645 61.5501C59.3067 63.8591 63.7813 64.0982 67.0234 66.4072C67.0738 66.3069 67.15 66.2195 67.2455 66.1524C67.3411 66.0853 67.453 66.0406 67.5716 66.0222C67.6902 66.0037 67.812 66.0121 67.9262 66.0467C68.0405 66.0812 68.1439 66.1407 68.2274 66.2202L70.3367 62.685H70.3414ZM62.0938 62.9024C61.8576 62.8325 61.6415 62.7146 61.4617 62.5576C61.2819 62.4006 61.1429 62.2084 61.0551 61.9954C60.9672 61.7825 60.9327 61.5541 60.9542 61.3272C60.9756 61.1003 61.0525 60.8807 61.179 60.6848C61.4584 60.2557 61.8905 59.928 62.4025 59.757C62.9144 59.5859 63.475 59.5819 63.9898 59.7456C64.2262 59.814 64.4427 59.9305 64.623 60.0865C64.8034 60.2425 64.943 60.4338 65.0314 60.6462C65.1199 60.8586 65.1548 61.0866 65.1337 61.3132C65.1126 61.5397 65.0359 61.759 64.9094 61.9545C64.6312 62.3861 64.1989 62.7163 63.6858 62.889C63.1727 63.0618 62.6103 63.0665 62.0938 62.9024Z" fill="black"/>
<g opacity="0.2">
<path opacity="0.2" d="M62.7339 62.2285C62.6913 62.3068 62.6438 62.3851 62.5964 62.4633L62.3926 62.3938L62.5301 62.1633C62.3229 62.0918 62.1467 61.9606 62.0276 61.7894L62.2646 61.6154C62.3604 61.7576 62.5009 61.8698 62.6676 61.9372C62.7481 61.7981 62.8335 61.6589 62.9188 61.5024C62.677 61.3545 62.4448 61.1806 62.6012 60.8893C62.6868 60.7675 62.816 60.677 62.9666 60.6333C63.1172 60.5897 63.2796 60.5956 63.4259 60.6501L63.5681 60.4109L63.772 60.4805L63.6298 60.711C63.7993 60.771 63.9471 60.8735 64.0564 61.0067L63.8289 61.1806C63.7388 61.0784 63.6255 60.9953 63.4971 60.9371L63.2458 61.3719C63.4876 61.5198 63.7198 61.6937 63.5681 61.985C63.481 62.1076 63.3504 62.1988 63.1983 62.2432C63.0463 62.2875 62.8823 62.2824 62.7339 62.2285ZM63.0657 61.2676L63.2885 60.8936C63.0989 60.8588 62.9804 60.8936 62.9282 61.0023C62.8761 61.111 62.9472 61.1806 63.0657 61.2676ZM63.2411 61.9024C63.3027 61.7981 63.2411 61.7154 63.0941 61.6285L62.8714 61.9981C63.0657 62.0372 63.1842 61.9894 63.2411 61.9024Z" fill="black"/>
</g>
<path d="M185.111 50.1098C181.727 53.858 175.896 51.8491 172.512 54.8451C171.275 52.7884 170.038 50.8099 168.801 48.9749C172.185 45.2267 178.015 47.2356 181.4 44.2396C182.637 46.2964 183.874 48.2661 185.111 50.1098Z" fill="#6723B5"/>
<path opacity="0.5" d="M185.111 50.1098C181.727 53.858 175.896 51.8491 172.512 54.8451C171.275 52.7884 170.038 50.8099 168.801 48.9749C172.185 45.2267 178.015 47.2356 181.4 44.2396C182.637 46.2964 183.874 48.2661 185.111 50.1098Z" fill="white"/>
<path opacity="0.2" d="M181.835 45.618C181.461 45.9267 180.887 45.7398 180.622 45.2658C177.517 47.1008 173.062 46.105 169.962 48.4183C170.091 48.6354 170.141 48.8846 170.104 49.1296C170.067 49.3745 169.946 49.6022 169.758 49.7793C170.526 50.9664 171.298 52.2013 172.071 53.471C172.445 53.1623 173.019 53.3493 173.284 53.8189C176.384 51.9839 180.84 52.9797 183.945 50.6707C183.814 50.4547 183.764 50.2058 183.801 49.9613C183.837 49.7168 183.959 49.4897 184.148 49.3141C183.376 48.1313 182.603 46.8921 181.835 45.6224V45.618ZM177.849 51.2447C176.835 51.3708 175.569 50.6968 175.005 49.7185C174.441 48.7401 174.777 47.7878 175.787 47.6574C176.797 47.5269 178.072 48.2096 178.631 49.188C179.19 50.1663 178.863 51.1143 177.849 51.2447Z" fill="black"/>
<g opacity="0.2">
<path opacity="0.2" d="M177.56 50.3794L177.712 50.6446L177.518 50.6707L177.361 50.4055C177.119 50.424 176.875 50.3835 176.655 50.2881L176.626 50.0315C176.809 50.1149 177.011 50.1553 177.214 50.1489L176.944 49.675C176.778 49.6798 176.614 49.6446 176.467 49.5728C176.321 49.5011 176.198 49.3954 176.11 49.2662C176.069 49.2159 176.044 49.1565 176.036 49.0942C176.029 49.0319 176.04 48.9689 176.068 48.9117C176.096 48.8546 176.14 48.8053 176.196 48.769C176.251 48.7327 176.317 48.7107 176.385 48.7053L176.228 48.4357L176.427 48.4096L176.579 48.6749C176.776 48.6621 176.973 48.6888 177.157 48.7531C177.157 48.8401 177.181 48.9227 177.195 49.0053C177.044 48.9532 176.883 48.9281 176.721 48.9314L177.001 49.4097C177.166 49.4044 177.33 49.439 177.477 49.5099C177.623 49.5809 177.747 49.6857 177.835 49.8141C177.876 49.8648 177.901 49.9244 177.908 49.9869C177.915 50.0494 177.904 50.1125 177.876 50.1699C177.849 50.2273 177.805 50.2769 177.749 50.3136C177.694 50.3504 177.628 50.3731 177.56 50.3794ZM176.802 49.388L176.555 48.9531C176.399 49.0053 176.375 49.101 176.437 49.2053C176.477 49.261 176.531 49.3068 176.594 49.3386C176.658 49.3705 176.729 49.3874 176.802 49.388ZM177.57 49.875C177.527 49.8208 177.47 49.7764 177.405 49.7455C177.34 49.7146 177.268 49.6979 177.195 49.6967L177.437 50.1315C177.574 50.0707 177.603 49.9793 177.546 49.875H177.57Z" fill="black"/>
</g>
<path d="M164.478 79.3651C150.947 103.304 132.998 124.913 111.428 143.233L78.2906 120.065C99.8758 101.749 117.838 80.1403 131.379 56.1974L164.478 79.3651Z" fill="#6723B5"/>
<path opacity="0.2" d="M164.478 79.3651C163.366 81.3392 162.219 83.2959 161.037 85.2353C147.955 106.857 131.21 126.434 111.428 143.233L78.2906 120.065C99.8758 101.749 117.838 80.1403 131.379 56.1974L164.478 79.3651Z" fill="white"/>
<path opacity="0.2" d="M136.559 62.3851C136.244 62.9706 135.788 63.4834 135.227 63.8853C134.666 64.2873 134.013 64.568 133.317 64.7067C132.621 64.8454 131.9 64.8385 131.208 64.6865C130.515 64.5345 129.869 64.2413 129.317 63.8287C117.568 83.1135 102.895 100.771 85.7372 116.273C86.3206 116.649 86.8035 117.142 87.1494 117.714C87.4953 118.286 87.6951 118.922 87.7339 119.575C87.7727 120.229 87.6494 120.881 87.3733 121.484C87.0972 122.087 86.6756 122.625 86.14 123.057L106.792 137.497C107.953 136.527 109.441 135.951 111.009 135.864C112.577 135.777 114.13 136.184 115.41 137.019C132.569 121.518 147.242 103.86 158.989 84.5744C156.501 82.8351 155.737 79.3826 157.212 76.8258L157.235 76.7866L136.578 62.3459L136.559 62.3851ZM132.767 108.273C128.866 112.956 121.354 113.708 116.267 110.151C111.181 106.594 110.423 100.063 114.329 95.3669C118.235 90.6707 125.311 89.6271 130.407 93.1927C135.502 96.7583 136.697 103.59 132.786 108.273H132.767Z" fill="black"/>
<g opacity="0.2">
<path opacity="0.2" d="M129.222 104.359L130.592 105.316L129.824 106.238L128.454 105.277C127.463 106.329 126.169 107.112 125.136 107.303L124.33 105.942C125.417 105.672 126.396 105.121 127.15 104.355L124.705 102.646C123.339 103.663 121.761 104.681 120.064 103.489C118.817 102.62 118.443 101.041 119.723 99.1629L118.343 98.1976C118.599 97.8932 118.855 97.5845 119.107 97.2758L120.462 98.2237C121.165 97.444 122.065 96.8334 123.083 96.4453L123.941 97.7758C123.127 98.0902 122.392 98.5567 121.785 99.1456L124.25 100.885C125.615 99.863 127.15 98.7846 128.847 99.9717C130.089 100.828 130.487 102.437 129.222 104.359ZM123.24 101.615L121.064 100.093C120.533 100.985 120.685 101.628 121.225 102.002C121.766 102.376 122.477 102.12 123.24 101.615ZM127.79 101.489C127.193 101.054 126.506 101.372 125.738 101.924L127.899 103.437C128.454 102.498 128.307 101.859 127.781 101.489H127.79Z" fill="black"/>
</g>
<path opacity="0.2" d="M161.051 85.2266C147.966 106.852 131.215 126.432 111.428 143.233C111.428 143.233 97.388 123.583 91.5626 119.93C91.5626 119.93 136.792 104.533 161.051 85.2266Z" fill="black"/>
<path d="M196.122 111.347C174.079 129.19 148.834 143.397 121.505 153.338L99.7014 120.761C127.029 110.821 152.273 96.614 174.314 78.7694C181.588 89.6314 188.858 100.491 196.122 111.347Z" fill="#6723B5"/>
<path opacity="0.3" d="M196.122 111.347C174.079 129.19 148.833 143.397 121.505 153.338L112.087 139.258C107.979 133.098 103.856 126.934 99.72 120.765C127.047 110.826 152.291 96.6184 174.332 78.7737C181.594 89.6329 188.857 100.491 196.122 111.347Z" fill="white"/>
<path opacity="0.2" d="M176.75 86.2615C176.229 86.7079 175.604 87.0399 174.923 87.2326C174.241 87.4253 173.521 87.4736 172.817 87.374C172.112 87.2744 171.441 87.0293 170.855 86.6574C170.268 86.2854 169.782 85.7962 169.431 85.2266C150.885 99.321 130.253 110.931 108.152 119.709C108.549 120.252 108.806 120.871 108.904 121.519C109.001 122.167 108.937 122.827 108.716 123.449C108.495 124.071 108.123 124.638 107.628 125.109C107.133 125.58 106.528 125.941 105.858 126.166L119.448 146.455C120.912 145.935 122.527 145.89 124.023 146.328C125.519 146.767 126.807 147.661 127.672 148.864C149.774 140.089 170.407 128.479 188.95 114.382C187.31 111.938 187.96 108.464 190.339 106.555L190.377 106.525L176.802 86.2311L176.75 86.2615ZM155.183 127.805C149.699 130.884 142.385 129.11 139.067 124.096C135.749 119.082 137.588 112.751 143.072 109.677C148.556 106.603 155.571 107.938 158.923 112.969C162.274 118 160.686 124.735 155.183 127.805Z" fill="black"/>
<g opacity="0.2">
<path opacity="0.2" d="M153.401 122.965L154.301 124.313L153.221 124.918C152.927 124.483 152.628 124.048 152.33 123.587C150.993 124.235 149.486 124.54 148.428 124.374C148.357 123.861 148.286 123.348 148.21 122.835C149.329 122.943 150.458 122.752 151.462 122.287C150.928 121.487 150.394 120.687 149.86 119.887C148.182 120.383 146.314 120.804 145.196 119.135C144.376 117.908 144.646 116.313 146.58 114.986L145.675 113.63L146.751 113.021L147.642 114.356C148.604 113.862 149.682 113.59 150.784 113.564C150.879 114.073 150.969 114.582 151.064 115.086C150.179 115.114 149.31 115.306 148.509 115.652L150.13 118.078C151.808 117.578 153.661 117.082 154.775 118.748C155.595 119.974 155.33 121.604 153.401 122.965ZM148.888 118.435C148.411 117.721 147.937 117.008 147.466 116.295C146.618 116.952 146.518 117.6 146.864 118.13C147.21 118.661 147.988 118.656 148.888 118.435ZM153.178 119.826C152.785 119.235 152.026 119.291 151.102 119.53L152.524 121.657C153.396 120.983 153.524 120.339 153.178 119.826Z" fill="black"/>
</g>
<path opacity="0.2" d="M196.122 111.347C174.079 129.19 148.833 143.397 121.505 153.338L112.087 139.259L110.442 117.443C110.442 117.443 162.724 120.904 196.122 111.347Z" fill="black"/>
<path d="M202.446 153.569C173.831 159.753 144.266 161.347 115.059 158.278C114.25 145.561 113.438 132.842 112.623 120.122C141.835 123.197 171.408 121.604 200.028 115.413C200.828 128.133 201.633 140.852 202.446 153.569Z" fill="#6723B5"/>
<path opacity="0.4" d="M202.446 153.569C173.831 159.753 144.266 161.347 115.059 158.278C114.25 145.561 113.438 132.842 112.623 120.122C141.835 123.197 171.408 121.604 200.028 115.413C200.828 128.133 201.633 140.852 202.446 153.569Z" fill="white"/>
<path opacity="0.2" d="M198.283 123.057C197.593 123.218 196.873 123.235 196.175 123.106C195.477 122.977 194.82 122.706 194.252 122.312C193.684 121.918 193.22 121.412 192.895 120.831C192.569 120.25 192.391 119.609 192.372 118.956C168.77 123.348 144.608 124.644 120.609 122.805C120.678 123.456 120.586 124.112 120.338 124.726C120.091 125.339 119.694 125.893 119.18 126.346C118.665 126.798 118.045 127.138 117.366 127.339C116.688 127.539 115.968 127.596 115.262 127.505C115.771 135.433 116.277 143.362 116.779 151.29C118.338 151.464 119.785 152.123 120.879 153.157C121.973 154.192 122.647 155.538 122.789 156.973C146.788 158.813 170.951 157.517 194.553 153.125C194.368 150.26 196.729 147.472 199.805 146.838H199.852L198.331 123.057H198.283ZM157.889 150.342C151.471 150.677 145.954 145.942 145.565 140.085C145.176 134.228 150.101 129.444 156.519 129.11C162.937 128.775 168.421 133.023 168.796 138.88C169.17 144.737 164.302 150.016 157.889 150.342Z" fill="black"/>
<g opacity="0.2">
<path opacity="0.2" d="M158.79 145.303L158.889 146.877L157.629 146.946L157.529 145.385C156.165 145.42 154.823 145.073 153.68 144.39C153.884 143.907 154.083 143.424 154.282 142.942C155.214 143.519 156.306 143.84 157.429 143.868C157.373 142.929 157.313 141.991 157.249 141.054C155.519 140.763 153.652 140.328 153.528 138.372C153.438 136.937 154.5 135.649 156.884 135.328L156.785 133.741L158.046 133.671L158.145 135.232C159.248 135.208 160.339 135.437 161.321 135.897L160.781 137.358C159.988 136.998 159.123 136.791 158.24 136.75L158.425 139.593C160.155 139.876 162.046 140.241 162.174 142.202C162.283 143.616 161.212 144.942 158.79 145.303ZM157.145 139.35C157.088 138.518 157.034 137.684 156.984 136.85C155.898 137.058 155.472 137.584 155.51 138.206C155.548 138.828 156.254 139.146 157.164 139.35H157.145ZM160.212 142.437C160.169 141.75 159.472 141.468 158.534 141.281L158.69 143.772C159.823 143.55 160.269 143.059 160.212 142.437Z" fill="black"/>
</g>
<path d="M134.351 153.608C134.474 154.909 134.621 156.233 134.792 157.578H35.1093C38.2282 133.406 35.1093 122.926 35.1093 122.926C68.422 120.626 134.792 122.926 134.792 122.926C134.792 122.926 132.786 134.571 134.137 151.247C134.201 152.021 134.272 152.808 134.351 153.608Z" fill="#6723B5"/>
<path opacity="0.2" d="M134.792 122.926C130.426 124.796 109.072 125.061 96.7862 124.361C84.5001 123.661 68.422 125.796 68.422 125.796C59.1127 122.848 35.1093 122.926 35.1093 122.926C68.422 120.626 134.792 122.926 134.792 122.926Z" fill="white"/>
<path opacity="0.2" d="M35.1093 157.578C38.2282 133.406 35.1093 122.926 35.1093 122.926C35.1093 122.926 54.8704 122.531 68.422 125.796C68.422 125.796 68.896 129.484 68.422 131.379C68.422 131.379 84.7229 128.953 99.232 129.275C99.232 129.275 76.7739 131.645 68.422 133.406C68.422 133.406 54.9889 131.484 46.4901 131.379C46.4901 131.379 64.1608 133.488 68.422 134.749C68.422 134.749 73.4749 133.906 76.1198 133.906C76.1198 133.906 69.7919 134.962 68.422 135.906V142.585C68.422 142.585 54.3158 142.841 47.239 141.915C50.5996 142.398 64.303 144.333 68.422 144.333C68.422 144.333 83.9882 143.807 93.0274 144.333C93.0274 144.333 72.4321 145.42 68.422 146.298H50.7418L68.422 147.659V149.012H76.006L68.422 150.212C68.422 150.212 46.4901 148.933 40.1811 150.212C40.1811 150.212 66.0663 151.29 68.3936 152.129L68.422 154.13C68.422 154.13 97.4498 150.612 123.122 153.638C123.122 153.638 85.633 152.273 68.422 156.099C68.422 156.099 122.273 155.025 134.782 157.578H35.1093Z" fill="black"/>
<path d="M35.6923 125.796L33.0616 126.64C33.0616 126.64 48.9074 127.14 59.1316 128.575C59.1221 128.575 43.3711 126.005 35.6923 125.796Z" fill="#6723B5"/>
<path opacity="0.2" d="M70.7302 128.575L74.7402 129.275C74.7402 129.275 93.4111 127.414 115.481 127.188C115.481 127.188 83.604 125.77 70.7302 128.575Z" fill="white"/>
<path opacity="0.2" d="M83.3814 132.51C83.3814 132.51 94.5773 129.71 104.394 129.849C114.21 129.988 132.895 128.575 132.895 128.575L133.63 129.849C133.63 129.849 118.979 130.636 106.887 130.545C99.0038 130.558 91.1375 131.216 83.3814 132.51Z" fill="white"/>
<path opacity="0.2" d="M72.2707 136.697C72.2707 136.697 85.6185 134.088 98.7057 134.328C111.793 134.567 128.274 135.506 128.274 135.506C128.274 135.506 92.5058 135.506 83.3813 137.245L72.2707 136.697Z" fill="white"/>
<path d="M95.3592 132.906C95.3592 132.906 106.854 132.036 116.775 132.51C126.695 132.984 137.114 133.41 137.114 133.41L133.63 134.314C133.63 134.314 109.745 132.119 95.3592 132.906Z" fill="#6723B5"/>
<path opacity="0.2" d="M95.3592 132.906C95.3592 132.906 106.854 132.036 116.775 132.51C126.695 132.984 137.114 133.41 137.114 133.41L133.63 134.314C133.63 134.314 109.745 132.119 95.3592 132.906Z" fill="black"/>
<path opacity="0.2" d="M72.7019 138.911C72.7019 138.911 92.6099 138.684 102.199 138.245C111.788 137.806 124.648 140.246 124.648 140.246C124.648 140.246 108.783 139.937 103.872 140.65L72.7019 138.911Z" fill="black"/>
<path opacity="0.2" d="M70.7302 141.676L83.3812 140.65L110.333 141.676L83.0352 142.702L70.7302 141.676Z" fill="white"/>
<path opacity="0.2" d="M80.1914 147.125C80.1914 147.125 98.5874 145.55 105.754 145.468C112.921 145.385 132.208 144.202 132.208 144.202L130.066 146.811C130.066 146.811 93.7999 146.103 80.1914 147.125Z" fill="white"/>
<path d="M126.838 138.245L133.63 138.832L135.479 138.245C132.605 137.999 129.712 137.999 126.838 138.245Z" fill="#6723B5"/>
<path d="M134.488 125.092L137.114 125.479L134.294 126.831L117.704 126.509C117.704 126.509 130.142 126.357 134.488 125.092Z" fill="#6723B5"/>
<path opacity="0.2" d="M126.838 138.245L133.63 138.832L135.479 138.245C132.605 137.999 129.712 137.999 126.838 138.245Z" fill="white"/>
<path opacity="0.2" d="M134.488 125.092L137.114 125.479L134.294 126.831L117.704 126.509C117.704 126.509 130.142 126.357 134.488 125.092Z" fill="black"/>
<path opacity="0.2" d="M134.35 153.608C129.895 153.343 98.6725 149.742 98.6725 149.742C100.753 149.521 128.008 150.999 134.137 151.247C134.2 152.021 134.271 152.808 134.35 153.608Z" fill="black"/>
<path d="M87.3392 149.251C87.3392 149.251 116.533 149.181 124.885 149.733C133.237 150.286 133.986 149.251 133.986 149.251L138.147 151.09C138.147 151.09 138.361 152.916 127.406 151.642C116.452 150.368 87.3392 149.251 87.3392 149.251Z" fill="#6723B5"/>
<path d="M63.4877 135.784C63.4877 135.784 46.3906 133.297 36.4223 133.932C37.9205 134.244 39.3162 134.879 40.494 135.784H63.4877Z" fill="#6723B5"/>
<path d="M36.4031 142.585C36.7918 142.546 49.2011 144.046 53.9411 144.202L34.6493 144.916L36.4031 142.585Z" fill="#6723B5"/>
<path d="M35.7017 152.421L54.4437 153.029L33.0616 154.482L35.7017 152.421Z" fill="#6723B5"/>
<path d="M69.8487 121.752C69.8487 121.752 96.4685 125.927 111.907 109.216L140.991 116.065C140.991 116.065 135.64 126.248 95.4447 124.896C55.2495 123.544 69.8487 121.752 69.8487 121.752Z" fill="#6723B5"/>
<path opacity="0.5" d="M69.8487 121.752C69.8487 121.752 96.4685 125.927 111.907 109.216L140.991 116.065C140.991 116.065 135.64 126.248 95.4447 124.896C55.2495 123.544 69.8487 121.752 69.8487 121.752Z" fill="white"/>
<path opacity="0.2" d="M85.0499 122.652C85.0499 122.652 101.322 121.865 110.523 112.316C111.367 112.556 112.271 112.558 113.116 112.32C113.961 112.083 114.709 111.618 115.263 110.986L136.493 116.147C136.493 116.147 134.208 116.882 135.01 119.309C134.991 119.309 107.124 129.666 85.0499 122.652Z" fill="black"/>
<path d="M109.338 74.2211L109.835 71.7991C109.835 71.7991 108.807 70.9033 108.925 70.0598C109.044 69.2162 113.623 67.8856 114.433 67.8117C115.244 67.7378 114.936 70.7816 114.689 71.3338C114.443 71.886 111.693 72.5513 111.693 72.5513L111.347 75.1038L109.338 74.2211Z" fill="#EBB376"/>
<path d="M56.548 86.1267L54.7326 84.3091C54.7326 84.3091 55.0881 83.0525 54.5098 82.4089C53.9315 81.7654 49.2626 82.822 48.5422 83.1655C47.8217 83.509 49.822 85.931 50.3528 86.2789C50.8837 86.6268 53.595 85.8441 53.595 85.8441L55.3583 87.8486L56.548 86.1267Z" fill="#EBB376"/>
<path d="M92.6531 82.222C97.7581 81.9611 102.384 82.9395 104.759 82.222C107.134 81.5045 109.437 72.4427 109.437 72.4427L111.935 73.2167C111.935 73.2167 110.987 82.6481 106.883 85.1745C102.778 87.7008 93.2646 87.6791 93.2646 87.6791L92.6531 82.222Z" fill="#6723B5"/>
<path opacity="0.7" d="M111.935 73.2167C111.935 73.2167 110.987 82.6481 106.883 85.1745C104.513 86.6094 100.45 87.2225 97.3647 87.4878C95.0279 87.6835 93.2646 87.6791 93.2646 87.6791L92.9802 85.131L92.6531 82.222C97.7581 81.9611 102.384 82.9395 104.759 82.222C107.134 81.5045 109.437 72.4427 109.437 72.4427L111.935 73.2167Z" fill="white"/>
<path opacity="0.2" d="M97.3644 87.4878C95.0275 87.6835 93.2643 87.6791 93.2643 87.6791L92.9799 85.131C94.5688 85.6975 96.0489 86.4931 97.3644 87.4878Z" fill="black"/>
<path d="M125.288 155.473L128.591 154.643L127.999 147.242L124.7 148.077L125.288 155.473Z" fill="#B97964"/>
<path d="M128.795 154.238L124.956 154.482C124.891 154.484 124.83 154.509 124.786 154.553C124.741 154.596 124.717 154.653 124.719 154.712L124.742 157.508C124.753 157.654 124.827 157.791 124.946 157.888C125.066 157.984 125.223 158.034 125.382 158.026C126.719 157.921 127.354 157.808 129.041 157.691C130.547 157.644 132.047 157.498 133.53 157.256C134.952 156.956 134.573 155.695 133.947 155.708C132.331 155.628 130.765 155.165 129.402 154.364C129.22 154.263 129.007 154.219 128.795 154.238Z" fill="#263238"/>
<path d="M130.047 154.695C129.739 154.708 129.431 154.691 129.127 154.643C129.112 154.641 129.097 154.635 129.085 154.626C129.074 154.616 129.065 154.604 129.061 154.591C129.058 154.577 129.059 154.563 129.063 154.549C129.067 154.536 129.075 154.523 129.084 154.512C129.189 154.434 130.113 153.769 130.544 153.891C130.593 153.905 130.637 153.93 130.672 153.965C130.706 153.999 130.731 154.041 130.743 154.086C130.776 154.154 130.788 154.228 130.776 154.302C130.764 154.375 130.73 154.443 130.677 154.499C130.499 154.632 130.276 154.702 130.047 154.695ZM130.497 154.043C130.269 153.977 129.719 154.278 129.34 154.534C129.961 154.604 130.407 154.56 130.558 154.404C130.589 154.366 130.608 154.322 130.615 154.276C130.622 154.229 130.615 154.182 130.596 154.138C130.589 154.117 130.576 154.097 130.559 154.08C130.541 154.064 130.52 154.051 130.497 154.043Z" fill="#263238"/>
<path d="M129.141 154.643C129.136 154.645 129.13 154.646 129.125 154.646C129.119 154.646 129.113 154.645 129.108 154.643C129.097 154.637 129.087 154.63 129.079 154.621C129.07 154.612 129.064 154.602 129.061 154.591C129.061 154.56 128.914 153.656 129.231 153.325C129.274 153.284 129.325 153.252 129.382 153.231C129.44 153.21 129.501 153.2 129.563 153.204C129.631 153.202 129.698 153.22 129.754 153.256C129.809 153.292 129.851 153.344 129.871 153.404C129.971 153.743 129.511 154.43 129.189 154.634C129.182 154.639 129.174 154.642 129.166 154.643C129.158 154.645 129.149 154.645 129.141 154.643ZM129.52 153.364C129.488 153.366 129.457 153.373 129.428 153.387C129.399 153.4 129.374 153.419 129.355 153.443C129.188 153.754 129.136 154.107 129.208 154.447C129.503 154.187 129.684 153.835 129.715 153.46C129.715 153.417 129.672 153.369 129.558 153.364H129.52Z" fill="#263238"/>
<path opacity="0.2" d="M124.7 148.077L128.004 147.246L128.34 151.477L125.018 152.156L124.7 148.077Z" fill="black"/>
<path d="M120.964 155.365L117.841 156.673L117.049 153.595L115.983 149.455L119.092 148.146L120.163 152.282L120.964 155.365Z" fill="#B97964"/>
<path opacity="0.2" d="M120.163 152.282L117.049 153.595L115.983 149.455L119.092 148.146L120.163 152.282Z" fill="black"/>
<path d="M121.093 154.938L117.348 155.743C117.285 155.753 117.23 155.786 117.193 155.834C117.157 155.883 117.143 155.942 117.154 155.999L117.666 158.761C117.681 158.833 117.712 158.901 117.756 158.962C117.801 159.023 117.858 159.075 117.924 159.116C117.991 159.156 118.066 159.184 118.144 159.198C118.223 159.211 118.303 159.211 118.382 159.195C119.685 158.895 120.278 158.691 121.937 158.326C123.416 158.068 124.873 157.714 126.297 157.265C127.629 156.765 127.056 155.573 126.444 155.678C124.994 155.917 122.823 155.482 121.704 155.008C121.515 154.923 121.299 154.899 121.093 154.938Z" fill="#263238"/>
<path d="M122.41 155.208C122.108 155.265 121.799 155.291 121.491 155.286C121.475 155.288 121.459 155.286 121.446 155.279C121.432 155.272 121.421 155.261 121.415 155.247C121.408 155.235 121.404 155.222 121.404 155.208C121.404 155.194 121.408 155.181 121.415 155.169C121.505 155.078 122.297 154.299 122.747 154.338C122.797 154.346 122.844 154.366 122.884 154.394C122.923 154.423 122.955 154.461 122.974 154.504C123.021 154.568 123.046 154.644 123.046 154.721C123.046 154.798 123.021 154.874 122.974 154.938C122.826 155.085 122.627 155.18 122.41 155.208ZM122.742 154.499C122.5 154.464 122.012 154.843 121.68 155.152C122.306 155.13 122.742 155.021 122.861 154.847C122.887 154.806 122.902 154.76 122.902 154.712C122.902 154.665 122.887 154.618 122.861 154.578C122.852 154.557 122.837 154.538 122.818 154.524C122.799 154.511 122.776 154.502 122.752 154.499H122.742Z" fill="#263238"/>
<path d="M121.505 155.286C121.501 155.288 121.496 155.289 121.491 155.289C121.486 155.289 121.481 155.288 121.477 155.286C121.464 155.283 121.452 155.277 121.443 155.268C121.433 155.26 121.425 155.25 121.42 155.239C121.42 155.212 121.107 154.334 121.368 153.964C121.402 153.917 121.446 153.878 121.499 153.849C121.551 153.819 121.61 153.801 121.671 153.795C121.739 153.782 121.81 153.79 121.871 153.819C121.933 153.847 121.983 153.894 122.012 153.951C122.169 154.269 121.837 155.017 121.538 155.256C121.537 155.263 121.533 155.27 121.527 155.276C121.521 155.281 121.513 155.285 121.505 155.286ZM121.657 153.982C121.594 153.996 121.54 154.032 121.505 154.082C121.397 154.415 121.407 154.772 121.534 155.099C121.781 154.799 121.901 154.427 121.87 154.051C121.87 154.008 121.809 153.964 121.695 153.977L121.657 153.982Z" fill="#263238"/>
<path d="M97.8194 113.338L96.8098 103.111L78.1958 103.511C78.1958 103.511 75.9917 117.761 77.5938 120.378C80.4378 125.053 99.2177 122.4 103.607 122.796C105.399 123.666 114.983 152.83 114.983 152.83L120.353 150.842C120.353 150.842 114.58 126.235 113.243 121.6C111.437 115.156 103.986 115.269 97.8194 113.338Z" fill="#263238"/>
<path d="M128.667 150.338L123.927 150.738C123.927 150.738 118.121 123.609 117.67 123.492C116.865 123.279 114.509 123.035 113.243 122.731C104.455 120.635 82.8125 116.778 82.8125 116.778L90.7947 109.725C90.7947 109.725 126.98 113.708 127.767 121.5C128.17 125.231 128.667 150.338 128.667 150.338Z" fill="#263238"/>
<path opacity="0.2" d="M116.396 123.513C115.585 123.3 114.5 123.039 113.243 122.735C113.594 122.905 112.58 118.682 111.566 117.591C109.551 115.417 101.465 114.234 98.5684 113.808C96.1416 113.451 88.0077 112.795 88.0077 112.795C88.0077 112.795 102.37 111.656 113.191 114.382C118.543 115.73 117.59 120.522 116.396 123.513Z" fill="black"/>
<path d="M75.7121 84.7048C75.7121 84.7048 82.5803 81.361 92.6528 82.222C92.6528 82.222 96.1462 90.3707 96.8098 103.094L78.0821 104.285C78.0821 104.285 78.4186 93.3797 75.7121 84.7048Z" fill="#6723B5"/>
<path opacity="0.7" d="M78.0821 104.303C78.13 101.333 78.0098 98.3638 77.7218 95.406C77.5559 93.6667 77.3189 91.836 76.9776 89.9706C76.6641 88.1949 76.2415 86.4369 75.7121 84.7048C75.7121 84.7048 82.5803 81.361 92.6528 82.222C92.6528 82.222 96.1462 90.3707 96.8098 103.094L78.0821 104.303Z" fill="white"/>
<path opacity="0.2" d="M77.736 95.406C77.5701 93.6667 77.3331 91.8361 76.9918 89.9707C77.3244 89.6606 77.7251 89.4189 78.1673 89.2619L78.191 89.0706C78.1768 89.2793 79.158 92.4927 77.736 95.406Z" fill="black"/>
<path d="M80.9023 83.5221C82.6182 84.9527 86.8178 84.4222 86.8178 84.4222C86.8178 84.4222 89.4391 83.7656 88.8892 83.0134C87.344 82.7786 86.5998 82.1176 86.287 81.2741C86.121 80.7478 86.0678 80.197 86.1305 79.6521C86.1305 79.3565 86.2064 79.0521 86.2633 78.7521L81.054 75.2256C81.7508 77.5519 82.585 81.835 80.9023 83.5221Z" fill="#EBB376"/>
<path opacity="0.2" d="M82.2674 77.4649C82.476 80.3217 85.0356 81.1131 86.2869 81.274C86.1209 80.7477 86.0678 80.1969 86.1305 79.6521L82.2674 77.4649Z" fill="black"/>
<path d="M85.562 65.4246C87.4912 65.9029 89.098 69.9859 87.6523 72.6862C86.2066 75.3865 81.8506 67.8335 81.8506 67.8335C81.8506 67.8335 84.3154 65.1202 85.562 65.4246Z" fill="#263238"/>
<path d="M89.586 74.7908C89.5955 74.9559 89.5955 75.1214 89.586 75.2865C89.5528 76.4649 89.0346 77.5881 88.1356 78.4303C87.3321 79.198 86.2453 79.6632 85.0878 79.7348C84.2643 79.7722 83.4452 79.6039 82.7178 79.2478C80.4141 78.1737 79.7932 76.3127 78.4518 73.2428C78.1177 72.5284 77.9904 71.747 78.0822 70.9743C78.174 70.2016 78.4817 69.4637 78.9757 68.8321C79.4696 68.2005 80.133 67.6967 80.9015 67.3694C81.6701 67.0421 82.5177 66.9024 83.3624 66.9638C87.1544 67.2204 89.2922 71.747 89.586 74.7908Z" fill="#EBB376"/>
<path d="M83.9549 72.5253C84.026 72.7818 84.263 72.9601 84.4289 72.8862C84.5948 72.8123 84.6849 72.5774 84.5948 72.3252C84.5047 72.073 84.2772 71.8904 84.1208 71.9643C83.9644 72.0383 83.8648 72.2644 83.9549 72.5253Z" fill="#263238"/>
<path d="M87.0972 71.5774C87.1683 71.8339 87.4101 71.9905 87.5712 71.9383C87.7324 71.8861 87.8272 71.6295 87.7371 71.373C87.6471 71.1164 87.4243 70.9599 87.2631 71.0121C87.102 71.0643 87.0119 71.3339 87.0972 71.5774Z" fill="#263238"/>
<path d="M86.1447 72.0034C86.7559 72.6831 87.4656 73.2829 88.254 73.7862C88.1078 73.9694 87.9195 74.1208 87.7024 74.2297C87.4853 74.3387 87.2448 74.4025 86.9978 74.4167L86.1447 72.0034Z" fill="#D58745"/>
<path d="M87.8227 70.0076C87.7997 70.0279 87.7718 70.0428 87.7413 70.0511C87.7108 70.0595 87.6786 70.0609 87.6473 70.0555C87.4398 70.0035 87.222 69.9968 87.0112 70.0361C86.8005 70.0754 86.6027 70.1595 86.4338 70.2816C86.4012 70.3104 86.3573 70.3262 86.312 70.3253C86.2667 70.3245 86.2235 70.3072 86.1921 70.2772C86.1607 70.2473 86.1435 70.207 86.1444 70.1655C86.1453 70.1239 86.1642 70.0843 86.1968 70.0555C86.4074 69.8969 86.656 69.7866 86.9223 69.7336C87.1885 69.6807 87.4647 69.6867 87.7279 69.7511C87.75 69.7552 87.7711 69.7634 87.7898 69.775C87.8086 69.7867 87.8246 69.8017 87.8369 69.8191C87.8493 69.8365 87.8577 69.856 87.8618 69.8764C87.8658 69.8968 87.8654 69.9178 87.8606 69.9381C87.8508 69.9625 87.8381 69.9858 87.8227 70.0076Z" fill="#263238"/>
<path d="M82.9168 71.5601C82.8847 71.5711 82.8493 71.5711 82.8172 71.5601C82.7784 71.5392 82.7502 71.5051 82.7386 71.4652C82.7271 71.4253 82.7332 71.3828 82.7556 71.347C82.8939 71.1305 83.0864 70.9474 83.3172 70.8128C83.548 70.6781 83.8105 70.596 84.0828 70.573C84.1052 70.5724 84.1275 70.5759 84.1485 70.5832C84.1694 70.5906 84.1886 70.6016 84.2049 70.6158C84.2212 70.6299 84.2343 70.6468 84.2434 70.6656C84.2526 70.6844 84.2576 70.7046 84.2582 70.7252C84.2583 70.7664 84.2411 70.806 84.2102 70.836C84.1794 70.8659 84.1372 70.8838 84.0923 70.8861C83.8777 70.9098 83.6722 70.9792 83.4919 71.0886C83.3117 71.1981 83.1619 71.3446 83.0542 71.5166C83.0359 71.5322 83.0142 71.5441 82.9905 71.5516C82.9668 71.5591 82.9417 71.562 82.9168 71.5601Z" fill="#263238"/>
<path d="M79.5608 68.5465L80.3049 69.851C80.1034 70.0511 79.9915 70.3135 79.9915 70.5859C79.9915 70.8583 80.1034 71.1207 80.3049 71.3207C81.2529 72.2947 81.2909 74.3123 80.6273 75.3559C80.6273 75.3559 80.395 74.8733 79.9874 75.1472C79.5797 75.4212 80.7837 77.9562 82.182 78.8737C82.182 78.8737 80.376 78.2345 78.4895 75.7951C76.7452 73.5427 75.7877 71.486 75.9441 70.3206L79.5608 68.5465Z" fill="#263238"/>
<path d="M77.8877 76.2301C78.5186 76.8252 79.3813 77.1662 80.2861 77.178C81.4901 77.178 81.7745 76.13 81.1773 75.2386C80.6416 74.4516 79.3666 73.4732 78.2906 73.9037C77.2146 74.3342 77.1198 75.4908 77.8877 76.2301Z" fill="#EBB376"/>
<path d="M87.3676 75.5082C87.1492 75.9463 86.9655 76.3983 86.8178 76.8605L86.5428 76.8301C85.301 76.6779 84.7748 76.23 84.5757 75.7778C84.4832 75.5564 84.4491 75.318 84.4762 75.0821C84.4858 74.9466 84.5178 74.8131 84.571 74.6864C85.2918 75.095 86.1002 75.356 86.941 75.4517C87.2159 75.4952 87.3676 75.5082 87.3676 75.5082Z" fill="#263238"/>
<path d="M86.9456 75.4517L86.7702 75.8474C85.5995 75.6996 84.7937 75.4517 84.4761 75.0821C84.4857 74.9466 84.5177 74.8131 84.5709 74.6864C85.2931 75.0956 86.1031 75.3566 86.9456 75.4517Z" fill="white"/>
<path d="M86.5427 76.8301C85.3008 76.6779 84.7747 76.2301 84.5756 75.7778C85.0484 75.85 85.504 75.9971 85.9218 76.2127C86.1933 76.3547 86.4103 76.5704 86.5427 76.8301Z" fill="#DE5753"/>
<path d="M82.732 68.7727C82.732 68.7727 82.4002 66.6942 83.8316 67.0986C85.2631 67.5029 85.3627 66.7116 84.9361 65.107C84.5095 63.5025 80.4046 62.9329 78.082 65.5636C75.7594 68.1943 74.9489 70.3989 76.0723 71.5643C77.1956 72.7296 81.4759 69.2901 81.4759 69.2901C81.5926 68.7026 81.8643 68.1502 82.2674 67.6812C82.2937 68.0807 82.4562 68.4625 82.732 68.7727Z" fill="#263238"/>
<path d="M84.9455 84.257L87.216 86.0963C87.216 86.0963 88.4626 93.8362 91.5246 97.2192H93.4206L93.7951 96.0191C90.9467 93.1018 88.902 89.6008 87.8322 85.8093V83.3438L84.9455 84.257Z" fill="#263238"/>
<path d="M81.4806 81.848L86.1448 83.4525L86.5429 81.274L88.9651 82.0784L89.586 84.8309L86.287 84.083L84.6517 86.0919L79.8975 83.2699L81.4806 81.848Z" fill="#6723B5"/>
<path opacity="0.5" d="M81.4806 81.848L86.1448 83.4525L86.5429 81.274L88.9651 82.0784L89.586 84.8309L86.287 84.083L84.6517 86.0919L79.8975 83.2699L81.4806 81.848Z" fill="white"/>
<path d="M77.8163 104.016L97.0275 102.341L97.0702 104.481L77.8258 105.924L77.8163 104.016Z" fill="black"/>
<path d="M92.9609 102.781C92.8742 102.709 92.772 102.655 92.6609 102.622C92.5498 102.589 92.4324 102.578 92.3163 102.589L90.6146 102.75C90.4043 102.77 90.2097 102.861 90.0693 103.006C89.9288 103.151 89.8528 103.339 89.8563 103.533V104.533C89.8612 104.739 89.9548 104.934 90.1164 105.077C90.2781 105.219 90.4947 105.297 90.7189 105.294H90.79L92.4917 105.129C92.7016 105.109 92.8957 105.018 93.0354 104.873C93.175 104.728 93.25 104.54 93.2454 104.346V103.35C93.2447 103.242 93.2191 103.136 93.17 103.037C93.121 102.939 93.0497 102.852 92.9609 102.781ZM92.4633 104.729L90.7663 104.894C90.7082 104.901 90.6489 104.897 90.5926 104.882C90.5362 104.867 90.4839 104.841 90.4392 104.806C90.3944 104.772 90.3582 104.728 90.3329 104.68C90.3076 104.631 90.2938 104.578 90.2923 104.524V103.529C90.2906 103.434 90.3276 103.342 90.396 103.271C90.4645 103.2 90.5594 103.156 90.6621 103.146L92.359 102.985H92.3969C92.5046 102.985 92.6081 103.024 92.6852 103.093C92.7623 103.162 92.8068 103.256 92.8093 103.355V103.489H92.7429L92.2689 103.529C92.2309 103.532 92.194 103.542 92.1602 103.558C92.1265 103.574 92.0965 103.596 92.0721 103.623C92.0477 103.65 92.0292 103.681 92.0179 103.714C92.0065 103.748 92.0024 103.783 92.0058 103.818C92.0093 103.853 92.0201 103.886 92.0378 103.917C92.0555 103.948 92.0797 103.976 92.109 103.998C92.1382 104.021 92.172 104.038 92.2084 104.048C92.2448 104.058 92.2831 104.062 92.3211 104.059L92.7951 104.016H92.8188V104.359C92.8184 104.45 92.7822 104.537 92.7168 104.605C92.6514 104.673 92.5613 104.717 92.4633 104.729Z" fill="white"/>
<path d="M75.7118 84.7048C72.5075 86.4442 67.8813 92.1709 66.2555 92.0535C64.6297 91.936 55.8607 84.7918 55.8607 84.7918L53.8604 86.779C53.8604 86.779 61.961 95.6538 65.7341 96.3235C69.5071 96.9931 77.8163 90.575 77.8163 90.575C78.2863 89.469 78.2863 88.2415 77.8163 87.1355C77.3902 86.1533 76.6583 85.3079 75.7118 84.7048Z" fill="#6723B5"/>
<path opacity="0.7" d="M75.7118 84.7048C72.5075 86.4442 67.8813 92.1709 66.2555 92.0535C64.6297 91.936 55.8607 84.7918 55.8607 84.7918L53.8604 86.779C53.8604 86.779 61.961 95.6538 65.7341 96.3235C69.5071 96.9931 77.8163 90.575 77.8163 90.575C78.2863 89.469 78.2863 88.2415 77.8163 87.1355C77.3902 86.1533 76.6583 85.3079 75.7118 84.7048Z" fill="white"/>
<path d="M105.043 125.127C105.043 125.127 41.4277 125.531 37.4793 117.334L65.8103 115.447C71.4327 117.611 77.1873 119.474 83.0449 121.026C89.5861 122.778 97.3408 124.44 105.043 125.127Z" fill="#6723B5"/>
<path opacity="0.2" d="M105.043 125.127C105.043 125.127 103.048 125.127 99.7298 125.127C86.1213 124.257 70.2328 118.056 70.2328 118.056C64.4974 119.213 60.5537 117.139 60.5537 117.139L45.0918 117.952C45.1751 118.301 45.1714 118.663 45.0812 119.011C44.9909 119.359 44.8163 119.683 44.5704 119.961C52.5858 122.026 61.2268 123.283 68.2704 124.044C53.3916 123.022 39.2711 121.074 37.4604 117.347L65.7914 115.46C65.7914 115.46 85.5809 123.387 105.043 125.127Z" fill="white"/>
<path opacity="0.2" d="M105.043 125.126C105.043 125.126 41.4277 125.531 37.4793 117.334C37.4793 117.334 58.9752 125.853 83.0449 121.026C89.5861 122.778 97.3408 124.439 105.043 125.126Z" fill="black"/>
</svg>
