<svg width="20" height="20" viewBox="0 0 20 20" fill="none" xmlns="http://www.w3.org/2000/svg">
<rect x="0.76001" y="0.110504" width="19.179" height="19.179" rx="9.58949" fill="#BB9DDE"/>
<path fill-rule="evenodd" clip-rule="evenodd" d="M10.3495 4.37241C8.58411 4.37241 7.15299 5.80352 7.15299 7.5689V8.54436C7.15299 9.30049 6.9475 10.0424 6.55848 10.6908L6.26365 11.1822C6.0681 11.5081 5.97032 11.6711 5.96363 11.8041C5.95326 12.0102 6.06285 12.2038 6.24491 12.3009C6.36247 12.3636 6.55251 12.3636 6.9326 12.3636H13.7664C14.1465 12.3636 14.3365 12.3636 14.4541 12.3009C14.6362 12.2038 14.7458 12.0102 14.7354 11.8041C14.7287 11.6711 14.6309 11.5081 14.4354 11.1822L14.1405 10.6908C13.7515 10.0424 13.546 9.30048 13.546 8.54434V8.27054C13.546 8.18302 13.546 8.13926 13.521 8.11562C13.4961 8.09198 13.4481 8.09456 13.3522 8.09971C13.3282 8.101 13.304 8.10165 13.2796 8.10165C12.5441 8.10165 11.9478 7.50535 11.9478 6.76978C11.9478 6.28042 12.2117 5.8527 12.605 5.62119C12.6993 5.56566 12.7465 5.53789 12.7518 5.49958C12.7571 5.46127 12.7238 5.42662 12.6574 5.35732C12.0756 4.75033 11.2567 4.37241 10.3495 4.37241Z" fill="#560BAD"/>
<circle cx="13.2797" cy="6.7698" r="0.799124" fill="white"/>
<path d="M11.6015 12.8964C11.6456 12.8964 11.6818 12.9323 11.6777 12.9762C11.6539 13.2296 11.5175 13.4689 11.2913 13.6498C11.0416 13.8497 10.7028 13.9619 10.3496 13.9619C9.99632 13.9619 9.65755 13.8497 9.40778 13.6498C9.18162 13.4689 9.04519 13.2296 9.02142 12.9762C9.01729 12.9323 9.05346 12.8964 9.09759 12.8964L10.3496 12.8964L11.6015 12.8964Z" fill="white"/>
</svg>
