<svg width="42" height="50" viewBox="0 0 42 50" fill="none" xmlns="http://www.w3.org/2000/svg">
<path d="M20.9167 0.166687C9.56334 0.166687 0.333336 9.39669 0.333336 20.75C0.333336 31.735 8.97834 40.7484 19.8333 41.3117V49.1117L22.9317 47.6167C34.0467 42.265 41.5 31.475 41.5 20.75C41.5 9.39669 32.27 0.166687 20.9167 0.166687ZM24.1667 41.9834V37H20.9167C11.9467 37 4.66667 29.72 4.66667 20.75C4.66667 11.78 11.9467 4.50002 20.9167 4.50002C29.8867 4.50002 37.1667 11.78 37.1667 20.75C37.1667 28.8317 32.0533 37.0217 24.1667 41.9834ZM18.75 29.4167H23.0833V33.75H18.75V29.4167ZM20.9167 6.66669C16.1283 6.66669 12.25 10.545 12.25 15.3334H16.5833C16.5833 12.95 18.5333 11 20.9167 11C23.3 11 25.25 12.95 25.25 15.3334C25.25 19.6667 18.75 19.125 18.75 26.1667H23.0833C23.0833 21.2917 29.5833 20.75 29.5833 15.3334C29.5833 10.545 25.705 6.66669 20.9167 6.66669Z" fill="#F8B400"/>
</svg>
