<svg width="52" height="52" viewBox="0 0 52 52" fill="none" xmlns="http://www.w3.org/2000/svg">
<path opacity="0.2" d="M16.25 34.125H6.5C6.06902 34.125 5.6557 33.9538 5.35095 33.649C5.0462 33.3443 4.875 32.931 4.875 32.5V19.5C4.875 19.069 5.0462 18.6557 5.35095 18.351C5.6557 18.0462 6.06902 17.875 6.5 17.875H16.25V34.125Z" fill="#560BAD"/>
<path d="M45.6219 14.503C45.3172 14.1991 44.9045 14.0285 44.4742 14.0285C44.0439 14.0285 43.6312 14.1991 43.3266 14.503C43.1736 14.6525 43.0521 14.831 42.9691 15.0281C42.8862 15.2252 42.8434 15.4369 42.8434 15.6507C42.8434 15.8645 42.8862 16.0762 42.9691 16.2733C43.0521 16.4704 43.1736 16.6489 43.3266 16.7983C45.7602 19.2423 47.1266 22.5509 47.1266 25.9999C47.1266 29.4489 45.7602 32.7575 43.3266 35.2015C43.1736 35.3509 43.0521 35.5294 42.9691 35.7265C42.8862 35.9236 42.8434 36.1353 42.8434 36.3491C42.8434 36.563 42.8862 36.7746 42.9691 36.9717C43.0521 37.1688 43.1736 37.3473 43.3266 37.4968C43.6299 37.7955 44.0383 37.9633 44.4641 37.964C44.8956 37.9621 45.31 37.7949 45.6219 37.4968C48.6633 34.4435 50.371 30.3095 50.371 25.9999C50.371 21.6903 48.6633 17.5563 45.6219 14.503ZM31.5859 5.03741C31.3128 4.90563 31.0082 4.85292 30.7067 4.88523C30.4052 4.91753 30.1187 5.03357 29.8797 5.22022L15.7016 16.2499H6.5C5.63805 16.2499 4.8114 16.5923 4.2019 17.2018C3.59241 17.8113 3.25 18.638 3.25 19.4999V32.4999C3.25 33.3619 3.59241 34.1885 4.2019 34.798C4.8114 35.4075 5.63805 35.7499 6.5 35.7499H15.7016L29.8797 46.7796C30.1646 47.0007 30.5144 47.122 30.875 47.1249C31.1208 47.122 31.3632 47.0666 31.5859 46.9624C31.8602 46.829 32.0914 46.6211 32.253 46.3624C32.4146 46.1038 32.5002 45.8049 32.5 45.4999V6.49991C32.5002 6.19492 32.4146 5.89602 32.253 5.63739C32.0914 5.37876 31.8602 5.17084 31.5859 5.03741ZM6.5 19.4999H14.625V32.4999H6.5V19.4999ZM29.25 42.1687L17.875 33.3327V18.6671L29.25 9.83116V42.1687Z" fill="#560BAD"/>
<path d="M37.5781 20.2517C37.4252 20.4011 37.3037 20.5796 37.2207 20.7767C37.1377 20.9738 37.095 21.1855 37.095 21.3993C37.095 21.6132 37.1377 21.8248 37.2207 22.0219C37.3037 22.219 37.4252 22.3975 37.5781 22.547C38.4911 23.4643 39.0036 24.7059 39.0036 26.0001C39.0036 27.2943 38.4911 28.5359 37.5781 29.4532C37.4252 29.6027 37.3037 29.7812 37.2207 29.9783C37.1377 30.1754 37.095 30.387 37.095 30.6009C37.095 30.8147 37.1377 31.0264 37.2207 31.2235C37.3037 31.4206 37.4252 31.5991 37.5781 31.7485C37.8815 32.0473 38.2899 32.215 38.7156 32.2157C39.1471 32.2139 39.5615 32.0467 39.8734 31.7485C41.3942 30.2219 42.248 28.1549 42.248 26.0001C42.248 23.8453 41.3942 21.7783 39.8734 20.2517C39.5688 19.9478 39.1561 19.7771 38.7258 19.7771C38.2955 19.7771 37.8828 19.9478 37.5781 20.2517Z" fill="#560BAD"/>
</svg>
