<svg width="102" height="86" viewBox="0 0 102 86" fill="none" xmlns="http://www.w3.org/2000/svg">
<g clip-path="url(#clip0_345_1138)">
<rect x="0.684814" y="7.62939e-06" width="101.158" height="85.9927" rx="8.06686" fill="#FFFEE0"/>
<path d="M35.211 57.436L0.684837 82.282V104.627H101.763V20.4898L88.6136 33.6388H77.4814L45.8593 57.436H35.211Z" fill="url(#paint0_linear_345_1138)"/>
<path d="M0.846142 82.282L35.3723 57.436H46.0206L77.6427 33.6388H88.7749L101.924 20.4898" stroke="#560BAD" stroke-width="1.2907"/>
<circle cx="78.0461" cy="33.4775" r="3.63009" fill="#560BAD"/>
<rect x="34.0816" y="18.2311" width="41.2267" height="12.2267" rx="0.645349" fill="#FCE199"/>
<path d="M37.6721 22.6972V25.5239H36.9508V22.6972H37.6721ZM38.65 23.7819V24.4338H35.9676V23.7819H38.65ZM39.204 25.8445V25.2567C39.5068 25.0679 39.7651 24.8916 39.9788 24.7277C40.1926 24.5638 40.3653 24.4089 40.4971 24.2628C40.6325 24.1168 40.7323 23.9778 40.7964 23.846C40.8605 23.7142 40.8926 23.586 40.8926 23.4613C40.8926 23.3259 40.8516 23.2137 40.7697 23.1246C40.6913 23.032 40.5737 22.9857 40.417 22.9857C40.2496 22.9857 40.1195 23.0481 40.0269 23.1727C39.9343 23.2939 39.8844 23.472 39.8773 23.7071L39.0918 23.4666C39.0989 23.203 39.1613 22.9822 39.2788 22.804C39.3999 22.6259 39.5638 22.4923 39.7704 22.4033C39.977 22.3107 40.2122 22.2643 40.4758 22.2643C40.7073 22.2643 40.9068 22.2982 41.0742 22.3659C41.2452 22.43 41.3842 22.5173 41.491 22.6277C41.5979 22.7346 41.6763 22.8557 41.7261 22.9911C41.7796 23.1229 41.8063 23.2582 41.8063 23.3972C41.8063 23.6252 41.7475 23.8389 41.63 24.0384C41.5124 24.2343 41.3414 24.4249 41.117 24.6101C40.8961 24.7918 40.6272 24.9753 40.3101 25.1605V25.1659C40.3707 25.1623 40.4419 25.1587 40.5239 25.1552C40.6058 25.1516 40.6913 25.1498 40.7803 25.1498C40.8694 25.1463 40.9496 25.1445 41.0208 25.1445H41.849V25.8445H39.204ZM43.5948 25.8979C43.2884 25.8979 43.0212 25.8391 42.7933 25.7216C42.5688 25.6005 42.38 25.4045 42.2268 25.1338L43.0337 24.733C43.0729 24.8755 43.1352 24.9895 43.2207 25.075C43.3098 25.1605 43.4416 25.2033 43.6161 25.2033C43.7266 25.2033 43.821 25.1837 43.8994 25.1445C43.9777 25.1053 44.0383 25.0483 44.081 24.9735C44.1273 24.8951 44.1505 24.8007 44.1505 24.6903C44.1505 24.5834 44.1291 24.4944 44.0864 24.4231C44.0472 24.3519 43.9884 24.2984 43.91 24.2628C43.8317 24.2236 43.7337 24.204 43.6161 24.204C43.5307 24.204 43.4541 24.2129 43.3864 24.2307C43.3187 24.245 43.2564 24.2682 43.1994 24.3002C43.1459 24.3287 43.0961 24.3661 43.0497 24.4124L42.3551 24.2842L42.5795 22.3178H44.8024V23.0285H43.2474L43.1566 23.7338L43.1406 23.8193H43.1459C43.2172 23.7374 43.3169 23.675 43.4452 23.6323C43.5734 23.5895 43.7159 23.5682 43.8726 23.5682C44.1042 23.5682 44.3019 23.6145 44.4658 23.7071C44.6296 23.7997 44.7561 23.9262 44.8452 24.0865C44.9342 24.2468 44.9787 24.4302 44.9787 24.6369C44.9787 24.8542 44.9413 25.043 44.8665 25.2033C44.7953 25.36 44.6938 25.49 44.5619 25.5933C44.4337 25.6966 44.2859 25.7732 44.1184 25.8231C43.9546 25.873 43.78 25.8979 43.5948 25.8979ZM45.9406 24.9254C46.0724 24.9254 46.1811 24.9557 46.2666 25.0162C46.3521 25.0768 46.4144 25.157 46.4536 25.2567C46.4963 25.3529 46.5177 25.4615 46.5177 25.5827C46.5177 25.743 46.4821 25.8961 46.4108 26.0422C46.3432 26.1918 46.2523 26.3218 46.1383 26.4323C46.0279 26.5463 45.9068 26.6318 45.775 26.6888L45.4063 26.4162C45.506 26.3771 45.5968 26.3272 45.6788 26.2666C45.7643 26.2061 45.8373 26.1402 45.8979 26.0689C45.962 25.9977 46.0101 25.9246 46.0421 25.8498L46.0154 25.8338C45.9976 25.848 45.9745 25.8587 45.946 25.8659C45.9175 25.873 45.8801 25.8765 45.8337 25.8765C45.7696 25.8765 45.7037 25.8605 45.636 25.8285C45.5719 25.7964 45.5167 25.7483 45.4704 25.6842C45.4276 25.6201 45.4063 25.5381 45.4063 25.4384C45.4063 25.3244 45.4312 25.23 45.4811 25.1552C45.5309 25.0804 45.5968 25.0234 45.6788 24.9842C45.7607 24.945 45.848 24.9254 45.9406 24.9254ZM48.5278 22.2643C48.7166 22.2643 48.8912 22.2893 49.0515 22.3392C49.2153 22.389 49.3578 22.471 49.479 22.585C49.6001 22.6989 49.6909 22.8521 49.7515 23.0445L49.0034 23.3972C48.9678 23.2725 48.9054 23.1745 48.8164 23.1033C48.7309 23.0285 48.6151 22.9911 48.469 22.9911C48.3693 22.9911 48.2767 23.016 48.1912 23.0659C48.1092 23.1122 48.038 23.1799 47.9774 23.2689C47.9169 23.358 47.8706 23.4666 47.8385 23.5949C47.81 23.7231 47.7958 23.8674 47.7958 24.0277C47.7958 24.0384 47.7958 24.0509 47.7958 24.0651C47.7958 24.0758 47.7958 24.0918 47.7958 24.1132L47.8064 24.1453C47.8492 24.0384 47.9151 23.9493 48.0042 23.8781C48.0968 23.8033 48.2019 23.7463 48.3194 23.7071C48.437 23.6679 48.5545 23.6483 48.6721 23.6483C48.8894 23.6483 49.0835 23.6911 49.2545 23.7766C49.4255 23.862 49.5591 23.9849 49.6553 24.1453C49.755 24.302 49.8049 24.4926 49.8049 24.717C49.8049 24.9592 49.7497 25.1694 49.6393 25.3475C49.5288 25.5221 49.3757 25.6575 49.1797 25.7536C48.9838 25.8498 48.7505 25.8979 48.4797 25.8979C48.1769 25.8979 47.9098 25.832 47.6782 25.7002C47.4502 25.5648 47.2721 25.3653 47.1439 25.1017C47.0192 24.8346 46.9568 24.505 46.9568 24.1132C46.9568 23.6928 47.0263 23.3473 47.1652 23.0766C47.3042 22.8058 47.4912 22.6028 47.7263 22.4674C47.965 22.332 48.2321 22.2643 48.5278 22.2643ZM48.4637 24.2682C48.3711 24.2682 48.2856 24.2877 48.2072 24.3269C48.1324 24.3626 48.0718 24.416 48.0255 24.4872C47.9828 24.5585 47.9614 24.6422 47.9614 24.7384C47.9614 24.831 47.9846 24.9129 48.0309 24.9842C48.0772 25.0554 48.1377 25.1106 48.2126 25.1498C48.2874 25.189 48.3711 25.2086 48.4637 25.2086C48.624 25.2086 48.7469 25.1676 48.8324 25.0857C48.9215 25.0038 48.966 24.888 48.966 24.7384C48.966 24.6386 48.9464 24.5549 48.9072 24.4872C48.868 24.416 48.811 24.3626 48.7362 24.3269C48.665 24.2877 48.5741 24.2682 48.4637 24.2682ZM51.7137 25.8979C51.2328 25.8979 50.8676 25.7447 50.6182 25.4384C50.3724 25.132 50.2495 24.6796 50.2495 24.0811C50.2495 23.4827 50.3724 23.0302 50.6182 22.7239C50.8676 22.4175 51.2328 22.2643 51.7137 22.2643C52.1946 22.2643 52.5579 22.4175 52.8037 22.7239C53.0531 23.0302 53.1778 23.4827 53.1778 24.0811C53.1778 24.6796 53.0531 25.132 52.8037 25.4384C52.5579 25.7447 52.1946 25.8979 51.7137 25.8979ZM51.7137 25.1819C51.8455 25.1819 51.9523 25.1463 52.0343 25.075C52.1162 25.0002 52.175 24.8827 52.2106 24.7223C52.2498 24.5585 52.2694 24.3447 52.2694 24.0811C52.2694 23.8175 52.2498 23.6056 52.2106 23.4453C52.175 23.2814 52.1162 23.1638 52.0343 23.0926C51.9523 23.0178 51.8455 22.9804 51.7137 22.9804C51.5854 22.9804 51.4786 23.0178 51.3931 23.0926C51.3111 23.1638 51.2506 23.2814 51.2114 23.4453C51.1758 23.6056 51.1579 23.8175 51.1579 24.0811C51.1579 24.3447 51.1758 24.5585 51.2114 24.7223C51.2506 24.8827 51.3111 25.0002 51.3931 25.075C51.4786 25.1463 51.5854 25.1819 51.7137 25.1819ZM55.1525 25.8979C54.6716 25.8979 54.3064 25.7447 54.0571 25.4384C53.8113 25.132 53.6884 24.6796 53.6884 24.0811C53.6884 23.4827 53.8113 23.0302 54.0571 22.7239C54.3064 22.4175 54.6716 22.2643 55.1525 22.2643C55.6334 22.2643 55.9968 22.4175 56.2426 22.7239C56.4919 23.0302 56.6166 23.4827 56.6166 24.0811C56.6166 24.6796 56.4919 25.132 56.2426 25.4384C55.9968 25.7447 55.6334 25.8979 55.1525 25.8979ZM55.1525 25.1819C55.2843 25.1819 55.3912 25.1463 55.4731 25.075C55.555 25.0002 55.6138 24.8827 55.6494 24.7223C55.6886 24.5585 55.7082 24.3447 55.7082 24.0811C55.7082 23.8175 55.6886 23.6056 55.6494 23.4453C55.6138 23.2814 55.555 23.1638 55.4731 23.0926C55.3912 23.0178 55.2843 22.9804 55.1525 22.9804C55.0242 22.9804 54.9174 23.0178 54.8319 23.0926C54.7499 23.1638 54.6894 23.2814 54.6502 23.4453C54.6146 23.6056 54.5968 23.8175 54.5968 24.0811C54.5968 24.3447 54.6146 24.5585 54.6502 24.7223C54.6894 24.8827 54.7499 25.0002 54.8319 25.075C54.9174 25.1463 55.0242 25.1819 55.1525 25.1819ZM59.6287 25.8979C59.447 25.8979 59.2867 25.8676 59.1478 25.8071C59.0124 25.743 58.9055 25.6414 58.8271 25.5025C58.7488 25.3636 58.7096 25.1819 58.7096 24.9575V23.1727H59.618V24.7437C59.618 24.9147 59.6518 25.0341 59.7195 25.1017C59.7872 25.1694 59.8834 25.2033 60.0081 25.2033C60.0722 25.2033 60.1327 25.1926 60.1897 25.1712C60.2467 25.1463 60.2966 25.1106 60.3393 25.0643C60.3821 25.0145 60.4142 24.9521 60.4355 24.8773C60.4605 24.7989 60.4729 24.7081 60.4729 24.6048V23.1727H61.3813V25.8445H60.5691L60.5424 25.3422C60.4569 25.531 60.3376 25.6717 60.1844 25.7643C60.0312 25.8534 59.846 25.8979 59.6287 25.8979ZM63.1561 25.8979C62.8889 25.8979 62.6396 25.8552 62.408 25.7697C62.18 25.6806 61.9912 25.5542 61.8416 25.3903L62.2691 24.888C62.3582 25.002 62.4757 25.0982 62.6218 25.1765C62.7714 25.2514 62.937 25.2888 63.1187 25.2888C63.2291 25.2888 63.32 25.2727 63.3912 25.2407C63.4625 25.2086 63.4981 25.1587 63.4981 25.0911C63.4981 25.0412 63.4803 25.002 63.4447 24.9735C63.409 24.9414 63.3378 24.9147 63.2309 24.8933L62.8569 24.8185C62.522 24.7508 62.2833 24.6511 62.1409 24.5193C62.0019 24.3839 61.9325 24.2076 61.9325 23.9903C61.9325 23.8442 61.977 23.7053 62.066 23.5735C62.1551 23.4381 62.2923 23.3295 62.4775 23.2475C62.6627 23.1621 62.8996 23.1193 63.1882 23.1193C63.4589 23.1193 63.6976 23.1585 63.9042 23.2369C64.1108 23.3152 64.2747 23.4292 64.3958 23.5788L63.963 24.0704C63.8775 23.9636 63.7671 23.8799 63.6317 23.8193C63.4963 23.7587 63.361 23.7285 63.2256 23.7285C63.1401 23.7285 63.0671 23.7374 63.0065 23.7552C62.9495 23.7694 62.9068 23.7908 62.8783 23.8193C62.8498 23.8478 62.8355 23.8834 62.8355 23.9262C62.8355 23.9725 62.8569 24.0134 62.8996 24.0491C62.9459 24.0811 63.0297 24.1096 63.1508 24.1346L63.637 24.2307C63.9113 24.2806 64.109 24.3715 64.2302 24.5033C64.3513 24.6351 64.4118 24.7936 64.4118 24.9788C64.4118 25.1534 64.3655 25.3101 64.2729 25.4491C64.1803 25.588 64.0414 25.6984 63.8561 25.7804C63.6709 25.8587 63.4375 25.8979 63.1561 25.8979ZM66.1713 25.8979C65.8756 25.8979 65.6191 25.8427 65.4018 25.7323C65.1881 25.6218 65.0225 25.4633 64.9049 25.2567C64.7873 25.0501 64.7286 24.8007 64.7286 24.5086C64.7286 24.2165 64.7873 23.9671 64.9049 23.7605C65.0225 23.5539 65.1863 23.3954 65.3965 23.285C65.6102 23.1745 65.8543 23.1193 66.1286 23.1193C66.41 23.1193 66.6487 23.1745 66.8446 23.285C67.0441 23.3918 67.1955 23.5414 67.2988 23.7338C67.4021 23.9226 67.4537 24.1399 67.4537 24.3857C67.4537 24.4498 67.452 24.514 67.4484 24.5781C67.4448 24.6422 67.4395 24.6956 67.4324 24.7384H65.3163V24.2521H67.0316L66.5988 24.4178C66.5988 24.204 66.5596 24.0402 66.4812 23.9262C66.4064 23.8122 66.2889 23.7552 66.1286 23.7552C66.0146 23.7552 65.9166 23.7819 65.8347 23.8353C65.7563 23.8888 65.6957 23.9725 65.653 24.0865C65.6138 24.2005 65.5942 24.3465 65.5942 24.5246C65.5942 24.6992 65.6174 24.8417 65.6637 24.9521C65.71 25.059 65.7759 25.1374 65.8614 25.1872C65.9469 25.2335 66.0502 25.2567 66.1713 25.2567C66.3067 25.2567 66.4135 25.23 66.4919 25.1765C66.5738 25.1231 66.6344 25.0483 66.6736 24.9521L67.4003 25.1926C67.3504 25.3458 67.2632 25.4758 67.1385 25.5827C67.0174 25.686 66.8713 25.7643 66.7003 25.8178C66.5329 25.8712 66.3565 25.8979 66.1713 25.8979ZM67.9619 25.8445V23.1727H68.7634L68.8008 23.7498C68.8685 23.5503 68.9683 23.3954 69.1001 23.285C69.2355 23.1745 69.4064 23.1193 69.6131 23.1193C69.6807 23.1193 69.7377 23.1246 69.784 23.1353C69.8339 23.146 69.8731 23.1603 69.9016 23.1781L69.8108 23.9262C69.7751 23.9119 69.7288 23.9012 69.6718 23.8941C69.6184 23.8834 69.5525 23.8781 69.4741 23.8781C69.3673 23.8781 69.2675 23.9012 69.1749 23.9475C69.0823 23.9939 69.0075 24.0633 68.9505 24.1559C68.897 24.245 68.8703 24.359 68.8703 24.4979V25.8445H67.9619ZM71.3331 25.8979C71.0659 25.8979 70.8166 25.8552 70.585 25.7697C70.357 25.6806 70.1682 25.5542 70.0186 25.3903L70.4461 24.888C70.5352 25.002 70.6527 25.0982 70.7988 25.1765C70.9484 25.2514 71.114 25.2888 71.2957 25.2888C71.4061 25.2888 71.497 25.2727 71.5682 25.2407C71.6395 25.2086 71.6751 25.1587 71.6751 25.0911C71.6751 25.0412 71.6573 25.002 71.6217 24.9735C71.586 24.9414 71.5148 24.9147 71.4079 24.8933L71.0339 24.8185C70.699 24.7508 70.4603 24.6511 70.3179 24.5193C70.1789 24.3839 70.1095 24.2076 70.1095 23.9903C70.1095 23.8442 70.154 23.7053 70.243 23.5735C70.3321 23.4381 70.4693 23.3295 70.6545 23.2475C70.8397 23.1621 71.0766 23.1193 71.3652 23.1193C71.6359 23.1193 71.8746 23.1585 72.0812 23.2369C72.2878 23.3152 72.4517 23.4292 72.5728 23.5788L72.14 24.0704C72.0545 23.9636 71.9441 23.8799 71.8087 23.8193C71.6733 23.7587 71.538 23.7285 71.4026 23.7285C71.3171 23.7285 71.2441 23.7374 71.1835 23.7552C71.1265 23.7694 71.0838 23.7908 71.0553 23.8193C71.0268 23.8478 71.0125 23.8834 71.0125 23.9262C71.0125 23.9725 71.0339 24.0134 71.0766 24.0491C71.1229 24.0811 71.2067 24.1096 71.3278 24.1346L71.814 24.2307C72.0883 24.2806 72.286 24.3715 72.4072 24.5033C72.5283 24.6351 72.5888 24.7936 72.5888 24.9788C72.5888 25.1534 72.5425 25.3101 72.4499 25.4491C72.3573 25.588 72.2184 25.6984 72.0331 25.7804C71.8479 25.8587 71.6145 25.8979 71.3331 25.8979Z" fill="#212121"/>
</g>
<defs>
<linearGradient id="paint0_linear_345_1138" x1="51.2237" y1="20.4898" x2="53.0388" y2="78.8939" gradientUnits="userSpaceOnUse">
<stop stop-color="#BB9DDE"/>
<stop offset="1" stop-color="#BB9DDE" stop-opacity="0"/>
</linearGradient>
<clipPath id="clip0_345_1138">
<rect x="0.684814" y="7.62939e-06" width="101.158" height="85.9927" rx="8.06686" fill="white"/>
</clipPath>
</defs>
</svg>
