<svg width="101" height="86" viewBox="0 0 101 86" fill="none" xmlns="http://www.w3.org/2000/svg">
<g clip-path="url(#clip0_412_1349)">
<rect width="101.158" height="85.9927" rx="8.06686" fill="#FCF4FF"/>
<path d="M34.5262 57.436L3.05176e-05 82.2819V104.627H101.078V20.4898L87.9288 33.6388H76.7966L45.1745 57.436H34.5262Z" fill="url(#paint0_linear_412_1349)"/>
<path d="M0.161316 82.282L34.6875 57.436H45.3357L76.9578 33.6388H88.0901L101.239 20.4898" stroke="#560BAD" stroke-width="1.2907"/>
<circle cx="77.3612" cy="33.4775" r="3.63009" fill="#560BAD"/>
<rect x="33.3969" y="18.2311" width="41.2267" height="12.2267" rx="0.645349" fill="#560BAD"/>
<path d="M36.9873 22.6972V25.5239H36.266V22.6972H36.9873ZM37.9652 23.7819V24.4338H35.2828V23.7819H37.9652ZM38.514 25.8445V25.2567C38.8168 25.0679 39.0751 24.8916 39.2888 24.7277C39.5025 24.5638 39.6753 24.4089 39.8071 24.2628C39.9425 24.1167 40.0422 23.9778 40.1064 23.846C40.1705 23.7142 40.2025 23.586 40.2025 23.4613C40.2025 23.3259 40.1616 23.2137 40.0796 23.1246C40.0013 23.032 39.8837 22.9857 39.727 22.9857C39.5595 22.9857 39.4295 23.048 39.3369 23.1727C39.2443 23.2938 39.1944 23.472 39.1873 23.7071L38.4018 23.4666C38.4089 23.203 38.4712 22.9821 38.5888 22.804C38.7099 22.6259 38.8738 22.4923 39.0804 22.4033C39.287 22.3106 39.5221 22.2643 39.7857 22.2643C40.0173 22.2643 40.2168 22.2982 40.3842 22.3659C40.5552 22.43 40.6941 22.5173 40.801 22.6277C40.9079 22.7346 40.9863 22.8557 41.0361 22.9911C41.0896 23.1229 41.1163 23.2582 41.1163 23.3972C41.1163 23.6251 41.0575 23.8389 40.9399 24.0384C40.8224 24.2343 40.6514 24.4249 40.427 24.6101C40.2061 24.7918 39.9371 24.9753 39.6201 25.1605V25.1659C39.6807 25.1623 39.7519 25.1587 39.8338 25.1552C39.9158 25.1516 40.0013 25.1498 40.0903 25.1498C40.1794 25.1463 40.2595 25.1445 40.3308 25.1445H41.159V25.8445H38.514ZM42.9048 25.8979C42.5984 25.8979 42.3312 25.8391 42.1032 25.7216C41.8788 25.6005 41.69 25.4045 41.5368 25.1338L42.3437 24.733C42.3829 24.8755 42.4452 24.9895 42.5307 25.075C42.6198 25.1605 42.7516 25.2033 42.9261 25.2033C43.0366 25.2033 43.131 25.1837 43.2093 25.1445C43.2877 25.1053 43.3483 25.0483 43.391 24.9735C43.4373 24.8951 43.4605 24.8007 43.4605 24.6903C43.4605 24.5834 43.4391 24.4944 43.3964 24.4231C43.3572 24.3519 43.2984 24.2984 43.22 24.2628C43.1417 24.2236 43.0437 24.204 42.9261 24.204C42.8406 24.204 42.764 24.2129 42.6964 24.2307C42.6287 24.245 42.5663 24.2681 42.5093 24.3002C42.4559 24.3287 42.406 24.3661 42.3597 24.4124L41.6651 24.2842L41.8895 22.3178H44.1124V23.0285H42.5574L42.4666 23.7338L42.4506 23.8193H42.4559C42.5272 23.7374 42.6269 23.675 42.7551 23.6323C42.8834 23.5895 43.0259 23.5681 43.1826 23.5681C43.4142 23.5681 43.6119 23.6145 43.7757 23.7071C43.9396 23.7997 44.0661 23.9262 44.1551 24.0865C44.2442 24.2468 44.2887 24.4302 44.2887 24.6368C44.2887 24.8541 44.2513 25.043 44.1765 25.2033C44.1053 25.36 44.0037 25.49 43.8719 25.5933C43.7437 25.6966 43.5958 25.7732 43.4284 25.8231C43.2646 25.873 43.09 25.8979 42.9048 25.8979ZM45.2506 24.9254C45.3824 24.9254 45.491 24.9557 45.5765 25.0162C45.662 25.0768 45.7244 25.1569 45.7636 25.2567C45.8063 25.3529 45.8277 25.4615 45.8277 25.5826C45.8277 25.7429 45.7921 25.8961 45.7208 26.0422C45.6531 26.1918 45.5623 26.3218 45.4483 26.4323C45.3379 26.5463 45.2167 26.6317 45.0849 26.6887L44.7162 26.4162C44.816 26.377 44.9068 26.3272 44.9888 26.2666C45.0743 26.2061 45.1473 26.1401 45.2078 26.0689C45.272 25.9977 45.3201 25.9246 45.3521 25.8498L45.3254 25.8338C45.3076 25.848 45.2844 25.8587 45.2559 25.8658C45.2274 25.873 45.19 25.8765 45.1437 25.8765C45.0796 25.8765 45.0137 25.8605 44.946 25.8284C44.8819 25.7964 44.8267 25.7483 44.7804 25.6842C44.7376 25.62 44.7162 25.5381 44.7162 25.4384C44.7162 25.3244 44.7412 25.23 44.7911 25.1552C44.8409 25.0804 44.9068 25.0234 44.9888 24.9842C45.0707 24.945 45.158 24.9254 45.2506 24.9254ZM47.8378 22.2643C48.0266 22.2643 48.2012 22.2893 48.3615 22.3391C48.5253 22.389 48.6678 22.471 48.7889 22.5849C48.9101 22.6989 49.0009 22.8521 49.0615 23.0445L48.3134 23.3972C48.2777 23.2725 48.2154 23.1745 48.1263 23.1033C48.0409 23.0285 47.9251 22.9911 47.779 22.9911C47.6793 22.9911 47.5867 23.016 47.5012 23.0659C47.4192 23.1122 47.348 23.1799 47.2874 23.2689C47.2269 23.358 47.1806 23.4666 47.1485 23.5949C47.12 23.7231 47.1057 23.8674 47.1057 24.0277C47.1057 24.0384 47.1057 24.0508 47.1057 24.0651C47.1057 24.0758 47.1057 24.0918 47.1057 24.1132L47.1164 24.1452C47.1592 24.0384 47.2251 23.9493 47.3141 23.8781C47.4068 23.8033 47.5118 23.7463 47.6294 23.7071C47.747 23.6679 47.8645 23.6483 47.9821 23.6483C48.1994 23.6483 48.3935 23.691 48.5645 23.7765C48.7355 23.862 48.8691 23.9849 48.9653 24.1452C49.065 24.302 49.1149 24.4926 49.1149 24.717C49.1149 24.9592 49.0597 25.1694 48.9492 25.3475C48.8388 25.5221 48.6856 25.6575 48.4897 25.7536C48.2938 25.8498 48.0604 25.8979 47.7897 25.8979C47.4869 25.8979 47.2197 25.832 46.9882 25.7002C46.7602 25.5648 46.5821 25.3653 46.4538 25.1017C46.3292 24.8346 46.2668 24.505 46.2668 24.1132C46.2668 23.6928 46.3363 23.3473 46.4752 23.0765C46.6141 22.8058 46.8012 22.6028 47.0363 22.4674C47.275 22.332 47.5421 22.2643 47.8378 22.2643ZM47.7737 24.2681C47.6811 24.2681 47.5956 24.2877 47.5172 24.3269C47.4424 24.3625 47.3818 24.416 47.3355 24.4872C47.2928 24.5585 47.2714 24.6422 47.2714 24.7384C47.2714 24.831 47.2945 24.9129 47.3409 24.9842C47.3872 25.0554 47.4477 25.1106 47.5225 25.1498C47.5973 25.189 47.6811 25.2086 47.7737 25.2086C47.934 25.2086 48.0569 25.1676 48.1424 25.0857C48.2314 25.0038 48.276 24.888 48.276 24.7384C48.276 24.6386 48.2564 24.5549 48.2172 24.4872C48.178 24.416 48.121 24.3625 48.0462 24.3269C47.9749 24.2877 47.8841 24.2681 47.7737 24.2681ZM51.0236 25.8979C50.5427 25.8979 50.1776 25.7447 49.9282 25.4384C49.6824 25.132 49.5595 24.6796 49.5595 24.0811C49.5595 23.4827 49.6824 23.0302 49.9282 22.7239C50.1776 22.4175 50.5427 22.2643 51.0236 22.2643C51.5046 22.2643 51.8679 22.4175 52.1137 22.7239C52.3631 23.0302 52.4878 23.4827 52.4878 24.0811C52.4878 24.6796 52.3631 25.132 52.1137 25.4384C51.8679 25.7447 51.5046 25.8979 51.0236 25.8979ZM51.0236 25.1819C51.1555 25.1819 51.2623 25.1463 51.3443 25.075C51.4262 25.0002 51.485 24.8826 51.5206 24.7223C51.5598 24.5585 51.5794 24.3447 51.5794 24.0811C51.5794 23.8175 51.5598 23.6056 51.5206 23.4452C51.485 23.2814 51.4262 23.1638 51.3443 23.0926C51.2623 23.0178 51.1555 22.9804 51.0236 22.9804C50.8954 22.9804 50.7885 23.0178 50.703 23.0926C50.6211 23.1638 50.5605 23.2814 50.5214 23.4452C50.4857 23.6056 50.4679 23.8175 50.4679 24.0811C50.4679 24.3447 50.4857 24.5585 50.5214 24.7223C50.5605 24.8826 50.6211 25.0002 50.703 25.075C50.7885 25.1463 50.8954 25.1819 51.0236 25.1819ZM54.4625 25.8979C53.9816 25.8979 53.6164 25.7447 53.3671 25.4384C53.1213 25.132 52.9984 24.6796 52.9984 24.0811C52.9984 23.4827 53.1213 23.0302 53.3671 22.7239C53.6164 22.4175 53.9816 22.2643 54.4625 22.2643C54.9434 22.2643 55.3067 22.4175 55.5525 22.7239C55.8019 23.0302 55.9266 23.4827 55.9266 24.0811C55.9266 24.6796 55.8019 25.132 55.5525 25.4384C55.3067 25.7447 54.9434 25.8979 54.4625 25.8979ZM54.4625 25.1819C54.5943 25.1819 54.7011 25.1463 54.7831 25.075C54.865 25.0002 54.9238 24.8826 54.9594 24.7223C54.9986 24.5585 55.0182 24.3447 55.0182 24.0811C55.0182 23.8175 54.9986 23.6056 54.9594 23.4452C54.9238 23.2814 54.865 23.1638 54.7831 23.0926C54.7011 23.0178 54.5943 22.9804 54.4625 22.9804C54.3342 22.9804 54.2274 23.0178 54.1419 23.0926C54.0599 23.1638 53.9994 23.2814 53.9602 23.4452C53.9246 23.6056 53.9067 23.8175 53.9067 24.0811C53.9067 24.3447 53.9246 24.5585 53.9602 24.7223C53.9994 24.8826 54.0599 25.0002 54.1419 25.075C54.2274 25.1463 54.3342 25.1819 54.4625 25.1819ZM58.9386 25.8979C58.757 25.8979 58.5967 25.8676 58.4577 25.8071C58.3224 25.7429 58.2155 25.6414 58.1371 25.5025C58.0588 25.3636 58.0196 25.1819 58.0196 24.9575V23.1727H58.928V24.7437C58.928 24.9147 58.9618 25.034 59.0295 25.1017C59.0972 25.1694 59.1934 25.2033 59.318 25.2033C59.3822 25.2033 59.4427 25.1926 59.4997 25.1712C59.5567 25.1463 59.6066 25.1106 59.6493 25.0643C59.6921 25.0145 59.7241 24.9521 59.7455 24.8773C59.7704 24.7989 59.7829 24.7081 59.7829 24.6048V23.1727H60.6913V25.8445H59.8791L59.8524 25.3422C59.7669 25.531 59.6475 25.6717 59.4944 25.7643C59.3412 25.8534 59.1559 25.8979 58.9386 25.8979ZM62.4661 25.8979C62.1989 25.8979 61.9496 25.8552 61.718 25.7697C61.49 25.6806 61.3012 25.5541 61.1516 25.3903L61.5791 24.888C61.6681 25.002 61.7857 25.0982 61.9318 25.1765C62.0814 25.2513 62.247 25.2888 62.4287 25.2888C62.5391 25.2888 62.63 25.2727 62.7012 25.2407C62.7725 25.2086 62.8081 25.1587 62.8081 25.091C62.8081 25.0412 62.7903 25.002 62.7546 24.9735C62.719 24.9414 62.6478 24.9147 62.5409 24.8933L62.1669 24.8185C61.832 24.7508 61.5933 24.6511 61.4508 24.5193C61.3119 24.3839 61.2424 24.2076 61.2424 23.9903C61.2424 23.8442 61.287 23.7053 61.376 23.5735C61.4651 23.4381 61.6022 23.3295 61.7875 23.2475C61.9727 23.162 62.2096 23.1193 62.4982 23.1193C62.7689 23.1193 63.0076 23.1585 63.2142 23.2369C63.4208 23.3152 63.5847 23.4292 63.7058 23.5788L63.273 24.0704C63.1875 23.9636 63.077 23.8799 62.9417 23.8193C62.8063 23.7587 62.6709 23.7285 62.5356 23.7285C62.4501 23.7285 62.377 23.7374 62.3165 23.7552C62.2595 23.7694 62.2167 23.7908 62.1882 23.8193C62.1597 23.8478 62.1455 23.8834 62.1455 23.9262C62.1455 23.9725 62.1669 24.0134 62.2096 24.0491C62.2559 24.0811 62.3396 24.1096 62.4608 24.1346L62.947 24.2307C63.2213 24.2806 63.419 24.3715 63.5401 24.5033C63.6613 24.6351 63.7218 24.7936 63.7218 24.9788C63.7218 25.1534 63.6755 25.3101 63.5829 25.4491C63.4903 25.588 63.3513 25.6984 63.1661 25.7804C62.9809 25.8587 62.7475 25.8979 62.4661 25.8979ZM65.4813 25.8979C65.1856 25.8979 64.9291 25.8427 64.7118 25.7323C64.4981 25.6218 64.3324 25.4633 64.2149 25.2567C64.0973 25.0501 64.0385 24.8007 64.0385 24.5086C64.0385 24.2165 64.0973 23.9671 64.2149 23.7605C64.3324 23.5539 64.4963 23.3954 64.7065 23.2849C64.9202 23.1745 65.1642 23.1193 65.4385 23.1193C65.72 23.1193 65.9586 23.1745 66.1546 23.2849C66.3541 23.3918 66.5055 23.5414 66.6088 23.7338C66.7121 23.9226 66.7637 24.1399 66.7637 24.3857C66.7637 24.4498 66.7619 24.5139 66.7584 24.5781C66.7548 24.6422 66.7495 24.6956 66.7424 24.7384H64.6263V24.2521H66.3416L65.9088 24.4178C65.9088 24.204 65.8696 24.0402 65.7912 23.9262C65.7164 23.8122 65.5988 23.7552 65.4385 23.7552C65.3245 23.7552 65.2266 23.7819 65.1447 23.8353C65.0663 23.8888 65.0057 23.9725 64.963 24.0865C64.9238 24.2005 64.9042 24.3465 64.9042 24.5246C64.9042 24.6992 64.9273 24.8417 64.9737 24.9521C65.02 25.059 65.0859 25.1374 65.1714 25.1872C65.2569 25.2335 65.3602 25.2567 65.4813 25.2567C65.6167 25.2567 65.7235 25.23 65.8019 25.1765C65.8838 25.1231 65.9444 25.0483 65.9836 24.9521L66.7103 25.1926C66.6604 25.3457 66.5731 25.4758 66.4485 25.5826C66.3273 25.686 66.1813 25.7643 66.0103 25.8178C65.8429 25.8712 65.6665 25.8979 65.4813 25.8979ZM67.2719 25.8445V23.1727H68.0734L68.1108 23.7498C68.1785 23.5503 68.2783 23.3954 68.4101 23.2849C68.5454 23.1745 68.7164 23.1193 68.923 23.1193C68.9907 23.1193 69.0477 23.1246 69.094 23.1353C69.1439 23.146 69.1831 23.1603 69.2116 23.1781L69.1207 23.9262C69.0851 23.9119 69.0388 23.9012 68.9818 23.8941C68.9284 23.8834 68.8625 23.8781 68.7841 23.8781C68.6772 23.8781 68.5775 23.9012 68.4849 23.9475C68.3923 23.9938 68.3174 24.0633 68.2604 24.1559C68.207 24.245 68.1803 24.359 68.1803 24.4979V25.8445H67.2719ZM70.6483 25.8979C70.3811 25.8979 70.1318 25.8552 69.9002 25.7697C69.6722 25.6806 69.4834 25.5541 69.3338 25.3903L69.7613 24.888C69.8504 25.002 69.9679 25.0982 70.114 25.1765C70.2636 25.2513 70.4292 25.2888 70.6109 25.2888C70.7213 25.2888 70.8122 25.2727 70.8834 25.2407C70.9547 25.2086 70.9903 25.1587 70.9903 25.091C70.9903 25.0412 70.9725 25.002 70.9369 24.9735C70.9012 24.9414 70.83 24.9147 70.7231 24.8933L70.3491 24.8185C70.0142 24.7508 69.7755 24.6511 69.6331 24.5193C69.4941 24.3839 69.4247 24.2076 69.4247 23.9903C69.4247 23.8442 69.4692 23.7053 69.5582 23.5735C69.6473 23.4381 69.7845 23.3295 69.9697 23.2475C70.1549 23.162 70.3918 23.1193 70.6804 23.1193C70.9511 23.1193 71.1898 23.1585 71.3964 23.2369C71.603 23.3152 71.7669 23.4292 71.888 23.5788L71.4552 24.0704C71.3697 23.9636 71.2593 23.8799 71.1239 23.8193C70.9885 23.7587 70.8532 23.7285 70.7178 23.7285C70.6323 23.7285 70.5593 23.7374 70.4987 23.7552C70.4417 23.7694 70.399 23.7908 70.3705 23.8193C70.342 23.8478 70.3277 23.8834 70.3277 23.9262C70.3277 23.9725 70.3491 24.0134 70.3918 24.0491C70.4381 24.0811 70.5219 24.1096 70.643 24.1346L71.1292 24.2307C71.4035 24.2806 71.6012 24.3715 71.7224 24.5033C71.8435 24.6351 71.904 24.7936 71.904 24.9788C71.904 25.1534 71.8577 25.3101 71.7651 25.4491C71.6725 25.588 71.5336 25.6984 71.3483 25.7804C71.1631 25.8587 70.9297 25.8979 70.6483 25.8979Z" fill="#FDF0CC"/>
</g>
<defs>
<linearGradient id="paint0_linear_412_1349" x1="50.5389" y1="20.4898" x2="52.354" y2="78.8939" gradientUnits="userSpaceOnUse">
<stop stop-color="#BB9DDE"/>
<stop offset="1" stop-color="#BB9DDE" stop-opacity="0"/>
</linearGradient>
<clipPath id="clip0_412_1349">
<rect width="101.158" height="85.9927" rx="8.06686" fill="white"/>
</clipPath>
</defs>
</svg>
