<svg width="50" height="50" viewBox="0 0 50 50" fill="none" xmlns="http://www.w3.org/2000/svg">
<rect y="0.352539" width="49.4074" height="49.4074" rx="24.7037" fill="#BB9DDE"/>
<path fill-rule="evenodd" clip-rule="evenodd" d="M24.7039 11.3318C20.1561 11.3318 16.4693 15.0185 16.4693 19.5663V22.0792C16.4693 24.0271 15.94 25.9383 14.9378 27.6087L14.1783 28.8745C13.6745 29.7142 13.4226 30.134 13.4054 30.4768C13.3787 31.0077 13.661 31.5063 14.13 31.7566C14.4328 31.9182 14.9224 31.9182 15.9016 31.9182H33.5063C34.4854 31.9182 34.975 31.9182 35.2778 31.7566C35.7469 31.5063 36.0292 31.0077 36.0025 30.4767C35.9852 30.1339 35.7333 29.7142 35.2296 28.8746L34.47 27.6087C33.4679 25.9384 32.9385 24.0271 32.9385 22.0792V21.3738C32.9385 21.1484 32.9385 21.0356 32.8742 20.9747C32.81 20.9138 32.6864 20.9205 32.4393 20.9337C32.3774 20.9371 32.315 20.9388 32.2523 20.9388C30.3574 20.9388 28.8213 19.4026 28.8213 17.5077C28.8213 16.247 29.5012 15.1452 30.5143 14.5488C30.7573 14.4057 30.8788 14.3342 30.8924 14.2355C30.9061 14.1368 30.8205 14.0475 30.6494 13.869C29.1506 12.3053 27.0409 11.3318 24.7039 11.3318Z" fill="#F8B400"/>
<circle cx="32.2525" cy="17.5076" r="2.05864" fill="white"/>
<path d="M27.9294 33.2905C28.0431 33.2905 28.1362 33.3829 28.1256 33.4961C28.0644 34.1489 27.7129 34.7654 27.1303 35.2315C26.4869 35.7462 25.6142 36.0354 24.7042 36.0354C23.7942 36.0354 22.9215 35.7462 22.2781 35.2315C21.6954 34.7654 21.344 34.1489 21.2827 33.4961C21.2721 33.3829 21.3653 33.2905 21.479 33.2905L24.7042 33.2905L27.9294 33.2905Z" fill="white"/>
</svg>
